<?xml version="1.0" encoding="utf-8"?>
<!-- Generator: Adobe Illustrator 16.0.0, SVG Export Plug-In . SVG Version: 6.00 Build 0)  -->
<!DOCTYPE svg PUBLIC "-//W3C//DTD SVG 1.1//EN" "http://www.w3.org/Graphics/SVG/1.1/DTD/svg11.dtd">
<svg version="1.1" id="Layer_1" xmlns="http://www.w3.org/2000/svg" xmlns:xlink="http://www.w3.org/1999/xlink" x="0px" y="0px"
	 width="943px" height="481px" viewBox="9.5 42.5 943 481" enable-background="new 9.5 42.5 943 481" xml:space="preserve">
<linearGradient id="SVGID_1_" gradientUnits="userSpaceOnUse" x1="38.0088" y1="88.77" x2="127.063" y2="88.77" gradientTransform="matrix(1 0 0 -1 0 561)">
	<stop  offset="0" style="stop-color:#FFFFFF;stop-opacity:0"/>
	<stop  offset="1" style="stop-color:#000000;stop-opacity:0.4"/>
</linearGradient>
<ellipse opacity="0.5" fill="url(#SVGID_1_)" enable-background="new    " cx="82.536" cy="472.23" rx="44.527" ry="6.221"/>
<ellipse opacity="0.5" fill="#C6EBFE" enable-background="new    " cx="901.531" cy="474.217" rx="44.525" ry="6.221"/>
<polygon opacity="0.12" fill="#020202" enable-background="new    " points="860.979,71.381 821.627,71.381 821.627,146.79 
	773.127,146.79 773.127,168.098 733.563,168.098 733.563,53.383 686.011,53.383 686.011,195.994 640.392,195.994 640.392,71.647 
	604.654,71.647 604.654,174.186 595.721,174.186 595.721,152.877 549.32,152.877 549.32,195.495 531.906,195.495 531.906,46.923 
	492.342,46.923 492.342,168.098 492.27,168.098 492.27,434.398 860.979,434.398 "/>
<polygon opacity="0.12" fill="#070707" enable-background="new    " points="461.436,71.381 430.035,71.381 430.035,146.79 
	381.536,146.79 381.536,168.098 341.97,168.098 341.97,53.383 294.418,53.383 294.418,195.994 248.801,195.994 248.801,71.647 
	213.063,71.647 213.063,174.186 204.129,174.186 204.129,152.877 157.729,152.877 157.729,195.495 140.314,195.495 140.314,46.923 
	92.727,46.923 92.727,226.951 92.727,434.398 461.436,434.398 "/>
<g>
	<path fill="#9AE586" d="M47.994,279.551c0,0-13.818,61.031,8.061,102.486c21.879,41.455,21.879,41.455,21.879,41.455
		S83.691,319.855,47.994,279.551z"/>
	<path fill="#FFFFFF" d="M48.928,438.885c1.33,7.484,3.033,15.033,6.736,21.672c3.705,6.64,9.688,12.336,17.075,14.125
		c3.349,0.813,6.838,0.8,10.282,0.707c3.781-0.102,7.731-0.342,10.989-2.262c4.247-2.5,6.474-7.328,8.2-11.943
		c2.919-7.813,5.135-15.889,6.611-24.098c0.853-4.736,1.403-9.875-0.809-14.15c-2.998-5.793-10.019-8.122-16.456-9.174
		c-10.696-1.744-25.424-2.639-35.672,1.72C46.938,419.283,47.478,430.715,48.928,438.885z"/>
	<path fill="#524F63" d="M73.188,423.693c8.487,0.496,17.685-0.808,23.028-3.685c1.069-0.576,2.02-1.313,1.515-2.018
		c-0.596-0.834-2.857-1.179-4.828-1.381c-10.204-1.054-21.503-1.529-31.49,0.166C46.781,419.258,65.421,423.24,73.188,423.693z"/>
	<path fill="#00AF80" d="M68.722,264.583c0,0-6.909,116.304,9.212,158.911C77.934,423.494,88.298,319.855,68.722,264.583z"/>
	<path fill="#9AE586" d="M75.897,422.643h3.741c5.504-23.022,21.968-97.604,13.266-132.412c0,0-27.637,97.884-20.728,119.763
		C73.864,415.73,75.054,419.777,75.897,422.643z"/>
</g>
<g>
	<path fill="#69E881" d="M868.945,283.527c0,0-13.818,61.031,8.062,102.486c21.879,41.456,21.879,41.456,21.879,41.456
		S904.644,323.832,868.945,283.527z"/>
	<path fill="#FFFFFF" d="M869.879,442.861c1.33,7.481,3.033,15.035,6.736,21.672c3.704,6.637,9.688,12.334,17.075,14.123
		c3.351,0.813,6.838,0.801,10.282,0.709c3.779-0.104,7.729-0.342,10.986-2.26c4.248-2.505,6.475-7.33,8.2-11.947
		c2.92-7.813,5.135-15.887,6.611-24.094c0.852-4.74,1.401-9.878-0.81-14.154c-2.999-5.791-10.021-8.123-16.457-9.172
		c-10.692-1.744-25.425-2.638-35.672,1.719C867.888,423.258,868.428,434.691,869.879,442.861z"/>
	<path fill="#FA5252" d="M894.138,427.668c8.487,0.496,17.688-0.805,23.028-3.684c1.07-0.574,2.021-1.314,1.517-2.021
		c-0.598-0.832-2.855-1.176-4.827-1.377c-10.204-1.055-21.504-1.531-31.489,0.164C867.733,423.234,886.373,427.215,894.138,427.668z
		"/>
	<path fill="#2BC48B" d="M889.673,268.558c0,0-6.909,116.305,9.213,158.913C898.886,427.471,909.249,323.832,889.673,268.558z"/>
	<path fill="#69E881" d="M896.849,426.619h3.74c5.504-23.023,21.969-97.604,13.269-132.414c0,0-27.639,97.883-20.729,119.762
		C894.814,419.705,896.006,423.752,896.849,426.619z"/>
</g>
<linearGradient id="SVGID_2_" gradientUnits="userSpaceOnUse" x1="51.9561" y1="69.479" x2="252.7222" y2="69.479" gradientTransform="matrix(1 0 0 -1 0 561)">
	<stop  offset="0" style="stop-color:#FFFFFF;stop-opacity:0"/>
	<stop  offset="1" style="stop-color:#000000;stop-opacity:0.4"/>
</linearGradient>
<ellipse opacity="0.5" fill="url(#SVGID_2_)" enable-background="new    " cx="152.339" cy="491.521" rx="100.383" ry="12.921"/>
<linearGradient id="SVGID_3_" gradientUnits="userSpaceOnUse" x1="719.8477" y1="59.54" x2="920.6143" y2="59.54" gradientTransform="matrix(1 0 0 -1 0 561)">
	<stop  offset="0" style="stop-color:#FFFFFF;stop-opacity:0"/>
	<stop  offset="1" style="stop-color:#000000;stop-opacity:0.4"/>
</linearGradient>
<ellipse opacity="0.5" fill="url(#SVGID_3_)" enable-background="new    " cx="820.231" cy="501.46" rx="100.383" ry="12.919"/>
<linearGradient id="SVGID_4_" gradientUnits="userSpaceOnUse" x1="282.5391" y1="72.4619" x2="483.3047" y2="72.4619" gradientTransform="matrix(1 0 0 -1 0 561)">
	<stop  offset="0" style="stop-color:#FFFFFF;stop-opacity:0"/>
	<stop  offset="1" style="stop-color:#000000;stop-opacity:0.4"/>
</linearGradient>
<ellipse opacity="0.5" fill="url(#SVGID_4_)" enable-background="new    " cx="382.922" cy="488.538" rx="100.383" ry="12.921"/>
<linearGradient id="SVGID_5_" gradientUnits="userSpaceOnUse" x1="546.9131" y1="76.438" x2="747.6768" y2="76.438" gradientTransform="matrix(1 0 0 -1 0 561)">
	<stop  offset="0" style="stop-color:#FFFFFF;stop-opacity:0"/>
	<stop  offset="1" style="stop-color:#000000;stop-opacity:0.4"/>
</linearGradient>
<ellipse opacity="0.5" fill="url(#SVGID_5_)" enable-background="new    " cx="647.295" cy="484.562" rx="100.382" ry="12.921"/>
<linearGradient id="SVGID_6_" gradientUnits="userSpaceOnUse" x1="429.1729" y1="98.0586" x2="549.0986" y2="98.0586" gradientTransform="matrix(1 0 0 -1 0 561)">
	<stop  offset="0" style="stop-color:#FFFFFF;stop-opacity:0"/>
	<stop  offset="1" style="stop-color:#000000;stop-opacity:0.4"/>
</linearGradient>
<ellipse opacity="0.5" fill="url(#SVGID_6_)" enable-background="new    " cx="489.136" cy="462.941" rx="59.963" ry="12.92"/>
<g>
	<path fill="#F86A9A" d="M170.253,145.356l37.874,6.142l-18.02-16.455l8.614-9.608l32.757,29.299
		c4.517,4.743,1.294,12.595-5.252,12.8l-45.891,1.434L170.253,145.356z"/>
	<polygon fill="#182042" points="186.069,242.427 185.315,489.666 172.307,490.594 163.274,280.838 151.196,281.768 
		138.857,488.738 125.849,487.809 127.49,237.952 	"/>
	<path fill="#F86A9A" d="M170.253,145.356l-43.742-1.84c-4.522-0.19-8.878,1.718-11.803,5.171l12.782,100.159l59.783,1.204
		l-5.459-91.806C181.814,158.245,171.844,145.423,170.253,145.356z"/>
	<path fill="#FFFFFF" d="M189.961,126.17c-2.402,1.906-5.46,3.672-5.943,6.701c-0.418,2.62,1.513,5.231,3.991,6.18
		c2.478,0.947,5.31,0.492,7.731-0.592c3.903-1.745,7.123-5.283,7.841-9.497c0.526-3.089-0.852-9.028-4.44-10.111
		C195.073,117.623,192.909,123.833,189.961,126.17z"/>
	<polygon fill="#F86A9A" points="125.849,487.809 100.537,495.367 101.465,497.533 138.289,493.51 138.857,488.738 	"/>
	<path fill="#B3B3FB" d="M44.034,146.131l-4.012-6.82l4.414-9.229c0,0,2.407-6.42,2.407-8.426c0-2.005-2.006-4.814-4.013-1.204
		c-2.006,3.612-4.012,6.42-4.012,6.42l-11.897-17.653c-0.338-0.503-0.904-0.803-1.51-0.803l0,0c-1.376,0-2.254,1.468-1.602,2.681
		l2.722,5.065c0.905,1.682-1.061,3.443-2.634,2.36l-0.546-0.376c-2.996-2.061-7.089-1.341-9.203,1.617l-0.205,0.287l0.2,6.002
		c0.128,3.849,1.902,7.455,4.879,9.898c7.024,5.765,19.51,15.858,19.798,14.994C39.219,149.742,44.034,146.131,44.034,146.131z"/>
	<path fill="#B3B3FB" d="M179.762,106.729c-1.643-0.812-3.783-0.026-4.813,1.49c-1.03,1.516-1.068,3.55-0.457,5.277
		c1.141,3.224,4.65,5.512,8.03,5.006c3.381-0.507,6.12-3.947,5.622-7.33c-0.357-2.425-2.22-4.494-4.504-5.383
		c-2.285-0.889-4.912-0.679-7.167,0.282"/>
	<path fill="#B3B3FB" d="M178.894,110.528l19.684,15.464c0,0,0.468,8.436-4.218,9.373c-1.407,0.937-19.684-18.276-19.684-18.276
		L178.894,110.528z"/>
	<path fill="#F86A9A" d="M172.307,490.594l0.64,4.154l31.873,5.26c0,0,1.547-2.477,0.618-2.783
		c-0.929-0.311-20.123-7.559-20.123-7.559L172.307,490.594z"/>
	<path fill="#B3B3FB" d="M141.205,124.202l1.005,27.252c0,3.162,2.3,5.854,5.423,6.349l0,0c3.568,0.564,6.901-1.923,7.375-5.505
		l1.382-23.566L141.205,124.202z"/>
	<g>
		
			<rect x="164.956" y="100.009" transform="matrix(0.9832 0.1828 -0.1828 0.9832 23.8867 -29.5025)" fill="#524F63" width="14.056" height="29.634"/>
		
			<rect x="164.953" y="99.854" transform="matrix(0.9832 0.1828 -0.1828 0.9832 23.8416 -29.3584)" fill="#231F20" width="12.501" height="29.636"/>
	</g>
	<path fill="#FFFFFF" d="M139.625,147.456c0,0-1.994,1.708-2.136,2.279c-0.143,0.57,7.691,12.819,7.691,12.819l5.271-8.403
		l6.552,8.403l2.707-15.24l-4.416-0.998l-4.986,5.698l-8.832-7.123L139.625,147.456z"/>
	<polygon fill="#FFFFFF" points="150.45,154.15 147.175,159.563 149.453,163.694 148.171,166.828 149.453,206.995 154.011,212.123 
		158.142,207.28 153.869,166.685 151.448,163.409 154.439,159.278 	"/>
	<path fill="#B3B3FB" d="M129.842,95.05c-2.764,6.388-2.456,13.711-1.001,20.517c1.581,7.395,4.678,14.816,10.536,19.598
		c5.858,4.783,14.947,6.141,20.982,1.585c3.595-2.713,5.625-7.015,6.994-11.307c2.72-8.536,3.275-18.076-0.269-26.305
		C160.584,84.047,137.603,77.117,129.842,95.05z"/>
	<polygon fill="#F86A9A" points="120.065,177.472 73.105,192.631 38.978,155.451 47.482,148.426 78.941,174.218 114.708,148.688 
		120.804,159.354 	"/>
	<polygon fill="#FFFFFF" points="33.602,152.952 37.213,158.569 53.263,149.341 46.843,142.921 	"/>
	<path fill="#B3B3FB" d="M121.805,107.15c-2.027,0.89-3.024,3.34-2.799,5.542c0.224,2.202,1.43,4.181,2.786,5.931
		c0.752,0.97,1.578,1.913,2.622,2.558c1.013,0.625,2.191,0.942,3.372,1.098c1.45,0.193,3.159,0.04,4.006-1.152
		c0.448-0.628,0.561-1.427,0.654-2.194c0.443-3.63-0.494-5.07-2.595-7.699C127.923,108.82,125.393,105.573,121.805,107.15z"/>
	<path fill="#231F20" d="M135.234,107.396c-0.302,3.791-2.097,7.669-5.423,9.513c-2.481-3.18-3.791-7.162-4.232-11.172
		c-0.545-4.955,0.263-10.221,3.158-14.277c3.306-4.631,9.009-7.166,14.683-7.577c5.675-0.411,11.336,1.09,16.601,3.249
		c2.282,0.936,5.208,1.89,6.948,0.14c0.908,1.71,1.394,3.644,1.402,5.582c0.006,1.487-0.283,3.016-1.108,4.254
		c-1.392,2.088-3.648,4.419-6.098,4.967c-18.522,4.139-27.13-5.916-27.216-5.638c-0.303,0.99,0.292,2.226,0.521,3.233
		C135.046,102.201,135.443,104.795,135.234,107.396z"/>
</g>
<g>
	<path fill="#FCBD24" d="M407.72,315.193l-5.261-102.509c0,0-26.355-1.58-34.199-1.58c-4.271,0-11.57,2.028-17.333,3.874
		c-5.413,1.736-9.91,1.582-12.54,6.622l-43.224,82.845l26.558,2.529l8.854-10.117l-4.503-6.828l16.146-38.08l-0.262,64.51
		L407.72,315.193z"/>
	<path opacity="0.5" fill="#F6910F" enable-background="new    " d="M341.646,236.846l-28.652,51.763l8.922,10.451
		c0,0,3.626,0.729,7.073-0.392l1.585-1.813l-4.503-6.828l16.146-38.079L341.646,236.846z"/>
	<path fill="#B3B3FB" d="M364.491,294.467c-1.109-0.369-9.98-5.545-16.634-5.545c-6.654,0-14.787,7.023-14.787,7.023
		s-1.109,3.697,3.327,2.957c4.437-0.738,7.394-1.109,7.394-1.109s-7.763,4.066-2.587,4.807c5.174,0.738,26.985,0,26.985,0
		L364.491,294.467z"/>
	
		<linearGradient id="SVGID_7_" gradientUnits="userSpaceOnUse" x1="277.458" y1="254.627" x2="365.9873" y2="254.627" gradientTransform="matrix(1 0 0 -1 0 561)">
		<stop  offset="0" style="stop-color:#317CF1"/>
		<stop  offset="1" style="stop-color:#172182"/>
	</linearGradient>
	<path fill="url(#SVGID_7_)" d="M362.856,309.504h-85.398v-6.262h85.398c1.729,0,3.131,1.402,3.131,3.133l0,0
		C365.987,308.104,364.585,309.504,362.856,309.504z"/>
	
		<linearGradient id="SVGID_8_" gradientUnits="userSpaceOnUse" x1="234.5054" y1="286.9072" x2="339.4268" y2="286.9072" gradientTransform="matrix(1 0 0 -1 0 561)">
		<stop  offset="0" style="stop-color:#317CF1"/>
		<stop  offset="1" style="stop-color:#172182"/>
	</linearGradient>
	<path fill="url(#SVGID_8_)" d="M339.427,309.504h-82.351c-3.642,0-6.829-2.449-7.763-5.973l-14.534-54.758
		c-1.354-5.096,2.489-10.091,7.763-10.091h71.909c3.642,0,6.828,2.451,7.763,5.97L339.427,309.504z"/>
	
		<linearGradient id="SVGID_9_" gradientUnits="userSpaceOnUse" x1="150.5059" y1="529.1914" x2="218.084" y2="529.1914" gradientTransform="matrix(1 0 0 1 84 -256)">
		<stop  offset="0" style="stop-color:#484EC2;stop-opacity:0"/>
		<stop  offset="1" style="stop-color:#444BCC;stop-opacity:0.5018"/>
	</linearGradient>
	<path fill="url(#SVGID_9_)" d="M242.542,238.683c-5.273,0-9.116,4.996-7.763,10.091l14.534,54.759
		c0.449,1.688,1.424,3.121,2.711,4.166l50.06-69.016H242.542z"/>
	<path fill="#FFFFFF" d="M290.929,278.943c0.903,3.571-1.345,6.467-5.021,6.467c-3.674,0-7.385-2.895-8.287-6.467
		c-0.901-3.571,1.346-6.468,5.021-6.468C286.318,272.475,290.028,275.372,290.929,278.943z"/>
	<path fill="#B3B3FB" d="M365.6,198.358c0.739,1.479,5.915,21.81,5.915,21.81s1.849,3.326,6.284,2.957
		c4.437-0.37,6.284-6.654,6.284-6.654l-7.763-25.505L365.6,198.358z"/>
	<path fill="#B3B3FB" d="M392.959,185.837c0,14.005-14.87,29.503-28.875,29.503s-21.842-15.499-21.842-29.503
		c0-14.006,11.353-25.358,25.356-25.358C381.605,160.479,392.959,171.832,392.959,185.837z"/>
	<path fill="#D8D7FF" d="M369.667,213.883l-2.958,7.763l1.849,8.133l5.914-8.502l5.915,9.61l6.654-11.828l-4.438-7.763
		c0,0-2.218,5.175-7.023,6.284C370.775,218.689,369.667,213.883,369.667,213.883z"/>
	<polygon fill="#0162CD" points="374.471,221.276 370.036,226.822 372.254,230.147 368.927,237.171 369.667,283.377 
		374.102,292.619 380.386,282.27 378.908,238.281 375.58,229.779 378.168,226.082 	"/>
	<polygon opacity="0.6" fill="#F6910F" enable-background="new    " points="405.579,234.073 407.184,315.123 369.067,314.721 	"/>
	<path fill="#FCBD24" d="M402.459,212.684l3.516,76.386l-35.303,7.193l4.814,9.229l50.531,2.938l-6.9-75.555
		c-0.711-7.786-5.418-14.643-12.432-18.104L402.459,212.684z"/>
	<polygon fill="#B3B3FB" points="364.491,294.467 371.515,295.207 377.799,305.557 365.987,306.375 	"/>
	<path fill="#1B283B" d="M329.293,329.043l-62.48,15.896L298.601,469.9l10.962-5.482l-9.317-107.422l55.903-17.539l-32.336,18.635
		l0.549,101.943h9.864c0,0,27.405-99.752,30.145-99.752c2.741,0,48.779-30.691,48.779-30.691L329.293,329.043z"/>
	<polygon fill="#0162CD" points="264.979,479.74 308.43,476.652 309.624,462.961 263.18,473.531 	"/>
	<polygon fill="#0162CD" points="300.246,487.439 309.014,488.535 333.679,479.219 334.226,460.037 324.361,460.037 
		319.976,472.092 306.682,480.125 	"/>
	<path fill="#143B64" d="M341.362,176.822c-0.992,1.821-2.007,3.946-1.269,5.884c0.903,2.368,3.85,3.092,6.367,3.387
		c4.346,0.51,8.724,0.736,13.1,0.678c2.901-0.04,5.82-0.207,8.646-0.868c4.622-1.083,8.828-3.444,12.962-5.776
		c2.947-1.663,6.208-3.758,6.744-7.1c0.53-3.314-1.872-6.307-4.116-8.803c-1.273-1.418-2.56-2.845-4.096-3.975
		c-3.751-2.758-8.73-3.475-13.327-2.735C354.956,159.354,346.693,167.047,341.362,176.822z"/>
	<path fill="#143B64" d="M382.853,185.029c0.395-1.338,2.069-2.029,3.394-1.592c1.323,0.438,2.221,1.766,2.428,3.145
		c0.207,1.378-0.183,2.788-0.79,4.042c-0.297,0.612-0.647,1.207-0.807,1.867c-0.133,0.554-0.125,1.131-0.116,1.702
		c0.041,2.478,0.081,4.956,0.121,7.434c2.046-0.779,3.24-2.86,4.27-4.792c2.263-4.241,4.588-8.757,4.324-13.557
		c-0.219-3.974-2.193-7.614-4.197-11.053c-0.431-0.739-0.886-1.5-1.585-1.991c-0.992-0.698-2.336-0.73-3.496-0.376
		c-1.161,0.354-2.186,1.047-3.188,1.731c-0.984,0.67-1.969,1.342-2.953,2.013c-0.958,0.653-1.955,1.351-2.474,2.387
		c-0.938,1.875,0.367,2.667,1.462,3.801C379.8,180.366,378.817,192.685,382.853,185.029z"/>
	<g>
		<path fill="#EFF2F7" d="M345.573,206.247c-3.354,0-7.095-2.85-8.34-6.354c-0.663-1.865-0.527-3.666,0.374-4.941
			c0.794-1.126,2.102-1.747,3.683-1.747c3.353,0,7.093,2.851,8.338,6.354c0.664,1.865,0.528,3.666-0.373,4.94
			C348.461,205.626,347.152,206.247,345.573,206.247z M341.29,194.199c-1.248,0-2.268,0.47-2.872,1.325
			c-0.711,1.009-0.803,2.48-0.25,4.035c1.118,3.139,4.438,5.694,7.405,5.694c1.248,0,2.267-0.472,2.871-1.326
			c0.711-1.007,0.803-2.478,0.25-4.034C347.576,196.753,344.255,194.199,341.29,194.199z"/>
	</g>
	<g>
		<path fill="#EFF2F7" d="M362.39,206.247c-3.353,0-7.094-2.85-8.34-6.354c-0.662-1.865-0.526-3.666,0.374-4.941
			c0.795-1.126,2.104-1.747,3.684-1.747c3.353,0,7.094,2.851,8.34,6.354c0.662,1.865,0.525,3.666-0.373,4.94
			C365.278,205.626,363.97,206.247,362.39,206.247z M358.106,194.199c-1.248,0-2.269,0.47-2.871,1.325
			c-0.712,1.009-0.804,2.48-0.25,4.035c1.116,3.139,4.438,5.694,7.403,5.694c1.249,0,2.269-0.472,2.872-1.326
			c0.711-1.007,0.802-2.478,0.249-4.034C364.393,196.753,361.073,194.199,358.106,194.199z"/>
	</g>
</g>
<g>
	<path fill="#FF6984" d="M455.048,146.226c0.262,3.981,2.446,7.942,1.347,11.779c-0.9,3.145-3.834,5.391-4.736,8.534
		c-1.027,3.567,0.784,7.271,2.539,10.542c1.468,2.736,3.521,5.845,6.629,5.86c1.355,0.006,2.628-0.616,3.842-1.226
		c2.956-1.481,5.911-2.963,8.866-4.446c1.274-0.639,2.574-1.294,3.604-2.281c1.536-1.471,2.334-3.532,3.062-5.531
		c2.272-6.26,4.308-12.82,3.784-19.459c-0.525-6.641-4.156-13.428-10.346-15.892c-3.464-1.378-13.598-2.609-16.57,0.356
		c-1.325,1.32-0.663,2.725-0.831,4.407C455.983,141.396,454.876,143.614,455.048,146.226z"/>
	<path fill="#FDCCBA" d="M462.226,166.117l-3.019,0.826c-12.55,8.169-19.895,19.521-21.477,34.412l-6.396,103.6l9.62-4.301
		L462.226,166.117z"/>
	<path fill="#172182" d="M525.69,165.33l-51.247-2.087c-4.331-0.176-11.956,1.366-16.106,2.611l-6.53,3.047l11.499,54.897h-0.001
		c-10.469,17.748-15.696,38.099-15.078,58.694l6.083,74.857h57.443l7.315-78.957c0.616-16.165-2.365-32.268-8.737-47.136
		l-3.126-7.294L525.69,165.33z"/>
	<path fill="#2245AE" d="M464.13,187.356c1.387,2.615,3.333,4.999,5.881,6.507c3.416,2.022,7.658,2.306,11.542,1.488
		c3.886-0.818,7.479-2.653,10.904-4.661c6.172-3.619,12.042-7.933,16.534-13.504c3.155-3.915,5.604-9.494,3.042-13.821
		c-1.645-2.773-4.885-4.146-7.998-4.982C487.398,153.916,451.422,163.396,464.13,187.356z"/>
	<path fill="#FDCCBA" d="M503.634,138.591c0,13.62-14.521,32.114-28.145,32.114c-13.619,0-21.181-18.494-21.181-32.114
		c0-13.621,11.042-24.662,24.662-24.662S503.634,124.971,503.634,138.591z"/>
	<path fill="#FDCCBA" d="M525.69,165.33l35.545,46.333c3.726,4.856,2.424,11.868-2.796,15.063l-41.558,25.424l-5.131-8.015
		l28.507-22.854c2.072-1.662,2.51-4.642,1.002-6.828l-21.621-30.636L525.69,165.33z"/>
	<path fill="#FDCCBA" d="M411.675,309.523h22.317c3.572,0,6.537-2.765,6.784-6.326l0.178-2.545L411.675,309.523z"/>
	<path fill="#FDCCBA" d="M472.329,155.173c-0.33-0.823,5.892,16.274,5.892,16.274s1.403,7.016,7.295,5.332
		c5.896-1.684,2.245-26.657,1.403-26.937C486.076,149.561,472.889,156.577,472.329,155.173z"/>
	<path fill="#FF6984" d="M486.957,135.35c-11.416,6.949-23.428,14.092-36.767,14.907c3.001-3.725,2.397-9.049,2.948-13.8
		c0.901-7.775,5.495-15.042,12.137-19.188c6.64-4.148,15.185-5.09,22.565-2.49c2.757,0.972,5.435,2.481,7.134,4.857
		C499.884,126.488,492.259,132.123,486.957,135.35z"/>
	<path fill="#FF6984" d="M485.922,162.726c0.762,3.665,3.088,6.914,3.507,10.632c0.271,2.415-0.285,4.836-0.84,7.201
		c-0.668,2.858-1.339,5.716-2.007,8.573c3.971-0.789,7.59-2.865,10.755-5.388c11.426-9.099,17.327-24.646,14.818-39.034
		c-0.718-4.105-2.058-8.075-3.521-11.978c-1.129-3.008-2.367-6.038-4.392-8.533c-2.026-2.495-4.973-4.42-8.188-4.503
		c-3.84-0.099-7.332,2.432-9.583,5.544c-1.532,2.122-2.657,4.646-2.605,7.265c0.053,2.619,0.967,11.529,3.367,12.577
		c3.036-1.841,7.582-0.21,8.759,3.14c1.854,5.288-2.878,6.301-6.037,8.113C486.03,158.588,485.07,158.631,485.922,162.726z"/>
	<path fill="#FF6984" d="M512.12,146.647c2.419,1.819,5.179,3.21,7.309,5.36c2.13,2.15,3.546,5.412,2.42,8.22
		c-0.71,1.768-2.271,3.018-3.613,4.368c-1.347,1.349-2.595,3.088-2.376,4.981c0.144,1.253,0.901,2.334,1.6,3.386
		c1.815,2.748,3.384,5.966,2.844,9.215c-0.433,2.617-2.255,4.902-4.579,6.18c-2.323,1.28-5.1,1.611-7.725,1.229
		c-1.526-0.223-3.034-0.676-4.573-0.609c-4.061,0.175-7.255,3.847-11.292,4.321c-2.289,0.269-4.684-0.599-6.269-2.271
		c-1.584-1.672-2.323-4.109-1.937-6.38c0.642-3.718,3.895-6.332,6.889-8.625c2.99-2.294,6.19-5.026,6.634-8.771
		c0.331-2.796-0.986-5.594-0.645-8.389c0.493-4.004,4.215-6.938,5.111-10.873c0.511-2.236-0.306-7.89,3.201-7.817
		C507.799,140.227,510.133,145.153,512.12,146.647z"/>
	<path fill="#FF6984" d="M482.669,142.179c-0.723,1.354-1.646,2.589-2.563,3.819c-1.297,1.734-2.593,3.466-3.889,5.2
		c0.938-3.33,1.25-6.833,0.918-10.276c-0.05-0.525-0.113-1.063,0.012-1.576c0.238-0.971,1.103-1.646,1.937-2.199
		c1.19-0.79,4.248-3.336,5.458-1.698C485.493,136.735,483.309,140.983,482.669,142.179z"/>
</g>
<g>
	<polygon fill="#524F63" points="512.734,236.598 510.387,238.683 518.544,248.217 	"/>
	<path fill="#FA5252" d="M686.007,315.193l-5.26-102.509c0,0-26.356-5.555-34.2-5.555c-4.271,0-11.572,2.027-17.332,3.874
		c-5.414,1.734-9.911,5.557-12.541,10.597l-43.224,82.845l26.559,2.529l8.854-10.117l-4.502-6.828l16.146-38.08l-0.263,64.51
		L686.007,315.193z"/>
	<path fill="#5CB3FA" d="M682.481,183.013c0,14.005-11.354,25.359-25.358,25.359c-7.751,0-13.127-8.046-17.779-13.527
		c-3.752-4.422-6.709-5.673-6.709-11.927c0-14.005,10.484-25.263,24.488-25.263C671.129,157.655,682.481,169.008,682.481,183.013z"
		/>
	<polygon fill="#1B283B" points="617.715,309.504 529.185,309.504 510.387,238.683 598.917,238.683 	"/>
	<polygon fill="#FFFFFF" points="617.715,309.504 531.949,309.504 512.734,236.598 599.503,238.683 	"/>
	<rect x="529.902" y="304.371" fill="#524F63" width="60.696" height="5.135"/>
	<path fill="#D63231" d="M650.351,297.576l33.924-16.207l-2.81-54.668l-5.865,0.355L631.631,273.2c0,0-6.558,17.116-11.336,30.599
		l-0.053,12.66l45.593-0.875L650.351,297.576z"/>
	<polygon fill="#EC3A3A" points="594.139,293.131 546.895,293.131 536.311,252.972 584.105,254.119 	"/>
	<path fill="#1B283B" d="M607.582,329.043l-62.48,15.896L576.891,469.9l10.961-5.482l-9.316-107.422l55.902-17.539l-32.336,18.635
		l0.55,101.943h9.863c0,0,27.404-99.752,30.146-99.752s48.776-30.691,48.776-30.691L607.582,329.043z"/>
	<polygon fill="#5CB3FA" points="543.268,479.74 586.719,476.652 587.912,462.961 541.468,473.531 	"/>
	<path fill="#EFF2F7" d="M641.162,217.835c0.391,4.915,1.313,9.788,2.742,14.507c0.314,1.039,0.695,2.134,1.553,2.801
		c1.758,1.374,4.309,0.221,6.137-1.056c3.188-2.224,6.153-4.793,8.634-7.789c1.593-1.925,3.009-4.09,3.496-6.54
		c0.489-2.449-0.104-5.232-1.995-6.865c-2.923-2.522-9.216-2.431-12.896-2.517C643.656,210.258,640.729,212.396,641.162,217.835z"/>
	<polygon fill="#5CB3FA" points="578.533,487.439 587.302,488.535 611.968,479.219 612.515,460.037 602.649,460.037 
		598.264,472.092 584.97,480.125 	"/>
	<path fill="#5CB3FA" d="M647.579,195.798l-1.876,21.375c0,0,1.502,9,6.751,7.5c5.25-1.5,5.999-5.625,5.999-5.625l2.251-25.5
		L647.579,195.798z"/>
	<path fill="#1B283B" d="M666.564,174.796c3.989-0.159,8.098-0.437,11.696-2.169c3.602-1.732,6.613-5.271,6.547-9.266
		c-0.063-3.995-4.188-7.759-7.986-6.524c-0.866,0.281-1.657,0.782-2.544,0.99c-1.383,0.321-2.815-0.099-4.178-0.5
		c-10.253-3.023-21.725-5.035-31.299-0.279c-1.776,0.884-3.518,2.06-4.452,3.813c-0.729,1.366-0.899,2.951-1.041,4.492
		c-0.379,4.142-0.629,8.295-0.75,12.451c2.771-1.502,5.526-3.288,8.408-4.56c2.815-1.243,4.623-0.014,7.619,0.608
		C654.486,175.077,660.571,175.035,666.564,174.796z"/>
	<path opacity="0.7" fill="#1B283B" enable-background="new    " d="M642.75,168.016c-2.61-0.479-5.368,0.367-7.406,2.058
		c-1.903,3.202-3.134,6.847-3.469,10.757c0.243,1.377,0.547,2.763,0.512,4.075c-0.021,0.833,0.322,2.109,0.86,3.536
		c1.455,2.196,3.787,3.683,6.097,6.403c0.094,0.11,0.189,0.229,0.285,0.34c2.455-4.241,6.455-13.917,7.201-14.891
		c1.145-1.488,4.831-5.961,4.166-7.942C650.359,170.449,644.568,168.349,642.75,168.016z"/>
	<path fill="#5CB3FA" d="M642.781,178.345c-0.195-0.29-0.407-0.584-0.712-0.759c-0.372-0.215-0.824-0.22-1.253-0.22
		c-1.668,0-3.588,0.12-4.594,1.451c-0.425,0.564-0.61,1.27-0.747,1.964c-0.321,1.654-0.4,3.356-0.229,5.034
		c0.26,2.579,1.501,5.475,4.027,6.058c1.503,0.347,3.113-0.266,4.256-1.304C647.496,186.962,645.379,182.176,642.781,178.345z"/>
	<path fill="#1B283B" d="M674.837,191.598c1.3-0.303,2.657-0.573,3.957-0.268c1.297,0.305,2.521,1.343,2.604,2.675
		c0.041,0.65-0.183,1.283-0.289,1.925c-0.333,1.995,0.464,3.982,1.157,5.881c1.521,4.149,2.521,9.105,0.003,12.735
		c-2.366,3.416-7.024,4.366-11.179,4.175c-12.317-0.563-23.845-9.373-27.622-21.112c-1.315-4.093-1.742-8.593-0.408-12.679
		c0.406-1.242,1.465-2.668,2.697-2.239c0.714,4.759,3.823,9.096,8.102,11.299C661.425,197.89,667.551,193.296,674.837,191.598z"/>
	<g>
		<path fill="#1B283B" d="M514.04,237.63l84.683,2.034l17.702,68.84H532.72L514.04,237.63 M512.734,236.598l19.215,72.906h85.766
			l-18.212-70.822L512.734,236.598L512.734,236.598z"/>
	</g>
	<path fill="#FFFFFF" d="M651.648,309.504H529.902v-5.133h121.746c1.416,0,2.563,1.148,2.563,2.568l0,0
		C654.214,308.355,653.064,309.504,651.648,309.504z"/>
	<path fill="#EC3A3A" d="M590.021,309.504h-60.119v-5.133h60.119c1.418,0,2.565,1.148,2.565,2.568l0,0
		C592.589,308.355,591.439,309.504,590.021,309.504z"/>
	<path fill="#FA5252" d="M680.747,212.684l-22.142,58.535l-56.473,7.518l2.226,11.294l72.266-2.357l19.518-51.466
		c0.962-2.537,1.153-5.337,0.354-7.928c-1.803-5.828-5.932-10.748-11.521-13.508L680.747,212.684z"/>
	<path fill="#5CB3FA" d="M602.135,278.737l-30.456-16.27c0,0-1.637,2.424,0.771,4.431c2.407,2.008,10.118,7.709,10.118,7.709v4.433
		c2.542,8.315,10.395,12.244,19.038,11.292l2.753-0.301L602.135,278.737z"/>
</g>
<g>
	<path fill="#75454F" d="M726.213,309.379H689.84c0,0-1.053-2.637,4.746-3.689c5.797-1.053,22.138-1.58,22.138-1.58l4.218-4.745
		l5.8,1.584L726.213,309.379z"/>
	<path fill="#EF73D8" d="M756.073,198.211l-38.759,104.59l9.564,2.393l59.544-101.921c0,0-1.707-6.602-11.825-12.926
		C764.481,184.021,756.073,198.211,756.073,198.211z"/>
	<path fill="#B5BFFF" d="M757.139,150.275c-7.561-11.797-23.253-15.231-35.052-7.671c-6.611,4.238-10.849,11.807-11.612,19.559
		c-0.388,3.929-0.404,5.305,1.188,8.934c1.616,3.686,6.063,8.723,3.515,16.04c-0.596,1.712-0.1,4.334,1.899,5.133
		c1.987,0.792,3.735-1.368,5.666-1.456c3.656-0.167,10.845,5.436,13.46,7.641c1.122,0.946,2.33,1.93,3.784,2.116
		c1.245,0.16,2.486-0.298,3.602-0.876c5.568-2.889,8.961-8.664,11.743-14.285c2.603-5.26,4.947-10.829,5.341-16.655
		C761.857,162.589,760.794,155.979,757.139,150.275z"/>
	<path fill="#B5BFFF" d="M756.18,199.31c1.07,1.101,2.411,2.263,3.933,2.037c0.698-0.103,1.316-0.496,1.897-0.899
		c1.549-1.079,2.992-2.31,4.306-3.669c0.796-0.826,1.583-1.8,1.604-2.945c0.013-0.646-0.225-1.269-0.487-1.859
		c-2.563-5.779-7.823-10.181-9.683-16.225c-0.841-2.739-0.931-5.675-1.87-8.381c-0.938-2.707-3.123-5.321-5.986-5.435
		c-1.691-0.066-3.299,0.755-4.654,1.767c-4.418,3.296-6.967,8.951-6.505,14.445c0.419,4.986,3.277,9.553,7.372,12.368
		C750.016,193.203,752.814,195.854,756.18,199.31z"/>
	<path fill="#160E5C" d="M722.087,142.605c-4.704,3.014-8.175,7.727-10.078,12.98c4.862,2.403,17.271-2.936,20.636-4.974
		c-0.366,8.523,4.267,17.08,11.607,21.427c4.456,2.639,9.712,3.79,14.17,6.352c1.166-3.125,2.026-6.338,2.249-9.636
		c1.188-6.166,0.123-12.776-3.532-18.479C749.578,138.478,733.886,135.044,722.087,142.605z"/>
	<path fill="#B5BFFF" d="M735.688,168.334c-1.427-2.631-0.007-6.254,2.678-7.585c2.68-1.33,6.128-0.511,8.267,1.585
		c2.134,2.096,3.036,5.243,2.825,8.229c-0.267,3.772-3.011,7.843-6.788,7.649c-2.078-0.107-3.915-1.507-5.079-3.234
		c-1.162-1.726-1.762-3.76-2.345-5.757"/>
	<polygon fill="#FFFFFF" points="770.102,186.215 762.87,177.819 751.441,198.811 755.64,212.104 770.799,195.078 	"/>
	<path fill="#FF8CE3" d="M778.364,187.361l67.857,75.531l-41.554,36.495L753.773,221.2c-5.198-7.488,2.755-24.007,7.95-31.495l0,0
		C765.529,184.225,773.194,183.144,778.364,187.361z"/>
	<polygon fill="#3839B0" points="843.872,494.508 825.631,391.711 804.67,299.387 846.224,262.892 843.846,390.555 853.988,489.451 
			"/>
	<polygon fill="#160E5C" points="846.224,262.892 812.017,497.783 801.635,496.098 804.67,299.387 	"/>
	<polygon fill="#8091FB" points="782.612,505.254 810.021,504.199 811.604,495.764 803.696,494.711 777.342,502.09 777.869,505.781 
			"/>
	<polygon fill="#8091FB" points="853.988,489.451 854.781,497.387 823.074,499.35 822.793,496.824 850.854,487.846 	"/>
	<path fill="#91616A" d="M712.658,309.379h-36.37c0,0-1.054-2.637,4.744-3.689c5.799-1.053,23.391-1.448,23.391-1.448l2.965-4.878
		l7.937,3.039L712.658,309.379z"/>
	<path fill="#FF8CE3" d="M764.444,194.11l-27.599,52.09l-33.086,57.798l10.766,0.396l29.494-40.658l39.058-49.918
		c5.035-4.004,6.578-10.985,3.703-16.739l0,0C782.475,188.476,770.847,186.929,764.444,194.11z"/>
	
		<linearGradient id="SVGID_10_" gradientUnits="userSpaceOnUse" x1="685.2686" y1="524.0254" x2="694.3312" y2="468.2326" gradientTransform="matrix(1 0 0 1 84 -256)">
		<stop  offset="0" style="stop-color:#484EC2;stop-opacity:0"/>
		<stop  offset="1" style="stop-color:#444BCC;stop-opacity:0.5018"/>
	</linearGradient>
	<path fill="url(#SVGID_10_)" d="M780.188,261.776c-0.764-10.58-4.482-43.489-4.482-43.489l-11.369,19.134L780.188,261.776z"/>
</g>
<g>
	<path fill="#FDCCBA" d="M479.399,348.426c-1.856,0-16.709,6.188-16.709,6.188l11.604,95.29c-2.63,1.237-6.282,1.967-8.752,2.674
		c-5.699,1.631-10.808,2.219-15.843,5.574c-0.408,0.293-0.532,1.735-0.607,2.231c-0.165,1.09,1.32,1.576,2.424,1.625
		c6.876,0.301,13.766,0.332,20.644,0.09c4.388-0.151,7.969-2.393,11.875-4.396c2.268-1.164,3.13-4.611,3.003-6.228
		C486.996,450.984,481.152,348.426,479.399,348.426z"/>
	<path fill="#524F63" d="M466.637,458.523c6.624-0.609,15.541-3.568,20.705-7.765c0.46,4.396-0.835,8.617-9.202,10.765
		c-9.658,2.479-20.008,5.225-29.567,2.389c-1.021-0.303-2.2-0.947-2.175-2.014c0.012-0.48,0.282-0.914,0.571-1.302
		c1.701-2.27,6.733-6.313,9.723-5.33c1.555,0.517,2.668,2.312,4.438,2.854C462.885,458.66,464.822,458.689,466.637,458.523z"/>
</g>
<g>
	<path fill="#EEBCC5" d="M479.346,462.01"/>
	<path fill="#FDCCBA" d="M514.864,451.475c-0.04-0.489-5.883-103.049-7.636-103.049c-1.857,0-16.713,6.188-16.713,6.188
		l11.606,95.29c1.954,5.141,3.628,10.039,6.479,14.739c2.851,4.703,6.659,8.957,11.534,11.5c0.524,0.275,1.188,0.521,1.681,0.188
		c0.278-0.195,0.418-0.537,0.514-0.867c0.82-2.824-0.385-5.803-1.569-8.498C518.602,462.047,515.291,456.832,514.864,451.475z"/>
	<path fill="#524F63" d="M505.165,464.064c2.959,5.489,6.601,11.086,12.285,13.651c0.971,0.438,2.045,0.783,3.086,0.566
		c1.401-0.291,2.442-1.578,2.795-2.967c0.354-1.39,0.131-2.859-0.231-4.244c-0.55-2.095-1.418-4.103-2.563-5.937
		c-0.272-0.436-0.618-0.899-1.126-0.979c-0.652-0.104-1.189,0.463-1.729,0.848c-1.473,1.062-3.567,0.867-5.147-0.022
		c-1.581-0.892-2.747-2.354-3.813-3.82c-2.153-2.965-4.069-8.412-7.063-10.121C500.726,455.488,503.082,460.201,505.165,464.064z"/>
</g>
<g>
	
		<linearGradient id="SVGID_11_" gradientUnits="userSpaceOnUse" x1="335.2012" y1="81.4951" x2="349.3828" y2="81.4951" gradientTransform="matrix(1 0 0 -1 0 561)">
		<stop  offset="0" style="stop-color:#317CF1"/>
		<stop  offset="1" style="stop-color:#172182"/>
	</linearGradient>
	<circle fill="url(#SVGID_11_)" cx="342.292" cy="479.505" r="7.091"/>
	
		<linearGradient id="SVGID_12_" gradientUnits="userSpaceOnUse" x1="420.5537" y1="81.4941" x2="434.7383" y2="81.4941" gradientTransform="matrix(1 0 0 -1 0 561)">
		<stop  offset="0" style="stop-color:#317CF1"/>
		<stop  offset="1" style="stop-color:#172182"/>
	</linearGradient>
	<circle fill="url(#SVGID_12_)" cx="427.646" cy="479.506" r="7.092"/>
	
		<linearGradient id="SVGID_13_" gradientUnits="userSpaceOnUse" x1="376.0713" y1="81.4951" x2="390.2529" y2="81.4951" gradientTransform="matrix(1 0 0 -1 0 561)">
		<stop  offset="0" style="stop-color:#317CF1"/>
		<stop  offset="1" style="stop-color:#172182"/>
	</linearGradient>
	<circle fill="url(#SVGID_13_)" cx="383.162" cy="479.505" r="7.091"/>
	<path fill="none" stroke="#2656C3" stroke-miterlimit="10" d="M342.292,479.506v-3.676c0-8.211,6.655-14.863,14.865-14.863h27.894
		v-72.242"/>
	<path fill="none" stroke="#2656C3" stroke-miterlimit="10" d="M426.858,479.506v-3.676c0-8.211-6.655-14.863-14.864-14.863H384.1
		v-72.242"/>
	<line fill="none" stroke="#2656C3" stroke-miterlimit="10" x1="383.163" y1="479.506" x2="383.163" y2="460.967"/>
	
		<linearGradient id="SVGID_14_" gradientUnits="userSpaceOnUse" x1="378.127" y1="151.2607" x2="388.1982" y2="151.2607" gradientTransform="matrix(1 0 0 -1 0 561)">
		<stop  offset="0" style="stop-color:#317CF1"/>
		<stop  offset="1" style="stop-color:#172182"/>
	</linearGradient>
	<rect x="378.127" y="389.354" fill="url(#SVGID_14_)" width="10.071" height="40.771"/>
	
		<linearGradient id="SVGID_15_" gradientUnits="userSpaceOnUse" x1="375.6104" y1="118.3516" x2="391.3438" y2="118.3516" gradientTransform="matrix(1 0 0 -1 0 561)">
		<stop  offset="0" style="stop-color:#317CF1"/>
		<stop  offset="1" style="stop-color:#172182"/>
	</linearGradient>
	<rect x="375.61" y="424.711" fill="url(#SVGID_15_)" width="15.733" height="35.875"/>
</g>
<g>
	
		<linearGradient id="SVGID_16_" gradientUnits="userSpaceOnUse" x1="607.2197" y1="81.4951" x2="621.4023" y2="81.4951" gradientTransform="matrix(1 0 0 -1 0 561)">
		<stop  offset="0" style="stop-color:#317CF1"/>
		<stop  offset="1" style="stop-color:#172182"/>
	</linearGradient>
	<circle fill="url(#SVGID_16_)" cx="614.311" cy="479.505" r="7.091"/>
	
		<linearGradient id="SVGID_17_" gradientUnits="userSpaceOnUse" x1="692.5732" y1="81.4951" x2="706.7549" y2="81.4951" gradientTransform="matrix(1 0 0 -1 0 561)">
		<stop  offset="0" style="stop-color:#317CF1"/>
		<stop  offset="1" style="stop-color:#172182"/>
	</linearGradient>
	<circle fill="url(#SVGID_17_)" cx="699.664" cy="479.505" r="7.091"/>
	
		<linearGradient id="SVGID_18_" gradientUnits="userSpaceOnUse" x1="648.0898" y1="81.4951" x2="662.2725" y2="81.4951" gradientTransform="matrix(1 0 0 -1 0 561)">
		<stop  offset="0" style="stop-color:#317CF1"/>
		<stop  offset="1" style="stop-color:#172182"/>
	</linearGradient>
	<circle fill="url(#SVGID_18_)" cx="655.181" cy="479.505" r="7.091"/>
	<path fill="none" stroke="#2656C3" stroke-miterlimit="10" d="M614.311,479.506v-3.676c0-8.211,6.654-14.863,14.863-14.863h27.896
		v-72.242"/>
	<path fill="none" stroke="#2656C3" stroke-miterlimit="10" d="M698.876,479.506v-3.676c0-8.211-6.655-14.863-14.864-14.863h-27.895
		v-72.242"/>
	<line fill="none" stroke="#2656C3" stroke-miterlimit="10" x1="655.18" y1="479.506" x2="655.18" y2="460.967"/>
	
		<linearGradient id="SVGID_19_" gradientUnits="userSpaceOnUse" x1="650.1445" y1="151.2607" x2="660.2148" y2="151.2607" gradientTransform="matrix(1 0 0 -1 0 561)">
		<stop  offset="0" style="stop-color:#317CF1"/>
		<stop  offset="1" style="stop-color:#172182"/>
	</linearGradient>
	<rect x="650.145" y="389.354" fill="url(#SVGID_19_)" width="10.07" height="40.771"/>
	
		<linearGradient id="SVGID_20_" gradientUnits="userSpaceOnUse" x1="647.627" y1="118.3984" x2="663.3613" y2="118.3984" gradientTransform="matrix(1 0 0 -1 0 561)">
		<stop  offset="0" style="stop-color:#317CF1"/>
		<stop  offset="1" style="stop-color:#172182"/>
	</linearGradient>
	<rect x="647.627" y="424.664" fill="url(#SVGID_20_)" width="15.734" height="35.875"/>
</g>
<g>
	<rect x="228.136" y="317.092" fill="#3084FE" width="486.907" height="77.146"/>
	
		<linearGradient id="SVGID_21_" gradientUnits="userSpaceOnUse" x1="228.833" y1="144.957" x2="237.0288" y2="144.957" gradientTransform="matrix(1 0 0 -1 0 561)">
		<stop  offset="0" style="stop-color:#317CF1"/>
		<stop  offset="1" style="stop-color:#172182"/>
	</linearGradient>
	<rect x="228.833" y="317.701" fill="url(#SVGID_21_)" width="8.196" height="196.684"/>
	
		<linearGradient id="SVGID_22_" gradientUnits="userSpaceOnUse" x1="712.3535" y1="144.957" x2="720.5469" y2="144.957" gradientTransform="matrix(1 0 0 -1 0 561)">
		<stop  offset="0" style="stop-color:#317CF1"/>
		<stop  offset="1" style="stop-color:#172182"/>
	</linearGradient>
	<rect x="712.354" y="317.701" fill="url(#SVGID_22_)" width="8.193" height="196.684"/>
	<polygon opacity="0.1" fill="#17171B" enable-background="new    " points="712.354,362.646 227.543,317.59 712.354,317.59 	"/>
	<rect x="209.165" y="309.504" fill="#72ABFE" width="529.413" height="13.113"/>
</g>
</svg>
