<?xml version="1.0" encoding="utf-8"?>
<!-- Generator: Adobe Illustrator 16.0.0, SVG Export Plug-In . SVG Version: 6.00 Build 0)  -->
<!DOCTYPE svg PUBLIC "-//W3C//DTD SVG 1.1//EN" "http://www.w3.org/Graphics/SVG/1.1/DTD/svg11.dtd">
<svg version="1.1" id="OBJECTS" xmlns="http://www.w3.org/2000/svg" xmlns:xlink="http://www.w3.org/1999/xlink" x="0px" y="0px"
	 width="803.039px" height="593.588px" viewBox="0 0 803.039 593.588" enable-background="new 0 0 803.039 593.588"
	 xml:space="preserve">
<g>
	<g>
		
			<line fill="none" stroke="#5CB3FA" stroke-width="1.8871" stroke-linecap="round" stroke-linejoin="round" stroke-miterlimit="10" x1="100.839" y1="492.278" x2="745.916" y2="492.278"/>
		<rect x="128.42" y="136.754" fill="#EEEEFF" width="567.904" height="353.703"/>
		<rect x="128.42" y="136.754" fill="#0117FF" width="144.472" height="353.703"/>
		<path fill="#000B90" d="M682.875,102.606H141.868c-7.428,0-13.448,6.021-13.448,13.448v20.7h567.904v-20.7
			C696.324,108.628,690.302,102.606,682.875,102.606z"/>
		<g>
			<circle fill="#DAEAFF" cx="166.592" cy="119.68" r="6.894"/>
			<circle fill="#F5DD45" cx="187.02" cy="119.68" r="6.894"/>
			<circle fill="#DAEAFF" cx="207.448" cy="119.68" r="6.894"/>
		</g>
		<g>
			<circle fill="#FCBD24" cx="200.656" cy="220.991" r="45.024"/>
			<g>
				<circle fill="#FFFFFF" cx="200.823" cy="209.387" r="12.019"/>
				<path fill="#FFFFFF" d="M174.458,241.185l4.315-8.029c2.476-4.606,7.282-7.48,12.512-7.48h17.496
					c4.72,0,9.133,2.346,11.774,6.258l6.244,9.25L174.458,241.185L174.458,241.185z"/>
			</g>
		</g>
		<rect x="534.435" y="175.966" fill="#5CB3FA" width="136.904" height="134.805"/>
		<rect x="534.435" y="335.606" fill="#5CB3FA" width="136.904" height="120.191"/>
		<rect x="606.892" y="175.966" fill="#3FA4E8" width="25.623" height="40.403"/>
		<g>
			<g>
				<circle fill="#5CB3FA" cx="319.24" cy="208.259" r="24.716"/>
				
					<line fill="none" stroke="#5CB3FA" stroke-width="4.4631" stroke-linecap="round" stroke-linejoin="round" stroke-miterlimit="10" x1="362.464" y1="190.393" x2="455.148" y2="190.393"/>
				
					<line fill="none" stroke="#5CB3FA" stroke-width="4.4631" stroke-linecap="round" stroke-linejoin="round" stroke-miterlimit="10" x1="362.464" y1="209.229" x2="408.806" y2="209.229"/>
				
					<line fill="none" stroke="#5CB3FA" stroke-width="4.4631" stroke-linecap="round" stroke-linejoin="round" stroke-miterlimit="10" x1="362.464" y1="228.066" x2="455.148" y2="228.066"/>
			</g>
			<g>
				<circle fill="#5CB3FA" cx="319.24" cy="305.703" r="24.716"/>
				
					<line fill="none" stroke="#5CB3FA" stroke-width="4.4631" stroke-linecap="round" stroke-linejoin="round" stroke-miterlimit="10" x1="362.464" y1="287.837" x2="455.148" y2="287.837"/>
				
					<line fill="none" stroke="#5CB3FA" stroke-width="4.4631" stroke-linecap="round" stroke-linejoin="round" stroke-miterlimit="10" x1="362.464" y1="306.673" x2="408.806" y2="306.673"/>
				
					<line fill="none" stroke="#5CB3FA" stroke-width="4.4631" stroke-linecap="round" stroke-linejoin="round" stroke-miterlimit="10" x1="362.464" y1="325.511" x2="455.148" y2="325.511"/>
			</g>
			<g>
				<circle fill="#5CB3FA" cx="319.24" cy="403.148" r="24.716"/>
				
					<line fill="none" stroke="#5CB3FA" stroke-width="4.4631" stroke-linecap="round" stroke-linejoin="round" stroke-miterlimit="10" x1="362.464" y1="385.281" x2="455.148" y2="385.281"/>
				
					<line fill="none" stroke="#5CB3FA" stroke-width="4.4631" stroke-linecap="round" stroke-linejoin="round" stroke-miterlimit="10" x1="362.464" y1="404.119" x2="408.806" y2="404.119"/>
				
					<line fill="none" stroke="#5CB3FA" stroke-width="4.4631" stroke-linecap="round" stroke-linejoin="round" stroke-miterlimit="10" x1="362.464" y1="422.955" x2="455.148" y2="422.955"/>
			</g>
		</g>
		<path fill="#61ABFD" d="M245.68,413.301h-90.048c-2.365,0-4.281-1.916-4.281-4.281c0-2.363,1.917-4.279,4.281-4.279h90.048
			c2.365,0,4.28,1.916,4.28,4.279C249.96,411.385,248.044,413.301,245.68,413.301z"/>
		<path fill="#61ABFD" d="M245.68,435.147h-90.048c-2.365,0-4.281-1.916-4.281-4.278c0-2.365,1.917-4.281,4.281-4.281h90.048
			c2.365,0,4.28,1.916,4.28,4.281C249.96,433.231,248.044,435.147,245.68,435.147z"/>
	</g>
	<g>
		<path fill="#E9E9FF" d="M68.067,61.01c0,0,6.223-26.446,42.78-21.779c0,0,9.156-28.612,45.892-25.668
			c37.576,3.011,39.669,30.335,39.669,30.335s21.001-9.334,35.002-0.778c14,8.556,17.89,17.89,17.89,17.89H68.067z"/>
		<path fill="#FFFFFF" d="M391.123,16.801c0,0,1.84-9.269,12.648-7.633c0,0,2.76-10.633,13.568-8.997
			c10.811,1.636,11.73,10.632,11.73,10.632s6.209-3.271,10.348-0.272c4.139,3,5.289,6.271,5.289,6.271H391.123z"/>
		<path fill="#E9E9FF" d="M632.712,64.111c0,0,3.598-18.124,24.73-14.925c0,0,5.395-20.79,26.529-17.591
			c21.135,3.198,22.932,20.789,22.932,20.789s12.141-6.397,20.234-0.533c8.094,5.864,10.342,12.26,10.342,12.26H632.712z"/>
	</g>
	<g>
		
			<rect x="558.878" y="445.145" transform="matrix(-0.1941 -0.981 0.981 -0.1941 364.1115 1193.457)" fill="#000B90" width="226.811" height="4.04"/>
		
			<rect x="498.132" y="445.147" transform="matrix(-0.1941 -0.981 0.981 -0.1941 291.5728 1133.8687)" fill="#000B90" width="226.811" height="4.04"/>
		<rect x="628.828" y="535.391" fill="#000B90" width="60.75" height="4.037"/>
		<rect x="624.464" y="512.633" fill="#000B90" width="60.75" height="4.036"/>
		<rect x="619.435" y="489.876" fill="#000B90" width="60.752" height="4.037"/>
		<rect x="616.4" y="467.121" fill="#000B90" width="60.75" height="4.035"/>
		<rect x="610.265" y="444.363" fill="#000B90" width="60.75" height="4.037"/>
		<rect x="605.679" y="421.606" fill="#000B90" width="60.75" height="4.034"/>
		<rect x="602.207" y="398.849" fill="#000B90" width="60.75" height="4.038"/>
		<rect x="598.279" y="376.094" fill="#000B90" width="60.752" height="4.035"/>
		<rect x="593.695" y="353.334" fill="#000B90" width="60.75" height="4.038"/>
	</g>
	<g>
		<g>
			<path fill="#00AF80" d="M729.611,331.261l-0.063,0.004c7.52-7.854,3.984-16.533,2.623-19.175
				c-0.004-0.004-0.006-0.008-0.01-0.014c-0.264-0.509-0.451-0.813-0.451-0.813l0.066,0.014c-2.18-4.297-3.434-9.142-3.434-14.287
				c0-8.747,3.545-16.665,9.275-22.396c5.268-6.971,1.283-16.239,1.283-16.239h0.01c-0.822-2.332-1.293-4.83-1.293-7.442
				c0-12.369,10.027-22.396,22.396-22.396s22.396,10.027,22.396,22.396c0,2.613-0.471,5.111-1.293,7.442h0.012
				c0,0-3.986,9.268,1.281,16.239c5.729,5.732,9.275,13.649,9.275,22.396c0,5.143-1.254,9.982-3.43,14.279l0.023-0.006
				c0,0-0.039,0.063-0.1,0.161c-0.178,0.351-0.355,0.698-0.549,1.041c-1.406,2.908-4.115,10.668,2.08,17.94
				c0.191,0.226,0.385,0.443,0.57,0.673c0.059,0.062,0.1,0.124,0.156,0.187l-0.018-0.002c5.355,6.676,8.58,15.144,8.58,24.369
				c0,21.532-17.457,38.987-38.988,38.987c-21.533,0-38.986-17.455-38.986-38.987C721.029,346.403,724.251,337.938,729.611,331.261z
				"/>
			<path fill="#000B90" d="M748.554,352.298l9.553,9.448v-33.198l-11.73-11.604c-0.607-0.602-0.613-1.58-0.012-2.188
				c0.604-0.608,1.582-0.612,2.189-0.012l9.551,9.446v-45.794c0-0.856,0.693-1.549,1.547-1.549c0.855,0,1.551,0.693,1.551,1.549
				v27.597l9.287-9.232c0.604-0.604,1.584-0.604,2.188,0.006c0.605,0.606,0.605,1.587-0.004,2.189l-11.473,11.406v33.343
				l10.266-10.37c0.598-0.609,1.578-0.609,2.189-0.012c0.605,0.602,0.615,1.583,0.012,2.189l-12.467,12.594v88.451
				c0,0.856-0.693,1.55-1.549,1.55s-1.547-0.692-1.547-1.55v-70.453L746.376,354.5c-0.607-0.603-0.613-1.582-0.012-2.19
				C746.968,351.701,747.947,351.699,748.554,352.298z"/>
		</g>
		
			<line fill="none" stroke="#5CB3FA" stroke-width="1.8871" stroke-linecap="round" stroke-linejoin="round" stroke-miterlimit="10" x1="739.197" y1="438.107" x2="802.095" y2="438.107"/>
	</g>
	<g>
		<g>
			<path fill="#FBFBFD" d="M620.56,249.725l-0.107-14.04c-0.006-1.214-1.395-2.228-3.023-2.215l-14.879,0.114
				c-3.299,0.023-5.996-2.244-6.018-5.05l-0.039-4.807c-0.02-2.812,2.646-5.116,5.943-5.141l8.824-0.067l0.018,2.336l-8.824,0.067
				c-2.008,0.015-3.637,1.265-3.625,2.787l0.037,4.808c0.012,1.522,1.658,2.751,3.666,2.731l14.881-0.113
				c2.947-0.021,5.355,2.013,5.377,4.533l0.104,14.04L620.56,249.725z"/>
			<path fill="#160E5C" d="M631.062,226.278l-22.236,0.168c-3.484,0.026-6.33-2.776-6.357-6.261l0,0
				c-0.025-3.484,2.777-6.33,6.262-6.356l22.238-0.168c3.484-0.026,6.33,2.776,6.355,6.26l0,0
				C637.349,223.406,634.546,226.252,631.062,226.278z"/>
			<path fill="#172182" d="M623.853,276.866l-4.236,0.032c-1.25,0.009-2.271-0.995-2.279-2.245l0.691-25.936
				c-0.012-1.249,0.994-2.269,2.242-2.278l2.467-0.019c1.25-0.01,2.27,0.995,2.277,2.245l1.084,25.922
				C626.109,275.835,625.103,276.856,623.853,276.866z"/>
		</g>
		<g>
			<g>
				<circle fill="#FDCCBA" cx="623.957" cy="263.649" r="8.042"/>
			</g>
			<rect x="524.972" y="280.499" fill="#FDCCBA" width="15.105" height="20.289"/>
			<g>
				<rect x="512.335" y="558.755" fill="#FDCCBA" width="10.076" height="10.14"/>
				<rect x="506.023" y="554.586" fill="#1C181C" width="21.023" height="7.708"/>
				<rect x="544.06" y="558.755" fill="#FDCCBA" width="10.076" height="10.14"/>
				<polygon fill="#160E5C" points="534.673,377.946 531.8,377.946 504.193,377.946 509.222,554.586 525.128,554.586 
					527.603,408.835 538.869,408.835 541.345,554.586 557.251,554.586 562.279,377.946 				"/>
				<rect x="539.423" y="554.586" fill="#1C181C" width="21.027" height="7.708"/>
			</g>
			<g>
				<circle fill="#FDCCBA" cx="512.466" cy="268.301" r="5.02"/>
				<circle fill="#FDCCBA" cx="552.816" cy="268.301" r="5.019"/>
				<circle fill="#160E5C" cx="532.625" cy="263.973" r="20.635"/>
			</g>
			<path fill="#FA5252" d="M562.279,377.946h-58.084l-2.234-64.088c0-10.741,7.119-19.451,17.861-19.451h26.83
				c10.74,0,17.861,8.71,17.861,19.451L562.279,377.946z"/>
			<path fill="#FA5252" d="M518.958,315.192l-35.602,41.521l1.621-3.087c0.227-0.68,0.205-1.811-0.121-2.582
				c-0.314-0.792-0.754-1.229-1.09-1.475c-0.656-0.471-1.273-0.475-1.699-0.334l1.359-0.301l29.883-4.183
				c4.805-0.673,9.244,2.677,9.916,7.479c0.674,4.807-2.676,9.244-7.48,9.918l-29.883,4.182l1.359-0.303
				c-4.453,1.371-9.654,0.738-13.736-2.215c-2.037-1.471-3.881-3.582-4.975-6.332c-1.121-2.725-1.229-6.078-0.398-8.772
				c0.342-1.108,0.869-2.11,1.537-2.981l0.084-0.107l35.152-44.184c3.438-4.444,8.123-4.354,12.568-0.918
				c4.445,3.438,5.264,9.827,1.828,14.272C519.185,314.92,519.062,315.071,518.958,315.192z"/>
			<g>
				<path fill="#2346AE" d="M592.177,310.856c0,0.014-0.008,0.025-0.008,0.039c0,0.088-0.02,0.166-0.002,0.252
					c0,0,0.01,0.074,0.012,0.025v-0.189L592.177,310.856z"/>
				<path fill="#2346AE" d="M595.187,308.59c-0.006-0.002-0.014,0-0.02,0l0.064,0.017
					C595.248,308.61,595.201,308.594,595.187,308.59z"/>
				<path fill="#FA5252" d="M601.048,325.354c2.242-0.813,4.32-2.146,6-3.889c0.834-0.877,1.57-1.833,2.188-2.855
					c0.311-0.508,0.564-1.035,0.824-1.565l0.172-0.369l0.072-0.176l0.146-0.351l2.393-5.59l4.797-11.175
					c2.748-6.245,7.543-16.916,11.035-24.521c0.594-1.286-0.018-2.795-1.334-3.32l-12.199-4.873
					c-1.242-0.497-2.654,0.077-3.186,1.308c-3.299,7.652-7.982,18.058-10.689,24.195l-5.006,11.082l-5.154,11.009
					c1.049,6.771,6.643,4.918,8.209,11.621C599.904,325.743,600.486,325.567,601.048,325.354z M597.332,308.243
					c0.012,0.01,0.049,0.045,0.033,0.033l-0.049-0.043C597.32,308.237,597.328,308.239,597.332,308.243z"/>
				<path fill="#FA5252" d="M596.677,309.062l-4.533-1.34l-1.844-0.531l-11.674-3.416c-7.783-2.272-24.779-7.865-25.033-7.922
					c-6.092-1.384-11.152,3.502-11.867,9.889c-0.6,5.379,3.256,10.259,8.533,11.458c7.787,1.771,15.576,3.547,23.334,5.426
					l11.82,2.858l2.953,0.729l1.477,0.365l0.971,0.229c0.586,0.121,1.168,0.246,1.768,0.311c4.23,0.535,8.605-0.78,11.867-3.38
					C600.193,318.326,600.492,314.754,596.677,309.062z M592.167,311.147c-0.018-0.086,0.002-0.164,0.002-0.252
					c0-0.014,0.008-0.025,0.008-0.039l0.002,0.127v0.189C592.177,311.222,592.167,311.147,592.167,311.147z"/>
			</g>
			<polygon fill="none" stroke="#FFFFFF" stroke-width="0.6348" stroke-miterlimit="10" points="539.871,386.583 555.55,386.583 
				555.55,396.943 547.71,402.565 539.871,397.135 			"/>
			<polygon fill="none" stroke="#FFFFFF" stroke-width="0.6348" stroke-miterlimit="10" points="510.921,386.583 526.601,386.583 
				526.601,396.943 518.761,402.565 510.921,397.135 			"/>
			<g>
				<path fill="#5CB3FA" d="M557.341,565.625l0.26,10.789c0,0,26.016,7.374,26.344,7.374c0.326,0,4.045,1.203,4.045,3.608
					c0,0-47.285,0.162-47.119,0c0.162-0.165-0.365-11.263-0.365-11.263S539.203,563.381,557.341,565.625z"/>
				<path fill="#FFFFFF" d="M561.314,582.477c0.615,0,1.141-0.47,1.195-1.094l-0.002-4.223c0.061-0.663-0.428-1.248-1.09-1.311
					c-0.686-0.066-1.25,0.43-1.307,1.091l0.002,4.224c-0.061,0.663,0.428,1.247,1.09,1.308
					C561.242,582.475,561.279,582.477,561.314,582.477z"/>
				<path fill="#FFFFFF" d="M566.257,583.531c0.615,0,1.141-0.471,1.197-1.094l-0.006-4.226c0.061-0.661-0.426-1.246-1.09-1.306
					c-0.641-0.075-1.246,0.429-1.307,1.09l0.004,4.224c-0.059,0.661,0.43,1.247,1.092,1.309
					C566.183,583.53,566.222,583.531,566.257,583.531z"/>
				<path fill="#FFFFFF" d="M571.142,584.896c0.615,0,1.143-0.471,1.197-1.095l-0.006-4.225c0.061-0.662-0.428-1.246-1.09-1.306
					c-0.635-0.062-1.246,0.427-1.307,1.09l0.004,4.223c-0.059,0.661,0.43,1.248,1.092,1.308
					C571.07,584.894,571.107,584.896,571.142,584.896z"/>
				<path fill="#2F282F" d="M540.869,587.396l1.896,1.904c0.955,0.962,2.256,1.501,3.609,1.501h36.402
					c1.52,0,2.961-0.678,3.928-1.851l1.283-1.557h-47.119V587.396z"/>
			</g>
			<g>
				<path fill="#5CB3FA" d="M508.351,565.625l-0.26,10.789c0,0-26.014,7.374-26.34,7.374c-0.328,0-4.045,1.203-4.045,3.608
					c0,0,47.283,0.162,47.119,0c-0.164-0.165,0.363-11.263,0.363-11.263S526.49,563.381,508.351,565.625z"/>
				<path fill="#FFFFFF" d="M504.378,582.477c-0.613,0-1.139-0.47-1.195-1.094l0.002-4.223c-0.059-0.663,0.43-1.248,1.09-1.311
					c0.688-0.066,1.25,0.43,1.309,1.091l-0.002,4.224c0.059,0.663-0.428,1.247-1.09,1.308
					C504.455,582.475,504.416,582.477,504.378,582.477z"/>
				<path fill="#FFFFFF" d="M499.437,583.531c-0.615,0-1.141-0.471-1.197-1.094l0.004-4.226c-0.059-0.661,0.43-1.246,1.09-1.306
					c0.643-0.075,1.248,0.429,1.309,1.09l-0.006,4.224c0.061,0.661-0.428,1.247-1.09,1.309
					C499.509,583.53,499.472,583.531,499.437,583.531z"/>
				<path fill="#FFFFFF" d="M494.552,584.896c-0.617,0-1.141-0.471-1.195-1.095l0.002-4.225c-0.059-0.662,0.43-1.246,1.092-1.306
					c0.635-0.062,1.246,0.427,1.307,1.09l-0.006,4.223c0.063,0.661-0.426,1.248-1.09,1.308
					C494.625,584.894,494.587,584.896,494.552,584.896z"/>
				<path fill="#2F282F" d="M524.826,587.396l-1.898,1.904c-0.955,0.962-2.254,1.501-3.607,1.501h-36.402
					c-1.521,0-2.963-0.678-3.93-1.851l-1.281-1.557h47.119V587.396z"/>
			</g>
		</g>
		<g>
			
				<path fill="none" stroke="#172182" stroke-width="1.8871" stroke-linecap="round" stroke-linejoin="round" stroke-miterlimit="10" d="
				M455.433,591.065h-44.314c-1.695,0-3.07-1.376-3.07-3.071v-49.527c0-1.409,1.145-2.55,2.551-2.55h45.355
				c1.408,0,2.549,1.141,2.549,2.55v49.527C458.503,589.689,457.128,591.065,455.433,591.065z"/>
			<path fill="#172182" d="M458.503,542.956h-50.455v-4.489c0-1.409,1.143-2.55,2.549-2.55h45.355c1.408,0,2.551,1.141,2.551,2.55
				V542.956L458.503,542.956z"/>
			<path fill="#172182" d="M444.722,565.439h-23.676c-3.305,0-6.238-1.984-7.467-5.054l-5.447-16.148
				c-0.172-0.517,0.104-1.073,0.617-1.246c0.514-0.174,1.074,0.102,1.246,0.616l5.428,16.1c0.91,2.268,3.125,3.766,5.623,3.766
				h23.676c2.391,0,4.566-1.408,5.547-3.59l6.285-16.313c0.197-0.509,0.771-0.755,1.271-0.563c0.508,0.194,0.758,0.764,0.563,1.271
				l-6.307,16.362C450.767,563.573,447.886,565.439,444.722,565.439z"/>
			
				<line fill="none" stroke="#172182" stroke-width="1.8871" stroke-linecap="round" stroke-linejoin="round" stroke-miterlimit="10" x1="436.724" y1="539.438" x2="436.724" y2="554.094"/>
			
				<line fill="none" stroke="#172182" stroke-width="1.8871" stroke-linecap="round" stroke-linejoin="round" stroke-miterlimit="10" x1="441.564" y1="542.059" x2="441.564" y2="544.417"/>
		</g>
		
			<line fill="none" stroke="#5CB3FA" stroke-width="1.8871" stroke-linecap="round" stroke-linejoin="round" stroke-miterlimit="10" x1="387.746" y1="592.645" x2="617.191" y2="592.645"/>
	</g>
	<g>
		<g>
			<polygon fill="#E9F1C2" points="88.315,564.004 106.488,514.786 114.06,514.786 132.99,564.004 			"/>
			<rect x="80.643" y="564.004" fill="#FCBD24" width="58.667" height="8.154"/>
			<g>
				<g>
					<polygon id="SVGID_1_" fill="#FCBD24" points="88.315,564.004 106.488,514.786 114.06,514.786 132.99,564.004 					"/>
				</g>
				<g>
					<defs>
						<polygon id="SVGID_2_" points="88.315,564.004 106.488,514.786 114.06,514.786 132.99,564.004 						"/>
					</defs>
					<clipPath id="SVGID_4_">
						<use xlink:href="#SVGID_2_"  overflow="visible"/>
					</clipPath>
					
						<line clip-path="url(#SVGID_4_)" fill="none" stroke="#FFFFFF" stroke-width="3.5772" stroke-miterlimit="10" x1="88.315" y1="539.395" x2="134.981" y2="527.436"/>
				</g>
				<g>
					<defs>
						<polygon id="SVGID_5_" points="88.315,564.004 106.488,514.786 114.06,514.786 132.99,564.004 						"/>
					</defs>
					<clipPath id="SVGID_6_">
						<use xlink:href="#SVGID_5_"  overflow="visible"/>
					</clipPath>
					
						<line clip-path="url(#SVGID_6_)" fill="none" stroke="#FFFFFF" stroke-width="3.5772" stroke-miterlimit="10" x1="86.028" y1="558.693" x2="132.693" y2="546.734"/>
				</g>
			</g>
		</g>
		<g>
			<polygon fill="#E9F1C2" points="168.042,564.004 186.216,514.786 193.788,514.786 212.718,564.004 			"/>
			<rect x="160.371" y="564.004" fill="#FCBD24" width="58.667" height="8.154"/>
			<g>
				<g>
					<polygon id="SVGID_3_" fill="#FCBD24" points="168.042,564.004 186.216,514.786 193.788,514.786 212.718,564.004 					"/>
				</g>
				<g>
					<defs>
						<polygon id="SVGID_7_" points="168.042,564.004 186.216,514.786 193.788,514.786 212.718,564.004 						"/>
					</defs>
					<clipPath id="SVGID_8_">
						<use xlink:href="#SVGID_7_"  overflow="visible"/>
					</clipPath>
					
						<line clip-path="url(#SVGID_8_)" fill="none" stroke="#FFFFFF" stroke-width="3.5772" stroke-miterlimit="10" x1="168.042" y1="539.395" x2="214.709" y2="527.436"/>
				</g>
				<g>
					<defs>
						<polygon id="SVGID_9_" points="168.042,564.004 186.216,514.786 193.788,514.786 212.718,564.004 						"/>
					</defs>
					<clipPath id="SVGID_10_">
						<use xlink:href="#SVGID_9_"  overflow="visible"/>
					</clipPath>
					
						<line clip-path="url(#SVGID_10_)" fill="none" stroke="#FFFFFF" stroke-width="3.5772" stroke-miterlimit="10" x1="165.755" y1="558.693" x2="212.422" y2="546.734"/>
				</g>
			</g>
		</g>
		
			<line fill="none" stroke="#B0D5F7" stroke-width="1.8871" stroke-linecap="round" stroke-linejoin="round" stroke-miterlimit="10" x1="71.654" y1="573.564" x2="245.638" y2="573.564"/>
	</g>
	<g>
		<path fill="#00AF80" d="M11.167,354.11l-0.081,0.002c9.783-10.221,5.184-21.512,3.411-24.948c-0.004-0.005-0.006-0.013-0.01-0.019
			c-0.342-0.662-0.588-1.058-0.588-1.058l0.089,0.017c-2.836-5.59-4.467-11.895-4.467-18.592c0-11.382,4.613-21.684,12.07-29.143
			c6.853-9.071,1.667-21.131,1.667-21.131h0.016c-1.071-3.034-1.683-6.284-1.683-9.684c0-16.095,13.047-29.142,29.143-29.142
			c16.095,0,29.143,13.047,29.143,29.142c0,3.4-0.613,6.65-1.684,9.684h0.016c0,0-5.186,12.06,1.667,21.131
			c7.456,7.459,12.07,17.761,12.07,29.143c0,6.691-1.629,12.992-4.462,18.581l0.03-0.006c0,0-0.052,0.081-0.128,0.208
			c-0.232,0.455-0.465,0.911-0.714,1.354c-1.831,3.785-5.358,13.883,2.705,23.347c0.249,0.292,0.502,0.579,0.745,0.877
			c0.075,0.078,0.127,0.161,0.204,0.239l-0.025-0.002c6.971,8.688,11.165,19.703,11.165,31.711
			c0,28.021-22.714,50.731-50.732,50.731C22.714,436.555,0,413.843,0,385.821C0,373.815,4.194,362.799,11.167,354.11z"/>
		<path fill="#000B90" d="M35.818,381.483l12.427,12.295v-43.2l-15.261-15.097c-0.791-0.782-0.799-2.058-0.016-2.851
			c0.784-0.792,2.059-0.796,2.851-0.015l12.427,12.292V285.32c0-1.115,0.901-2.016,2.015-2.016c1.114,0,2.016,0.901,2.016,2.016
			v35.912l12.084-12.018c0.788-0.783,2.063-0.783,2.85,0.008c0.784,0.79,0.784,2.064-0.007,2.852l-14.926,14.84V370.3l13.355-13.49
			c0.779-0.793,2.055-0.799,2.85-0.018c0.791,0.785,0.799,2.059,0.016,2.852l-16.222,16.385v115.1c0,1.112-0.902,2.016-2.016,2.016
			c-1.114,0-2.015-0.902-2.015-2.016v-91.68l-15.262-15.098c-0.791-0.783-0.799-2.06-0.016-2.851
			C33.752,380.706,35.027,380.702,35.818,381.483z"/>
		
			<line fill="none" stroke="#5CB3FA" stroke-width="1.8871" stroke-linecap="round" stroke-linejoin="round" stroke-miterlimit="10" x1="19.511" y1="492.278" x2="64.057" y2="492.278"/>
	</g>
</g>
</svg>
