<?xml version="1.0" encoding="utf-8"?>
<!-- Generator: Adobe Illustrator 16.0.0, SVG Export Plug-In . SVG Version: 6.00 Build 0)  -->
<!DOCTYPE svg PUBLIC "-//W3C//DTD SVG 1.1//EN" "http://www.w3.org/Graphics/SVG/1.1/DTD/svg11.dtd">
<svg version="1.1" id="Layer_1" xmlns="http://www.w3.org/2000/svg" xmlns:xlink="http://www.w3.org/1999/xlink" x="0px" y="0px"
	 width="612px" height="663.116px" viewBox="0 0 612 663.116" enable-background="new 0 0 612 663.116" xml:space="preserve">
<g>
	<g>
		<polygon fill="#F9CC5A" points="176.798,104.332 174.784,109.585 155.519,102.194 150.934,121.971 145.456,120.701 
			151.499,94.629 		"/>
	</g>
	<g>
		<g>
			<path fill="#172D56" d="M341.206,635.43c0,0-32.561,0.3-34.127,4.005c-0.694,1.647,55.337,23.342,56.132,23.677
				c0.795,0.336,1.823-17.63,1.823-17.63L341.206,635.43z"/>
			<g>
				<path fill="#FFFFFF" d="M364.702,660.51c-0.004,0.017-0.211-0.025-0.606-0.121c-0.444-0.116-1.013-0.264-1.709-0.446
					c-0.742-0.192-1.65-0.444-2.686-0.783c-1.039-0.331-2.233-0.684-3.521-1.154c-2.599-0.885-5.648-2.067-9.008-3.447
					c-3.348-1.397-7.001-3.004-10.816-4.719c-7.626-3.452-14.57-6.471-19.715-8.355c-1.276-0.499-2.451-0.883-3.479-1.248
					c-1.021-0.371-1.913-0.657-2.644-0.887c-0.686-0.227-1.239-0.409-1.676-0.552c-0.384-0.134-0.584-0.211-0.576-0.229
					c0.004-0.019,0.211,0.026,0.603,0.125c0.444,0.12,1.013,0.272,1.71,0.459c0.738,0.199,1.642,0.46,2.678,0.805
					c1.035,0.337,2.226,0.698,3.514,1.177c5.189,1.8,12.179,4.772,19.801,8.225c3.819,1.715,7.457,3.333,10.79,4.751
					c3.34,1.402,6.368,2.617,8.944,3.543c1.28,0.492,2.459,0.868,3.486,1.227c1.024,0.363,1.921,0.644,2.655,0.868
					c0.686,0.22,1.239,0.398,1.68,0.54C364.511,660.415,364.706,660.492,364.702,660.51z"/>
			</g>
			<g>
				<path fill="#FFFFFF" d="M329.2,642.233c-0.154-0.006-0.185-1.438-0.523-3.154c-0.323-1.718-0.832-3.058-0.692-3.12
					c0.124-0.064,0.87,1.229,1.213,3.021C329.547,640.768,329.336,642.248,329.2,642.233z"/>
			</g>
			<g>
				<path fill="#FFFFFF" d="M332.947,642.321c-0.154-0.017-0.045-1.552-0.346-3.396c-0.286-1.848-0.866-3.272-0.724-3.337
					c0.117-0.067,0.941,1.316,1.243,3.254C333.434,640.777,333.079,642.35,332.947,642.321z"/>
			</g>
			<g>
				<path fill="#FFFFFF" d="M337.124,642.5c-0.154-0.027,0.075-1.607-0.061-3.549c-0.116-1.941-0.546-3.479-0.396-3.527
					c0.125-0.053,0.799,1.469,0.923,3.493C337.727,640.941,337.256,642.538,337.124,642.5z"/>
			</g>
			<g>
				<path fill="#FFFFFF" d="M336.45,636.14c-0.071,0.019-0.493-1.256-1.118-3.331c-0.32-1.086-0.682-2.316-1.077-3.654
					c-0.192-0.689-0.415-1.403-0.596-2.181c-0.086-0.39-0.158-0.793-0.188-1.213c-0.022-0.397-0.067-0.905,0.279-1.363
					c0.185-0.233,0.538-0.351,0.828-0.256c0.294,0.092,0.471,0.29,0.606,0.471c0.268,0.39,0.384,0.759,0.55,1.122
					c0.305,0.73,0.539,1.459,0.72,2.163c0.365,1.407,0.508,2.716,0.527,3.81c0.026,1.098-0.068,1.981-0.166,2.584
					c-0.095,0.603-0.196,0.926-0.226,0.92c-0.095-0.011,0.154-1.342,0.022-3.486c-0.068-1.07-0.249-2.339-0.629-3.7
					c-0.188-0.682-0.426-1.386-0.728-2.093c-0.158-0.342-0.297-0.737-0.493-1.009c-0.211-0.3-0.459-0.369-0.61-0.185
					c-0.169,0.215-0.191,0.601-0.158,0.984c0.026,0.387,0.091,0.767,0.17,1.14c0.162,0.744,0.381,1.471,0.562,2.161
					c0.354,1.351,0.678,2.59,0.964,3.686C336.224,634.811,336.518,636.119,336.45,636.14z"/>
			</g>
			<g>
				<path fill="#FFFFFF" d="M336.349,636.42c-0.034-0.005-0.03-0.293,0.037-0.808c0.068-0.516,0.2-1.258,0.452-2.154
					c0.249-0.896,0.617-1.946,1.148-3.062c0.264-0.556,0.569-1.128,0.915-1.704c0.174-0.288,0.362-0.576,0.554-0.864
					c0.188-0.274,0.452-0.668,0.949-0.761c0.226-0.045,0.52,0.008,0.716,0.2c0.191,0.189,0.252,0.435,0.271,0.63
					c0.026,0.407-0.029,0.726-0.071,1.073c-0.102,0.679-0.294,1.316-0.542,1.893c-0.493,1.158-1.194,2.071-1.876,2.72
					c-0.682,0.655-1.341,1.054-1.812,1.28c-0.471,0.228-0.753,0.295-0.764,0.27c-0.053-0.095,1.062-0.496,2.312-1.812
					c0.622-0.653,1.251-1.541,1.691-2.643c0.222-0.548,0.392-1.148,0.479-1.783c0.037-0.309,0.086-0.666,0.063-0.943
					c-0.037-0.293-0.143-0.397-0.376-0.365c-0.227,0.032-0.422,0.258-0.606,0.537c-0.188,0.28-0.373,0.558-0.547,0.838
					c-0.342,0.558-0.647,1.11-0.918,1.647c-0.543,1.079-0.938,2.092-1.231,2.958C336.615,635.304,336.435,636.436,336.349,636.42z"
					/>
			</g>
			<g>
				<path fill="#FFFFFF" d="M350.787,655.806c-0.053-0.019,0.207-0.931,1.039-2.199c0.817-1.262,2.286-2.851,4.35-3.941
					c2.064-1.092,4.203-1.412,5.706-1.378c1.518,0.028,2.418,0.325,2.402,0.38c-0.015,0.087-0.927-0.075-2.396-0.007
					c-1.457,0.06-3.494,0.427-5.468,1.47c-1.97,1.044-3.419,2.52-4.289,3.691C351.246,654.998,350.866,655.844,350.787,655.806z"/>
			</g>
			<g>
				<path fill="#FFFFFF" d="M324.982,645.062c-0.071-0.047,0.227-0.505,0.403-1.324c0.192-0.812,0.199-1.999-0.17-3.228
					c-0.372-1.229-0.968-2.267-1.382-3.023c-0.422-0.756-0.674-1.237-0.61-1.277c0.057-0.039,0.418,0.365,0.927,1.079
					c0.497,0.714,1.171,1.755,1.57,3.071c0.399,1.322,0.328,2.625,0.026,3.478C325.449,644.701,325.024,645.099,324.982,645.062z"/>
			</g>
			<g>
				<path fill="#FFFFFF" d="M342.98,650.093c-0.064,0.122-2.117-0.73-4.651-1.81c-2.534-1.081-4.508-2.158-4.44-2.296
					c0.064-0.122,2.117,0.731,4.651,1.812C341.074,648.88,343.052,649.957,342.98,650.093z"/>
			</g>
		</g>
		<rect x="32.999" y="598.812" fill="#419B8D" width="122.008" height="6.508"/>
		<rect x="455.451" y="603.709" fill="#419B8D" width="122.01" height="6.508"/>
		<g>
			<g>
				<rect x="234.404" y="41.78" fill="#F4F4F4" width="244.328" height="269.658"/>
				<g>
					<g>
						<path fill="#F6D473" d="M408.365,148.864c-0.083-27.656-22.573-50.008-50.227-49.925
							c-27.658,0.084-50.009,22.572-49.926,50.228c0.061,20.538,12.484,38.14,30.195,45.812l3.039,13.16l34.711-0.105l2.433-13.243
							C396.179,186.979,408.425,169.344,408.365,148.864z"/>
						<g>
							<path fill="#AAA393" d="M384.94,213.921c-0.007,0.536-10.805,0.821-24.113,0.635c-13.313-0.185-24.095-0.769-24.087-1.306
								c0.007-0.536,10.805-0.82,24.117-0.635C374.162,212.8,384.948,213.385,384.94,213.921z"/>
						</g>
						<g>
							<path fill="#AAA393" d="M383.566,219.633c0.011,0.537-10.044,1.198-22.457,1.478c-12.416,0.281-22.49,0.074-22.501-0.462
								c-0.016-0.536,10.04-1.198,22.456-1.479C373.48,218.89,383.555,219.097,383.566,219.633z"/>
						</g>
						<g>
							<path fill="#AAA393" d="M375.823,226.897c0.012,0.536-6.688,1.096-14.962,1.252c-8.278,0.155-14.996-0.152-15.004-0.689
								c-0.012-0.536,6.688-1.096,14.966-1.252C369.098,226.053,375.815,226.361,375.823,226.897z"/>
						</g>
						<g>
							
								<ellipse transform="matrix(1 -0.003 0.003 1 -0.6909 1.0733)" fill="#AAA393" cx="361.305" cy="233.344" rx="2.632" ry="0.97"/>
						</g>
					</g>
					<g>
						<path fill="#F4F4F4" d="M371.025,208.453c-0.022,0.005-0.083-0.201-0.181-0.606c-0.098-0.432-0.233-1.032-0.403-1.805
							c-0.343-1.59-0.81-3.944-1.317-6.992c-1.036-6.088-2.256-14.965-2.874-26.007c-0.305-5.519-0.463-11.578-0.331-18.08
							c0.022-1.625,0.075-3.278,0.143-4.958c0.072-1.662,0.053-3.423,0.61-5.207c0.527-1.761,1.925-3.512,4.003-3.916
							c1.036-0.199,2.162,0.11,2.986,0.765c0.829,0.661,1.353,1.566,1.688,2.495c2.264,7.778-5.333,16.316-13.862,15.36
							c-4.199-0.506-7.961-3.302-9.999-7.075c-1.024-1.891-1.57-4.076-1.51-6.282c0.057-1.135,0.335-2.25,0.889-3.279
							c0.535-1.005,1.499-2.008,2.824-2.231c1.288-0.27,2.647,0.392,3.39,1.311c0.783,0.916,1.228,1.999,1.45,3.106
							c0.361,2.252-0.046,4.463-0.953,6.429c-1.823,3.915-5.498,6.818-9.656,7.542c-2.078,0.341-4.229,0.066-6.131-0.717
							c-1.897-0.795-3.544-2.061-4.854-3.565c-2.621-2.995-3.886-7.166-2.832-10.998c0.313-0.942,0.807-1.826,1.544-2.55
							c0.716-0.723,1.902-1.197,2.99-0.914c1.104,0.255,1.876,1.125,2.324,1.95c0.467,0.843,0.734,1.727,0.956,2.572
							c0.885,3.353,1.706,6.618,2.361,9.805c1.359,6.364,2.309,12.358,2.93,17.854c1.258,10.997,1.296,19.971,1.115,26.143
							c-0.094,3.088-0.237,5.484-0.381,7.104c-0.071,0.789-0.132,1.401-0.169,1.843c-0.049,0.414-0.083,0.626-0.105,0.624
							s-0.03-0.215-0.03-0.633c0.012-0.443,0.026-1.057,0.045-1.848c0.061-1.623,0.121-4.017,0.136-7.098
							c0.026-6.159-0.15-15.096-1.521-26.026c-0.674-5.463-1.668-11.417-3.065-17.735c-0.678-3.164-1.514-6.405-2.41-9.732
							c-0.219-0.822-0.475-1.615-0.862-2.308c-0.388-0.69-0.923-1.231-1.589-1.38c-0.671-0.156-1.353,0.093-1.91,0.632
							c-0.546,0.543-0.972,1.281-1.224,2.07c-0.885,3.246,0.219,7.12,2.633,9.817c1.197,1.366,2.696,2.509,4.398,3.216
							c1.71,0.693,3.597,0.927,5.441,0.624c3.694-0.641,7.069-3.301,8.7-6.831c0.816-1.74,1.152-3.787,0.854-5.637
							c-0.185-0.924-0.572-1.831-1.156-2.508c-0.58-0.681-1.378-1.047-2.195-0.887c-0.799,0.127-1.477,0.767-1.913,1.58
							c-0.44,0.813-0.686,1.771-0.73,2.709c-0.05,1.949,0.425,3.908,1.352,5.621c1.842,3.427,5.287,5.978,9.016,6.424
							c3.743,0.48,7.472-1.292,9.904-3.974c1.213-1.359,2.132-2.955,2.633-4.652c0.509-1.698,0.617-3.5,0.053-5.078
							c-0.278-0.783-0.708-1.497-1.296-1.968c-0.583-0.459-1.333-0.673-2.056-0.541c-0.724,0.123-1.416,0.544-1.955,1.101
							c-0.546,0.557-0.919,1.25-1.167,2.016c-0.493,1.53-0.509,3.229-0.588,4.903c-0.075,1.671-0.139,3.316-0.173,4.935
							c-0.177,6.473-0.075,12.508,0.169,18.01c0.505,11.007,1.582,19.875,2.463,25.976c0.43,3.053,0.813,5.417,1.073,7.021
							c0.117,0.782,0.211,1.39,0.275,1.828C371.029,208.235,371.048,208.449,371.025,208.453z"/>
					</g>
					<g>
						<path fill="#F4F4F4" d="M393.508,173.676c-0.102-0.052,0.486-1.268,1.383-3.514c0.907-2.242,1.988-5.59,2.707-9.839
							c0.373-2.123,0.569-4.479,0.648-7.007c-0.004-2.528-0.091-5.236-0.546-8.045c-0.825-5.615-2.829-11.65-6.252-17.231
							c-3.502-5.537-8.04-9.995-12.714-13.213c-2.32-1.646-4.715-2.916-6.982-4.035c-2.305-1.042-4.508-1.905-6.575-2.507
							c-4.131-1.228-7.614-1.733-10.025-1.906c-2.41-0.184-3.762-0.192-3.762-0.305c-0.004-0.045,0.331-0.088,0.976-0.131
							c0.64-0.018,1.593-0.135,2.813-0.067c2.448,0.021,6.007,0.391,10.251,1.53c2.128,0.558,4.396,1.387,6.771,2.411
							c2.339,1.101,4.81,2.367,7.208,4.026c4.832,3.245,9.528,7.803,13.136,13.513c3.532,5.754,5.555,11.979,6.338,17.744
							c0.43,2.885,0.479,5.66,0.438,8.245c-0.128,2.584-0.385,4.984-0.821,7.138c-0.848,4.314-2.082,7.671-3.145,9.877
							c-0.475,1.127-1.002,1.93-1.299,2.498C393.734,173.415,393.546,173.697,393.508,173.676z"/>
					</g>
					<g>
						<path fill="#F4F4F4" d="M387.238,178.414c0.24,0.265-0.731,1.542-2.166,2.855c-1.438,1.313-2.798,2.164-3.039,1.9
							s0.73-1.542,2.166-2.854C385.634,179.002,386.997,178.151,387.238,178.414z"/>
					</g>
				</g>
				<rect x="214.746" y="28.58" fill="#172D56" width="283.562" height="26.401"/>
				<g>
					<path fill="#172D56" d="M478.732,311.438c0,0.728-54.697,1.318-122.157,1.318c-67.483,0-122.171-0.59-122.171-1.318
						c0-0.727,54.688-1.317,122.171-1.317C424.035,310.122,478.732,310.712,478.732,311.438z"/>
				</g>
				<g>
					<ellipse fill="#172D56" cx="355.065" cy="316.31" rx="0.527" ry="4.999"/>
				</g>
				<g>
					<path fill="#172D56" d="M358.289,324.752c-0.083,0.002-0.124-0.303-0.306-0.784c-0.181-0.475-0.55-1.145-1.272-1.637
						c-0.7-0.497-1.804-0.744-2.844-0.333c-1.031,0.379-1.901,1.48-1.89,2.755c-0.012,1.276,0.858,2.376,1.89,2.756
						c1.04,0.41,2.144,0.163,2.844-0.333c0.723-0.492,1.092-1.163,1.272-1.637C358.165,325.056,358.206,324.751,358.289,324.752
						c0.061-0.002,0.166,0.308,0.09,0.885c-0.071,0.565-0.38,1.429-1.216,2.131c-0.803,0.7-2.215,1.141-3.627,0.653
						c-1.397-0.441-2.632-1.923-2.613-3.669c-0.019-1.746,1.22-3.227,2.613-3.668c1.412-0.488,2.821-0.047,3.627,0.653
						c0.836,0.701,1.145,1.565,1.216,2.129C358.455,324.445,358.35,324.755,358.289,324.752z"/>
				</g>
			</g>
			<g>
				<g>
					<path fill="#816E5F" d="M254.895,635.767c0,0,29.885,12.931,29.885,16.955c0,1.786-60.058,0-60.92,0s5.172-16.955,5.172-16.955
						H254.895z"/>
					<g>
						<path fill="#5A4D45" d="M284.313,651.343c0,0.017-0.213,0.034-0.618,0.049c-0.461,0.012-1.047,0.026-1.77,0.044
							c-1.606,0.009-3.811,0.024-6.507,0.041c-5.497,0-13.091-0.073-21.474-0.27c-8.387-0.197-15.976-0.481-21.464-0.741
							c-2.692-0.146-4.896-0.262-6.5-0.349c-0.721-0.051-1.305-0.093-1.766-0.124c-0.403-0.036-0.614-0.063-0.614-0.081
							c0.001-0.018,0.214-0.026,0.619-0.026c0.461,0.007,1.047,0.017,1.77,0.026c1.604,0.045,3.81,0.105,6.504,0.181
							c5.555,0.152,13.111,0.359,21.464,0.587c8.351,0.166,15.907,0.314,21.462,0.424c2.697,0.053,4.902,0.095,6.508,0.126
							c0.721,0.023,1.307,0.042,1.768,0.057C284.1,651.306,284.313,651.324,284.313,651.343z"/>
					</g>
					<g>
						<path fill="#5A4D45" d="M262.433,638.646c0.072,0.146-1.957,1.081-3.879,2.976c-1.943,1.873-2.93,3.877-3.075,3.8
							c-0.125-0.032,0.682-2.22,2.708-4.177C260.194,639.271,262.402,638.52,262.433,638.646z"/>
					</g>
					<g>
						<path fill="#5A4D45" d="M265.897,640.734c0.075,0.139-1.521,1.033-3.118,2.578c-1.614,1.53-2.572,3.086-2.71,3.007
							c-0.122-0.053,0.665-1.791,2.345-3.388C264.08,641.323,265.851,640.61,265.897,640.734z"/>
					</g>
					<g>
						<path fill="#5A4D45" d="M269.101,642.395c0.088,0.125-0.962,0.998-2.06,2.253c-1.107,1.246-1.844,2.396-1.977,2.323
							c-0.125-0.059,0.427-1.373,1.582-2.674C267.792,642.992,269.025,642.28,269.101,642.395z"/>
					</g>
					<g>
						<path fill="#5A4D45" d="M233.574,650.443c-0.171,0.024-0.081-3.036-1.785-6.25c-1.651-3.242-4.205-4.926-4.088-5.054
							c0.032-0.05,0.708,0.29,1.634,1.082c0.925,0.787,2.056,2.071,2.92,3.729c0.859,1.659,1.26,3.325,1.373,4.534
							C233.744,649.697,233.632,650.446,233.574,650.443z"/>
					</g>
					<g>
						<path fill="#5A4D45" d="M268.662,650.921c-0.132,0.016-0.141-1.873,1.005-3.82c1.13-1.956,2.779-2.879,2.832-2.757
							c0.098,0.126-1.322,1.183-2.376,3.022C269.042,649.19,268.82,650.945,268.662,650.921z"/>
					</g>
					<g>
						<path fill="#5A4D45" d="M241.65,650.156c-0.074-0.005-0.055-1.027,0.036-2.674c0.057-0.883,0.117-1.851,0.183-2.89
							c0.021-0.275,0.042-0.554,0.062-0.838c0.026-0.288,0.062-0.629,0.268-0.949c0.205-0.324,0.57-0.513,0.898-0.586
							c0.333-0.081,0.655-0.094,0.96-0.122c1.185-0.096,2.212-0.757,2.834-1.568c0.64-0.813,0.834-1.778,0.8-2.562
							c-0.085-1.607-0.879-2.402-0.785-2.449c0.022-0.019,0.231,0.143,0.499,0.534c0.265,0.389,0.572,1.03,0.657,1.891
							c0.091,0.844-0.084,1.943-0.783,2.877c-0.672,0.927-1.826,1.689-3.173,1.801c-0.631,0.049-1.239,0.088-1.476,0.467
							c-0.239,0.371-0.202,1.019-0.277,1.544c-0.105,1.038-0.205,2.002-0.295,2.881C241.873,649.151,241.722,650.162,241.65,650.156
							z"/>
					</g>
				</g>
				<g>
					<path fill="#816E5F" d="M196.206,634.863c0,0,29.885,12.931,29.885,16.954c0,1.787-60.058,0-60.918,0
						c-0.862,0,5.172-16.954,5.172-16.954H196.206z"/>
					<g>
						<path fill="#5A4D45" d="M225.624,650.438c0,0.019-0.211,0.035-0.616,0.051c-0.461,0.011-1.049,0.026-1.77,0.043
							c-1.606,0.01-3.813,0.022-6.509,0.04c-5.497,0.002-13.089-0.072-21.472-0.268c-8.387-0.2-15.975-0.484-21.466-0.744
							c-2.692-0.143-4.896-0.262-6.498-0.347c-0.721-0.051-1.307-0.092-1.766-0.126c-0.403-0.034-0.614-0.06-0.614-0.079
							c0-0.019,0.214-0.026,0.619-0.026c0.459,0.008,1.047,0.016,1.769,0.026c1.606,0.045,3.811,0.105,6.505,0.181
							c5.553,0.151,13.111,0.358,21.462,0.588c8.351,0.164,15.909,0.313,21.464,0.422c2.695,0.053,4.902,0.096,6.506,0.128
							c0.723,0.022,1.309,0.041,1.77,0.057C225.413,650.401,225.624,650.42,225.624,650.438z"/>
					</g>
					<g>
						<path fill="#5A4D45" d="M203.744,637.74c0.074,0.146-1.955,1.083-3.877,2.977c-1.945,1.874-2.932,3.878-3.075,3.801
							c-0.126-0.034,0.682-2.221,2.708-4.179C201.507,638.365,203.714,637.616,203.744,637.74z"/>
					</g>
					<g>
						<path fill="#5A4D45" d="M207.21,639.83c0.075,0.14-1.521,1.032-3.12,2.578c-1.612,1.529-2.572,3.086-2.708,3.005
							c-0.123-0.053,0.665-1.788,2.344-3.386C205.394,640.418,207.164,639.706,207.21,639.83z"/>
					</g>
					<g>
						<path fill="#5A4D45" d="M210.412,641.491c0.09,0.124-0.96,0.998-2.06,2.25c-1.107,1.247-1.842,2.399-1.975,2.325
							c-0.125-0.06,0.427-1.372,1.582-2.674C209.103,642.086,210.338,641.374,210.412,641.491z"/>
					</g>
					<g>
						<path fill="#5A4D45" d="M174.887,649.539c-0.171,0.022-0.083-3.035-1.785-6.25c-1.651-3.242-4.207-4.928-4.088-5.054
							c0.03-0.051,0.708,0.29,1.632,1.083c0.925,0.785,2.058,2.071,2.922,3.729c0.859,1.658,1.26,3.325,1.371,4.534
							C175.057,648.793,174.945,649.543,174.887,649.539z"/>
					</g>
					<g>
						<path fill="#5A4D45" d="M209.975,650.018c-0.134,0.015-0.143-1.876,1.005-3.821c1.128-1.958,2.777-2.879,2.83-2.756
							c0.098,0.126-1.32,1.183-2.374,3.021C210.353,648.285,210.133,650.04,209.975,650.018z"/>
					</g>
					<g>
						<path fill="#5A4D45" d="M182.961,649.253c-0.072-0.008-0.053-1.028,0.036-2.676c0.057-0.881,0.119-1.849,0.185-2.889
							c0.021-0.274,0.042-0.554,0.062-0.838c0.026-0.29,0.063-0.629,0.266-0.951c0.205-0.321,0.572-0.51,0.9-0.583
							c0.332-0.081,0.655-0.095,0.96-0.125c1.183-0.096,2.21-0.757,2.832-1.566c0.64-0.813,0.836-1.777,0.8-2.561
							c-0.085-1.61-0.879-2.404-0.783-2.45c0.021-0.021,0.229,0.142,0.499,0.533c0.265,0.39,0.57,1.032,0.657,1.891
							c0.088,0.846-0.085,1.945-0.784,2.879c-0.674,0.927-1.828,1.689-3.173,1.8c-0.631,0.047-1.241,0.089-1.478,0.467
							c-0.237,0.369-0.202,1.018-0.275,1.545c-0.107,1.037-0.205,2.001-0.297,2.881
							C183.186,648.247,183.035,649.259,182.961,649.253z"/>
					</g>
				</g>
				<path fill="#111C35" d="M168.17,371.758c-0.885,7.62,0.305,268.517,0.305,268.517h40.588c0,0,5.65-227.385,9.752-227.782
					c10.006-0.968,5.359,228.47,7.419,227.782c2.062-0.685,36.064,0.545,36.064,0.545l-1.032-262.569L168.17,371.758z"/>
				<g>
					<g>
						<path fill="#F2B59D" d="M380.617,250.021l11.2-3.005c0,0,5.299-10.494,7.257-9.281c1.958,1.213-1.676,10.316-0.053,10.348
							c1.619,0.032,15.73-5.917,16.71-4.397c0.979,1.519,0.29,2.612,0.29,2.612s3.713-1.196,4.003-0.422
							c0.286,0.774,1.002,1.712-2,3.854c0,0,2.226-0.031-0.485,2.891c0,0,1.649,2.057-0.241,3.27
							c-1.887,1.213-31.623,18.825-31.623,18.825L380.617,250.021z"/>
						<g>
							<path fill="#EE9580" d="M416.025,246.049c0.033,0.062-0.701,0.528-1.937,1.194c-1.234,0.667-2.975,1.525-4.94,2.375
								c-1.966,0.85-3.781,1.529-5.11,1.971c-1.333,0.443-2.173,0.66-2.199,0.594c-0.022-0.072,0.775-0.413,2.067-0.943
								c1.292-0.531,3.076-1.261,5.035-2.105c1.954-0.846,3.709-1.647,4.982-2.226C415.196,246.331,415.991,245.983,416.025,246.049
								z"/>
						</g>
						<g>
							
								<ellipse transform="matrix(0.9169 -0.399 0.399 0.9169 -66.1418 185.4769)" fill="#EE9580" cx="412.434" cy="251.607" rx="7.037" ry="0.264"/>
						</g>
						<g>
							
								<ellipse transform="matrix(0.9312 -0.3645 0.3645 0.9312 -64.4875 168.0544)" fill="#EE9580" cx="412.922" cy="254.851" rx="5.536" ry="0.264"/>
						</g>
					</g>
					<path fill="#14223D" d="M251.41,233.592c0,0,52.488,25.843,60.449,25.946c7.957,0.103,76.441-12.973,76.441-12.973
						l7.023,27.314c0,0-85.773,18.844-94.412,15.982c-8.637-2.86-46.367-13.187-46.367-13.187L251.41,233.592z"/>
					<path fill="#F4F4F4" d="M168.626,381.987l-3.628-99.496c0,0-7.215-40.7,4.847-47.917c12.063-7.217,30.623-14.795,30.623-14.795
						h31.471c0,0,20.777,15.814,25.015,20.145c4.237,4.331,6.075,137.221,6.075,137.221L168.626,381.987z"/>
					<path fill="#172D56" d="M238.029,223.928l4.293,163.818l21.191,3.408c0,0,0.218-146.419-5.528-152.378
						C251.18,231.721,238.029,223.928,238.029,223.928z"/>
					<path fill="#172D56" d="M196.611,221.703c0,0,15.61-3.511,16.92,87.558l3.512,82.759l-51.703,2.766
						c0,0-0.086-106.737-0.674-110.561c-0.589-3.823-2.907-31.408-2.269-35.262c0.638-3.854,0.062-11.633,12.166-17.735
						C186.669,225.127,196.611,221.703,196.611,221.703z"/>
					<path fill="#F2B59D" d="M199.149,197.583c0,0,24.445-0.929,28.702,0c4.256,0.929,10.215-1.563,12.215-5.23
						c1.998-3.666,2.128-47.474,2.128-47.474l-45.822-1.269L199.149,197.583z"/>
					<polygon fill="#F2B59D" points="233.616,183.509 233.616,207.934 199.149,207.934 199.149,176.772 					"/>
					<polygon fill="#F4F4F4" points="234.235,207.934 234.235,223.688 198.76,221.165 199.149,207.934 					"/>
					<g>
						<path fill="#E78472" d="M214.728,177.094c0.098-0.024,0.226,0.981,1.056,2.302c0.796,1.302,2.459,2.904,4.773,3.393
							c2.318,0.469,4.481-0.334,5.733-1.207c1.292-0.876,1.815-1.743,1.896-1.681c0.026,0.017-0.077,0.246-0.335,0.618
							c-0.256,0.372-0.698,0.868-1.344,1.366c-1.256,0.994-3.546,1.926-6.058,1.419c-2.506-0.531-4.235-2.304-4.986-3.719
							c-0.392-0.715-0.595-1.347-0.68-1.792C214.697,177.351,214.695,177.1,214.728,177.094z"/>
					</g>
					<g>
						<path fill="#13203D" d="M215.204,165.347c0.343-0.015,0.64-0.737,0.537-1.706c-0.092-0.827-0.371-1.574-0.73-1.557
							c-0.343,0.015-0.642,0.737-0.537,1.706C214.563,164.618,214.844,165.364,215.204,165.347z"/>
					</g>
					<g>
						<path fill="#13203D" d="M235.239,164.99c0.343-0.015,0.64-0.737,0.537-1.707c-0.092-0.828-0.371-1.574-0.73-1.557
							c-0.343,0.015-0.642,0.737-0.537,1.707C234.599,164.259,234.879,165.005,235.239,164.99z"/>
					</g>
					<g>
						<path fill="#F2B59D" d="M198.929,174.869c0,0-7.381,0.512-7.381-5.115c0-5.628,6.758-5.168,6.758-5.168L198.929,174.869z"/>
						<g>
							<path fill="#E78472" d="M196.901,172.827c0.015,0.055-0.55,0.229-1.417-0.056c-0.424-0.146-0.912-0.415-1.326-0.864
								c-0.418-0.445-0.723-1.077-0.815-1.774c-0.09-0.697,0.043-1.387,0.335-1.923c0.286-0.541,0.689-0.924,1.062-1.173
								c0.769-0.495,1.36-0.466,1.36-0.409c0.021,0.083-0.51,0.194-1.138,0.71c-0.623,0.492-1.273,1.513-1.098,2.728
								c0.141,1.219,1.032,2.041,1.759,2.36C196.359,172.766,196.901,172.739,196.901,172.827z"/>
						</g>
						<g>
							<path fill="#E78472" d="M193.681,169.708c0.092-0.116,0.649,0.184,1.375,0.082c0.729-0.072,1.2-0.496,1.316-0.405
								c0.053,0.041,0.002,0.228-0.209,0.443c-0.206,0.215-0.586,0.431-1.045,0.485c-0.458,0.055-0.877-0.064-1.129-0.223
								C193.732,169.931,193.638,169.761,193.681,169.708z"/>
						</g>
					</g>
					<g>
						<path fill="#F2B59D" d="M239.639,175.736c0,0,7.381,0.512,7.381-5.115c0-5.628-6.758-5.167-6.758-5.167L239.639,175.736z"/>
						<g>
							<path fill="#E78472" d="M241.667,173.694c0-0.087,0.542-0.061,1.279-0.401c0.727-0.32,1.617-1.141,1.757-2.36
								c0.177-1.215-0.475-2.236-1.096-2.729c-0.627-0.516-1.16-0.626-1.137-0.709c-0.002-0.057,0.589-0.085,1.358,0.409
								c0.373,0.249,0.777,0.633,1.063,1.173c0.29,0.537,0.424,1.227,0.335,1.923c-0.092,0.697-0.399,1.329-0.815,1.774
								c-0.414,0.449-0.902,0.718-1.326,0.864C242.217,173.923,241.652,173.748,241.667,173.694z"/>
						</g>
						<g>
							<path fill="#E78472" d="M244.887,170.575c0.042,0.053-0.053,0.223-0.309,0.382c-0.25,0.159-0.67,0.278-1.13,0.223
								c-0.458-0.055-0.838-0.27-1.045-0.485c-0.211-0.215-0.262-0.403-0.209-0.444c0.119-0.09,0.587,0.333,1.318,0.407
								C244.237,170.759,244.795,170.459,244.887,170.575z"/>
						</g>
					</g>
					<g>
						<path fill="#E78472" d="M220.975,176.514c0.017-0.038,0.297,0.072,0.802,0.235c0.484,0.147,1.303,0.381,2.06-0.087
							c0.826-0.441,0.495-1.729,0.487-2.972c-0.047-1.289-0.1-2.676-0.154-4.131c-0.094-2.931-0.15-5.585-0.166-7.507
							c-0.015-1.923,0.011-3.113,0.084-3.115c0.074-0.002,0.177,1.183,0.288,3.103c0.109,1.918,0.224,4.572,0.32,7.502
							c0.04,1.457,0.077,2.843,0.113,4.132c0.01,0.641,0.038,1.225,0.023,1.818c0.009,0.595-0.309,1.242-0.8,1.488
							c-0.469,0.268-0.96,0.302-1.36,0.25c-0.401-0.054-0.719-0.179-0.97-0.288C221.208,176.713,220.962,176.543,220.975,176.514z"
							/>
					</g>
					<g opacity="0.63">
						<path fill="#EE9580" d="M229.795,171.619c-0.017,1.374,1.576,2.504,3.54,2.728c1.966,0.216,3.771-0.534,4.063-1.875
							c0.292-1.332-1.262-2.8-3.504-3.049C231.653,169.169,229.81,170.255,229.795,171.619z"/>
					</g>
					<g opacity="0.63">
						<path fill="#EE9580" d="M203.281,170.707c-0.015,1.292,1.484,2.357,3.333,2.568c1.851,0.203,3.552-0.503,3.827-1.767
							c0.275-1.254-1.188-2.635-3.299-2.871C205.03,168.4,203.294,169.423,203.281,170.707z"/>
					</g>
					<path fill="#E78472" d="M233.616,197.13c0,0-6.508,3.01-15.224,2.563l15.224,1.408V197.13z"/>
					<g>
						<path fill="#111C35" d="M200.612,309.441c-0.009,0.001-0.022-0.08-0.04-0.239c-0.017-0.19-0.038-0.422-0.064-0.705
							c-0.047-0.665-0.109-1.57-0.19-2.713c-0.147-2.406-0.352-5.805-0.606-9.986c-0.463-8.476-1.098-20.107-1.8-32.957
							c-0.187-3.217-0.266-6.369-0.627-9.368c-0.356-2.992-1.067-5.859-2.417-8.264c-1.324-2.418-3.313-4.243-5.384-5.542
							c-2.083-1.307-4.259-2.12-6.289-2.629c-4.088-0.991-7.54-0.974-9.888-0.997c-1.146,0.012-2.052,0.022-2.719,0.029
							c-0.285,0.002-0.516,0.004-0.708,0.005c-0.158-0.002-0.241-0.008-0.241-0.016c0-0.009,0.081-0.021,0.239-0.038
							c0.19-0.016,0.422-0.034,0.706-0.058c0.622-0.042,1.537-0.094,2.719-0.128c2.354-0.04,5.824-0.117,9.979,0.841
							c2.066,0.493,4.29,1.298,6.431,2.618c2.129,1.313,4.195,3.182,5.577,5.677c1.407,2.475,2.139,5.411,2.506,8.438
							c0.373,3.039,0.454,6.188,0.642,9.404c0.64,12.853,1.222,24.487,1.644,32.964c0.185,4.185,0.333,7.587,0.438,9.995
							c0.04,1.146,0.072,2.053,0.094,2.719c0.004,0.285,0.007,0.517,0.009,0.708C200.625,309.358,200.622,309.44,200.612,309.441z"
							/>
					</g>
					<g>
						<path fill="#419B8D" d="M199.221,219.981c0.034-0.142,2.454,1.267,6.77,1.502c2.137,0.096,4.726-0.149,7.381-1.129
							c2.655-0.959,5.312-2.74,7.453-5.199c1.778-2.048,3.022-4.394,3.717-6.669c0.04-0.131,0.179-0.205,0.311-0.166
							c0.09,0.027,0.154,0.103,0.173,0.189c0.915,4.589,3.542,7.896,5.649,9.729c2.141,1.869,3.742,2.5,3.69,2.585
							c-0.005,0.013-0.105-0.021-0.292-0.101c-0.185-0.084-0.467-0.194-0.81-0.379c-0.693-0.36-1.678-0.952-2.789-1.871
							c-2.201-1.798-4.958-5.14-5.939-9.866l0.484,0.023c-0.697,2.345-1.969,4.765-3.798,6.869c-2.199,2.529-4.945,4.35-7.683,5.311
							c-2.74,0.981-5.395,1.19-7.569,1.044c-2.185-0.162-3.902-0.642-5.039-1.074c-0.569-0.221-1.002-0.407-1.286-0.558
							C199.358,220.08,199.213,219.997,199.221,219.981z"/>
					</g>
					<path fill="#ADDCE0" d="M219.86,216.551l3.964,7.894h3.212l2.339-7.208c0,0-3.638-5.168-4.594-8.678
						C224.781,208.559,223.17,213.998,219.86,216.551z"/>
					<path fill="#ADDCE0" d="M223.824,224.445l-7.777,116.654l11.684,29.842c0,0,10.298-34.063,10.298-34.658
						c0-0.594-10.993-111.838-10.993-111.838H223.824z"/>
					<g>
						<path fill="#13203D" d="M217.429,158.805c-0.141,0.434-2.538-0.023-5.458,0.157c-2.922,0.142-5.255,0.86-5.444,0.444
							c-0.083-0.193,0.416-0.641,1.373-1.084c0.951-0.443,2.373-0.847,3.984-0.938c1.61-0.088,3.067,0.158,4.063,0.494
							C216.947,158.214,217.492,158.604,217.429,158.805z"/>
					</g>
					<g>
						<path fill="#13203D" d="M239.515,159.815c-0.247,0.382-2.311-0.587-4.998-0.996c-2.682-0.453-4.945-0.177-5.06-0.618
							c-0.049-0.204,0.482-0.553,1.446-0.808c0.958-0.256,2.356-0.375,3.864-0.136c1.506,0.244,2.796,0.796,3.626,1.339
							C239.23,159.139,239.626,159.637,239.515,159.815z"/>
					</g>
					<path opacity="0.38" fill="#111C35" d="M166.877,339.079c0,0,9.793,32.693,48.101,15.48l48.754-17.96v-5.056l-97.25-3.628
						L166.877,339.079z"/>
					<path fill="#111C35" d="M196.611,221.703c0,0,8.701,58.317,9.601,57.716c0.9-0.6,5.103,3.902,5.103,3.902l-4.804,5.595
						l8.594,69.698c0,0-1.96-83.158-4.425-98.703C208.218,244.368,205.922,221.622,196.611,221.703z"/>
					<path fill="#111C35" d="M238.029,223.928c0,0,4.031,5.468,4.293,11.888c0.262,6.418,0.987,41.891,0.987,41.891l-2.64,5.308
						l2.64,5.902l-1.749,69.698L238.029,223.928z"/>
					<g>
						<g>
							<g>
								<g>
									<g>
										<path fill="#F2B59D" d="M281.097,298.236l11.596-0.076c0,0,7.78-8.813,9.368-7.145c1.587,1.668-4.231,9.557-2.67,9.997
											c1.563,0.441,16.716-1.746,17.281-0.028c0.562,1.717-0.38,2.602-0.38,2.602s3.894-0.219,3.977,0.604
											c0.087,0.822,0.539,1.91-2.903,3.224c0,0,2.158,0.531-1.201,2.673c0,0,1.073,2.406-1.063,3.102
											c-2.132,0.697-35.354,10.217-35.354,10.217L281.097,298.236z"/>
										<g>
											<path fill="#EE9580" d="M316.354,303.346c0.02,0.069-0.81,0.332-2.173,0.666c-1.363,0.333-3.261,0.723-5.378,1.049
												c-2.117,0.325-4.047,0.522-5.446,0.615c-1.401,0.092-2.269,0.089-2.274,0.019c-0.006-0.076,0.851-0.204,2.237-0.39
												c1.386-0.186,3.297-0.441,5.401-0.764c2.105-0.324,4.008-0.655,5.386-0.894S316.34,303.272,316.354,303.346z"/>
										</g>
										<g>
											<path fill="#EE9580" d="M318.434,306.73c0.022,0.143-3.073,0.746-6.914,1.345c-3.842,0.6-6.972,0.969-6.995,0.825
												s3.074-0.747,6.916-1.345C315.277,306.956,318.411,306.586,318.434,306.73z"/>
										</g>
										<g>
											
												<ellipse transform="matrix(0.9931 -0.1172 0.1172 0.9931 -34.3258 38.6233)" fill="#EE9580" cx="311.131" cy="311.077" rx="5.537" ry="0.263"/>
										</g>
									</g>
									<path fill="#172D56" d="M285.868,324.176l-81.979,27.283c0,0-21.522,7.243-33.466-13.062
										c-12.813-21.786,21.191-27.311,21.191-27.311l92.475-14.619L285.868,324.176z"/>
									<g>
										
											<ellipse transform="matrix(0.0753 0.9972 -0.9972 0.0753 566.4375 15.1764)" fill="#111C35" cx="275.036" cy="313.011" rx="14.946" ry="0.264"/>
									</g>
									<g>
										
											<ellipse transform="matrix(0.9924 -0.1228 0.1228 0.9924 -35.2728 36.6532)" fill="#111C35" cx="279.746" cy="304.509" rx="5.369" ry="0.264"/>
									</g>
								</g>
							</g>
							<g>
								<path fill="#111C35" d="M202.934,309.261c0.045,0.08-1.094,0.717-2.777,1.961c-1.685,1.238-3.872,3.154-5.871,5.639
									c-1.992,2.492-3.388,5.042-4.231,6.954c-0.85,1.913-1.224,3.164-1.313,3.137c-0.034-0.009,0.03-0.33,0.177-0.903
									c0.14-0.576,0.407-1.392,0.793-2.378c0.765-1.974,2.135-4.603,4.163-7.14c2.036-2.53,4.305-4.437,6.065-5.612
									c0.879-0.59,1.617-1.028,2.15-1.289C202.618,309.362,202.917,309.229,202.934,309.261z"/>
							</g>
							<g>
								<path fill="#111C35" d="M202.56,309.551c0.034,0.16-2.578,0.667-5.464,2.131c-2.902,1.438-4.868,3.23-4.975,3.106
									c-0.1-0.08,1.755-2.094,4.738-3.577C199.829,309.707,202.554,309.423,202.56,309.551z"/>
							</g>
							<g>
								<path fill="#111C35" d="M266.116,330.484c0.002,0.008-0.086,0.047-0.26,0.113c-0.205,0.072-0.461,0.165-0.781,0.28
									c-0.725,0.248-1.734,0.591-3.013,1.028c-2.657,0.901-6.436,2.184-11.089,3.762c-9.358,3.184-22.196,7.864-36.556,12.516
									c-3.593,1.152-7.08,2.344-10.528,3.276c-3.444,0.919-6.869,1.574-10.175,1.553c-3.303,0.01-6.438-0.713-9.099-1.954
									c-2.659-1.258-4.868-2.913-6.698-4.589c-3.644-3.394-5.956-6.711-7.566-8.95c-0.796-1.132-1.394-2.025-1.792-2.634
									c-0.183-0.285-0.332-0.514-0.448-0.697c-0.098-0.159-0.145-0.242-0.138-0.248c0.008-0.005,0.07,0.069,0.183,0.217
									c0.128,0.174,0.29,0.394,0.49,0.667c0.452,0.621,1.077,1.482,1.872,2.574c1.659,2.198,4.013,5.472,7.651,8.796
									c1.828,1.638,4.016,3.25,6.63,4.466c2.615,1.199,5.673,1.887,8.916,1.866c6.536-0.002,13.38-2.561,20.542-4.845
									c14.348-4.648,27.203-9.272,36.599-12.368c4.693-1.561,8.506-2.775,11.144-3.604c1.294-0.396,2.311-0.709,3.045-0.934
									c0.326-0.094,0.587-0.17,0.796-0.23C266.018,330.497,266.112,330.476,266.116,330.484z"/>
							</g>
						</g>
						<g>
							<path fill="#111C35" d="M284.032,296.379c0.025,0.144-18.634,3.279-41.667,7.004c-23.04,3.726-41.73,6.627-41.753,6.484
								c-0.024-0.144,18.63-3.279,41.67-7.004C265.315,299.139,284.01,296.235,284.032,296.379z"/>
						</g>
					</g>
				</g>
				<path fill="#13203D" d="M196.747,138.596c0.584,8.147,6.892,15.557,14.84,17.436c2.491,0.588,5.24,0.644,7.485-0.589
					c2.245-1.234,3.747-4.029,2.889-6.443c1.429,1.776,2.903,3.593,4.879,4.73c1.973,1.137,4.589,1.459,6.483,0.193
					c1.894-1.266,2.454-4.386,0.71-5.854c1.774,2.277,3.928,4.438,6.69,5.271c2.765,0.833,6.224-0.08,7.498-2.67
					c0.978-1.986,0.45-4.457-0.804-6.283c-1.252-1.826-3.122-3.125-5-4.3c-4.543-2.844-9.389-5.21-14.425-7.048
					c-5.785-2.111-14.347-3.762-20.344-2.357c-3.053,0.714-10.468,1.521-10.901,8.188"/>
				<path fill="#13203D" d="M205.86,131.064c0,0-11.405,1.831-12.285,10.163c-0.879,8.332,5.02,28.157,5.02,28.157L205.86,131.064z"
					/>
				<g>
					<path fill="#101119" d="M225.018,379.415c0.015,0,0.032,0.168,0.047,0.49c0.011,0.374,0.026,0.844,0.043,1.418
						c0.019,1.299,0.045,3.078,0.077,5.273c0.022,4.552,0.055,10.813,0.09,17.957v0.12l-0.094,0.077
						c-1.642,1.357-3.352,2.77-5.105,4.218c-0.39,0.32-0.777,0.641-1.137,0.938l-0.433,0.356l0.002-0.56
						c0.032-8.405,0.06-15.95,0.081-21.474c0.034-2.682,0.062-4.867,0.083-6.455c0.019-0.717,0.036-1.295,0.047-1.751
						c0.017-0.399,0.034-0.608,0.053-0.608c0.017,0,0.034,0.209,0.051,0.608c0.013,0.456,0.028,1.034,0.049,1.751
						c0.021,1.588,0.047,3.773,0.081,6.455c0.022,5.523,0.051,13.068,0.081,21.474l-0.429-0.203
						c0.359-0.298,0.748-0.616,1.137-0.938c1.755-1.444,3.466-2.855,5.112-4.209l-0.094,0.2c0.036-7.145,0.068-13.405,0.092-17.957
						c0.03-2.195,0.057-3.975,0.075-5.273c0.019-0.574,0.032-1.044,0.043-1.418C224.986,379.583,225.003,379.415,225.018,379.415z"
						/>
				</g>
				<circle fill="none" stroke="#101119" stroke-miterlimit="10" cx="222.083" cy="382.451" r="1.976"/>
				<g>
					<path fill="#101119" d="M190.279,395.046c0.03,0.021-0.105,0.279-0.379,0.732c-0.263,0.46-0.711,1.085-1.322,1.813
						c-1.208,1.457-3.197,3.246-5.775,4.603c-2.585,1.346-5.188,1.96-7.076,2.124c-0.943,0.084-1.714,0.098-2.241,0.053
						c-0.529-0.036-0.819-0.072-0.817-0.109c0.002-0.095,1.169-0.053,3.015-0.314c1.842-0.255,4.355-0.91,6.875-2.221
						c2.512-1.321,4.483-3.015,5.743-4.383C189.567,395.977,190.198,394.995,190.279,395.046z"/>
				</g>
				<g>
					<path fill="#101119" d="M259.075,404c-0.003,0.035-0.316,0.033-0.885,0c-0.571-0.024-1.39-0.144-2.386-0.362
						c-0.998-0.21-2.162-0.579-3.412-1.098c-1.239-0.538-2.557-1.238-3.843-2.128c-1.274-0.903-2.386-1.899-3.319-2.879
						c-0.914-0.996-1.661-1.962-2.203-2.828c-0.546-0.86-0.938-1.589-1.156-2.114c-0.228-0.523-0.337-0.817-0.305-0.832
						c0.088-0.042,0.616,1.098,1.77,2.737c0.571,0.825,1.333,1.746,2.247,2.702c0.93,0.938,2.024,1.9,3.271,2.783
						c1.256,0.866,2.535,1.563,3.736,2.114c1.211,0.529,2.337,0.929,3.307,1.181C257.833,403.798,259.085,403.901,259.075,404z"/>
				</g>
				<g>
					<path fill="#101119" d="M193.056,640.274c0,0-0.019-0.214-0.028-0.633c-0.008-0.438-0.019-1.058-0.032-1.862
						c-0.017-1.654-0.042-4.064-0.073-7.158c-0.038-6.237-0.094-15.229-0.162-26.33c-0.071-22.249-0.169-52.955-0.277-86.87
						c-0.056-33.933-0.047-64.65,0.045-86.885c0.047-11.116,0.113-20.111,0.203-26.329c0.043-3.107,0.094-5.521,0.151-7.157
						c0.038-0.819,0.047-1.438,0.094-1.862c0.045-0.422,0.079-0.629,0.079-0.629s0,0.222-0.026,0.637
						c-0.028,0.412-0.019,1.041-0.04,1.858c-0.013,1.654-0.03,4.063-0.055,7.155c-0.008,6.236-0.019,15.226-0.034,26.329
						c0.028,22.248,0.066,52.957,0.107,86.883c0.049,33.913,0.092,64.621,0.125,86.868c-0.002,11.104-0.004,20.095-0.006,26.332
						c-0.011,3.094-0.021,5.502-0.026,7.158c-0.009,0.805-0.015,1.424-0.021,1.862C193.073,640.061,193.056,640.274,193.056,640.274
						z"/>
				</g>
				<g>
					<path fill="#101119" d="M247.233,640.274c0,0-0.019-0.209-0.028-0.621c-0.008-0.431-0.019-1.037-0.032-1.828
						c-0.017-1.625-0.042-3.99-0.073-7.027c-0.038-6.122-0.094-14.949-0.162-25.848c-0.071-21.841-0.169-51.983-0.277-85.276
						c-0.056-33.313-0.047-63.465,0.045-85.292c0.047-10.912,0.113-19.743,0.203-25.846c0.043-3.051,0.094-5.422,0.153-7.027
						c0.038-0.805,0.045-1.412,0.092-1.829c0.045-0.414,0.079-0.615,0.079-0.615s0,0.219-0.026,0.623
						c-0.028,0.407-0.019,1.022-0.04,1.825c-0.013,1.625-0.03,3.989-0.053,7.025c-0.01,6.121-0.021,14.946-0.036,25.846
						c0.028,21.841,0.065,51.985,0.109,85.29c0.047,33.291,0.09,63.434,0.123,85.274c-0.002,10.9-0.004,19.726-0.006,25.85
						c-0.011,3.035-0.021,5.4-0.026,7.027c-0.007,0.789-0.015,1.397-0.021,1.828C247.252,640.063,247.233,640.274,247.233,640.274z"
						/>
				</g>
			</g>
			<g>
				<g>
					<g>
						<g>
							<path fill="#90766D" d="M221.815,410.711l-70.119,31.025c0,0-19.25,8.274-31.753-9.503
								c-13.416-19.077,17.442-26.703,17.442-26.703l84.429-17.222V410.711z"/>
						</g>
					</g>
					<g>
						<path fill="#90766D" d="M146.604,403.806c0.047,0.069,0.102-0.142-1.354,1.128c-1.456,1.266-3.324,3.189-4.975,5.625
							c-1.646,2.441-2.738,4.89-3.371,6.712c-0.638,1.823-0.889,3-0.972,2.983c-0.034-0.006,0.002-0.306,0.094-0.844
							c0.085-0.541,0.27-1.311,0.55-2.246c0.556-1.874,1.62-4.394,3.295-6.877c1.682-2.48,3.626-4.404,5.157-5.617
							c0.765-0.608,0.748-0.771,1.219-1.049C146.714,403.335,146.588,403.777,146.604,403.806z"/>
					</g>
				</g>
			</g>
			<g>
				<path fill="#90766D" d="M210.319,390.818l17.7-3.989c0,0,5.931-9.082,7.602-7.77c1.672,1.313-2.591,9.287-1.107,9.482
					c1.486,0.194,15.03-3.818,15.772-2.325c0.744,1.491,0.002,2.424,0.002,2.424s3.525-0.716,3.711,0.022
					c0.186,0.739,0.744,1.672-2.224,3.329c0,0,2.042,0.199-0.74,2.602c0,0,1.299,2.055-0.556,2.974
					c-1.854,0.919-30.92,14.032-30.92,14.032L210.319,390.818z"/>
				<g>
					<path fill="#715D57" d="M250.626,388.597c0.024,0.061-0.691,0.426-1.881,0.935c-1.19,0.506-2.86,1.148-4.737,1.764
						c-1.879,0.614-3.606,1.085-4.866,1.379c-1.26,0.295-2.052,0.424-2.067,0.359c-0.017-0.067,0.746-0.313,1.977-0.691
						c1.233-0.378,2.936-0.897,4.803-1.508c1.868-0.612,3.548-1.199,4.766-1.625C249.839,388.785,250.598,388.533,250.626,388.597z"
						/>
				</g>
				<g>
					
						<ellipse transform="matrix(0.9496 -0.3133 0.3133 0.9496 -111.0392 96.8419)" fill="#715D57" cx="245.774" cy="393.885" rx="6.494" ry="0.243"/>
				</g>
				<g>
					
						<ellipse transform="matrix(0.9607 -0.2777 0.2777 0.9607 -100.3041 83.9863)" fill="#715D57" cx="246.295" cy="396.037" rx="5.109" ry="0.242"/>
				</g>
			</g>
			<path opacity="0.13" fill="#111C35" d="M146.622,403.621l-0.593,4.647c-0.199,1.557,1.007,2.938,2.578,2.946l0,0
				c1.608,0.012,2.824,1.456,2.563,3.043l-4.886,29.56l-7.379,1.185l1.171-31.268L146.622,403.621z"/>
			<path fill="#13203D" d="M75.304,307.711c-2.889-3.012-1.463-32.292-3.075-38.788c-0.642-2.583-1.442-5.261-0.95-7.885
				c0.586-3.124,2.919-5.522,5.458-7.068c1.055-0.642,2.262-1.188,3.44-0.904c1.179,0.282,2.169,1.74,1.667,2.945
				c0.019-2.228,0.8-4.501,2.344-5.943c1.544-1.44,3.885-1.894,5.666-0.836c1.783,1.058,2.715,3.712,1.808,5.704
				c1.077-2.792,4.269-3.635,7.018-3.863c1.29-0.106,2.753-0.09,3.653,0.93c0.849,0.959,0.875,2.531,0.394,3.758
				c-0.484,1.227-1.38,2.191-2.254,3.121c1.284-1.197,2.747-2.292,4.417-2.524c1.668-0.233,3.566,0.642,4.139,2.384
				c0.572,1.741-0.847,4.027-2.495,3.648c1.968-0.934,4.145-1.328,6.28-1.137c1.117,0.1,2.365,0.468,2.893,1.555
				c0.506,1.044,0.119,2.394-0.627,3.248c-0.746,0.853-1.771,1.323-2.768,1.77c2.286-0.767,4.864-0.401,6.899,0.976
				c0.921,0.624,1.796,1.589,1.806,2.779c0.015,1.429-1.205,2.495-2.404,3.048c-1.198,0.552-2.813,21.937-3.747,22.932"/>
			<path fill="#F6D473" d="M502.243,347.877c-9.174,1.434-18.51,1.834-27.774,1.198c-1.781-0.125-3.739-0.369-4.937-1.695
				c-1.107-1.228-1.239-3.024-1.311-4.675c-0.178-3.957-0.099-8.521,2.944-11.054c0.874-0.728,1.962-1.247,2.584-2.201
				c1.717-2.637-1.254-6.354,0.086-9.202c0.848-1.799,3.04-2.452,4.538-3.76c2.505-2.186,2.806-5.889,3.142-9.196
				c0.335-3.307,1.212-7.078,4.18-8.573L502.243,347.877z"/>
			<circle fill="none" stroke="#132038" stroke-width="0.25" stroke-miterlimit="10" cx="484.792" cy="336.541" r="6.971"/>
			<path fill="#EE635B" d="M424.751,492.366h-20.863c-13.799,0-26.129,8.609-30.889,21.561l-39.11,117.942l34.057,19.301
				c0,0,47.586-117.847,49.917-119.555C420.194,529.907,424.751,492.366,424.751,492.366z"/>
			<path opacity="0.56" fill="#132038" d="M403.888,492.366c-13.799,0-26.129,8.609-30.885,21.561l-37.167,112.079
				c-0.037-0.093-0.063-0.182-0.102-0.271c-0.166-0.363-0.282-0.732-0.55-1.122c-0.136-0.181-0.313-0.379-0.606-0.471
				c-0.29-0.095-0.644,0.022-0.828,0.256c-0.347,0.458-0.302,0.966-0.279,1.363c0.03,0.42,0.103,0.823,0.188,1.213
				c0.181,0.777,0.403,1.491,0.596,2.181c0.09,0.297,0.169,0.568,0.252,0.854l-0.618,1.86l1.397,0.791
				c0.016,0.047,0.03,0.102,0.046,0.148c0.368,1.223,0.662,2.156,0.858,2.723c-1.247,0.034-2.67,0.081-4.203,0.142
				c-0.049-0.059-0.091-0.096-0.109-0.085c-0.019,0.008-0.022,0.04-0.022,0.091c-9.75,0.386-23.764,1.355-24.776,3.756
				c-0.694,1.647,55.337,23.342,56.132,23.677c0.207,0.087,0.426-1.055,0.641-2.786c0.079,0.021,0.173,0.045,0.244,0.063
				c0.396,0.096,0.603,0.138,0.606,0.121c0.004-0.018-0.191-0.095-0.576-0.223c-0.075-0.024-0.177-0.057-0.26-0.083
				c0.361-2.96,0.704-7.553,0.923-10.823l3.156,1.789c0,0,47.586-117.847,49.917-119.555c2.332-1.708,6.889-39.249,6.889-39.249
				H403.888z M334.774,629.208c-0.02-0.063-0.034-0.118-0.049-0.185c-0.181-0.69-0.399-1.417-0.562-2.161
				c-0.079-0.373-0.144-0.753-0.17-1.14c-0.033-0.384-0.011-0.77,0.158-0.984c0.151-0.185,0.399-0.115,0.61,0.185
				c0.196,0.271,0.335,0.667,0.493,1.009c0.121,0.281,0.223,0.562,0.324,0.84L334.774,629.208z M337.146,633.715l0.659,0.372
				c-0.384,0.314-0.73,0.548-0.99,0.708C336.905,634.474,337.019,634.109,337.146,633.715z M336.484,634.999
				c-0.113,0.067-0.17,0.11-0.158,0.134c0.003,0.009,0.06,0,0.135-0.021c-0.026,0.15-0.045,0.288-0.063,0.414
				c-0.012,0-0.022,0-0.034,0.002c-0.113-0.55-0.327-1.451-0.621-2.609l0.903,0.512c-0.007,0.367-0.022,0.695-0.037,0.955
				C336.56,634.605,336.518,634.811,336.484,634.999z M336.763,635.517c-0.042-0.063-0.075-0.1-0.095-0.093
				c-0.022,0.006-0.029,0.042-0.029,0.097c-0.008,0-0.012,0-0.02,0c0.042-0.153,0.087-0.322,0.136-0.509
				c0.098-0.039,0.211-0.089,0.335-0.148c0.279-0.134,0.629-0.339,1.006-0.61l2.102,1.19
				C339.422,635.456,338.239,635.477,336.763,635.517z"/>
			<rect x="190.541" y="451.592" fill="#132038" width="7.426" height="205.764"/>
			<rect x="351.322" y="451.592" fill="#132038" width="7.426" height="205.764"/>
			<g>
				<g>
					<path fill="#8DB4D4" d="M196.707,639.606c0,0,29.885,12.931,29.885,16.954c0,1.787-60.056,0-60.918,0
						c-0.863,0,5.172-16.954,5.172-16.954H196.707z"/>
					<g>
						<path fill="#FFFFFF" d="M165.31,653.584c0.004-0.02,0.217-0.012,0.62,0.019c0.458,0.039,1.042,0.091,1.759,0.154
							c0.761,0.079,1.695,0.17,2.781,0.231c1.086,0.07,2.32,0.183,3.688,0.227c2.734,0.146,5.996,0.205,9.619,0.211
							c3.623-0.012,7.605-0.087,11.787-0.185c8.368-0.217,15.96-0.241,21.444,0.118c1.371,0.061,2.608,0.188,3.694,0.28
							c1.086,0.085,2.021,0.196,2.781,0.302c0.713,0.098,1.293,0.177,1.751,0.239c0.399,0.062,0.608,0.102,0.604,0.12
							c-0.002,0.018-0.215,0.014-0.618-0.015c-0.459-0.036-1.042-0.083-1.761-0.142c-0.763-0.073-1.694-0.154-2.783-0.211
							c-1.087-0.063-2.32-0.166-3.689-0.203c-5.474-0.262-13.045-0.179-21.413,0.037c-4.182,0.099-8.17,0.158-11.801,0.144
							c-3.628-0.032-6.897-0.13-9.637-0.324c-1.373-0.067-2.608-0.207-3.694-0.305c-1.086-0.091-2.019-0.211-2.777-0.322
							c-0.716-0.104-1.294-0.187-1.751-0.254C165.518,653.644,165.309,653.601,165.31,653.584z"/>
					</g>
					<g>
						<path fill="#FFFFFF" d="M205.124,650.541c-0.13-0.04,0.25-1.486,1.271-2.996c1.009-1.516,2.201-2.418,2.288-2.313
							c0.105,0.113-0.883,1.15-1.851,2.606C205.853,649.287,205.269,650.596,205.124,650.541z"/>
					</g>
					<g>
						<path fill="#FFFFFF" d="M201.639,649.166c-0.132-0.024,0.15-1.611,1.192-3.272c1.03-1.668,2.329-2.625,2.41-2.516
							c0.105,0.115-0.983,1.201-1.962,2.794C202.283,647.754,201.789,649.211,201.639,649.166z"/>
					</g>
					<g>
						<path fill="#FFFFFF" d="M197.72,647.709c-0.134-0.018,0.051-1.672,0.962-3.483c0.902-1.817,2.114-2.957,2.208-2.86
							c0.119,0.102-0.874,1.352-1.736,3.096C198.277,646.196,197.873,647.741,197.72,647.709z"/>
					</g>
					<g>
						<path fill="#FFFFFF" d="M200.816,642.108c-0.059-0.045,0.723-1.137,2.032-2.865c0.691-0.898,1.471-1.913,2.322-3.019
							c0.435-0.568,0.917-1.154,1.355-1.775c0.22-0.313,0.424-0.639,0.599-0.983c0.183-0.341,0.313-0.706,0.237-0.97
							c-0.066-0.228-0.322-0.26-0.632-0.065c-0.286,0.173-0.571,0.481-0.85,0.737c-0.551,0.533-1.045,1.091-1.481,1.645
							c-0.881,1.106-1.539,2.207-2.015,3.165c-0.957,1.925-1.245,3.248-1.339,3.222c-0.03-0.006,0.006-0.345,0.151-0.936
							c0.145-0.594,0.403-1.444,0.851-2.444c0.444-1.002,1.084-2.15,1.968-3.307c0.44-0.578,0.939-1.158,1.504-1.714
							c0.294-0.269,0.542-0.566,0.941-0.818c0.198-0.115,0.435-0.23,0.74-0.2c0.307,0.028,0.585,0.271,0.665,0.56
							c0.145,0.558-0.098,1.006-0.273,1.365c-0.19,0.373-0.413,0.718-0.644,1.041c-0.467,0.648-0.951,1.219-1.397,1.779
							c-0.883,1.081-1.693,2.071-2.409,2.949C201.757,641.145,200.872,642.154,200.816,642.108z"/>
					</g>
					<g>
						<path fill="#FFFFFF" d="M200.799,642.408c-0.086-0.021,0.188-1.134,0.33-2.958c0.068-0.911,0.096-2,0.017-3.203
							c-0.042-0.601-0.107-1.229-0.208-1.877c-0.049-0.324-0.111-0.652-0.175-0.983c-0.062-0.327-0.156-0.612-0.35-0.729
							c-0.204-0.121-0.341-0.066-0.49,0.19c-0.13,0.246-0.224,0.595-0.309,0.893c-0.166,0.617-0.245,1.238-0.252,1.83
							c-0.023,1.185,0.214,2.248,0.531,3.09c0.64,1.7,1.512,2.501,1.427,2.568c-0.021,0.019-0.256-0.152-0.601-0.546
							c-0.347-0.392-0.8-1.016-1.173-1.883c-0.377-0.863-0.667-1.976-0.67-3.233c-0.006-0.629,0.068-1.292,0.237-1.956
							c0.096-0.338,0.167-0.652,0.35-1.018c0.094-0.173,0.243-0.374,0.497-0.475c0.254-0.102,0.544-0.035,0.736,0.095
							c0.42,0.276,0.512,0.743,0.58,1.069c0.064,0.341,0.124,0.678,0.171,1.011c0.094,0.665,0.153,1.311,0.183,1.927
							c0.053,1.233-0.015,2.345-0.132,3.267c-0.117,0.925-0.283,1.661-0.422,2.16C200.94,642.148,200.831,642.416,200.799,642.408z"
							/>
					</g>
					<g>
						<path fill="#FFFFFF" d="M179.962,654.657c-0.089,0.004-0.111-0.925-0.467-2.351c-0.346-1.418-1.109-3.342-2.52-5.068
							c-1.414-1.729-3.146-2.856-4.468-3.48c-1.326-0.632-2.229-0.84-2.208-0.924c0.007-0.057,0.951,0.021,2.359,0.583
							c1.399,0.552,3.248,1.68,4.724,3.487c1.479,1.809,2.215,3.842,2.477,5.323C180.131,653.719,180.018,654.661,179.962,654.657z"
							/>
					</g>
					<g>
						<path fill="#FFFFFF" d="M207.913,654.785c-0.054,0.019-0.293-0.513-0.229-1.424c0.055-0.903,0.493-2.133,1.376-3.193
							c0.881-1.059,1.904-1.757,2.642-2.22c0.746-0.46,1.233-0.693,1.273-0.635c0.042,0.062-0.376,0.408-1.06,0.939
							c-0.676,0.535-1.625,1.26-2.448,2.25c-0.819,0.987-1.271,2.085-1.412,2.905C207.901,654.235,207.998,654.77,207.913,654.785z"
							/>
					</g>
					<g>
						
							<ellipse transform="matrix(-0.9983 0.0575 -0.0575 -0.9983 425.2034 1292.0911)" fill="#FFFFFF" cx="194.021" cy="652.16" rx="4.656" ry="0.264"/>
					</g>
				</g>
				<polygon fill="#90766D" points="207.915,606.524 196.707,639.606 170.846,639.606 176.844,606.524 				"/>
				<polygon fill="#FFFFFF" points="196.707,639.606 202.311,623.064 174.032,622.026 170.846,640.13 				"/>
				<polygon fill="#EE635B" points="201.209,626.316 173.462,625.268 173.132,626.804 200.788,627.564 				"/>
				<polygon fill="#EE635B" points="200.366,628.636 172.898,627.585 172.573,629.122 199.948,629.885 				"/>
				<polygon opacity="0.3" fill="#172D56" points="207.915,606.524 206.324,611.223 175.761,612.501 176.844,606.524 				"/>
				<path fill="#172D56" d="M108.623,485.74h115.429c0,0,27.369,3.57,19.636,32.131c-7.735,28.56-33.321,88.653-33.321,88.653
					h-37.482l17.849-68.424l-64.854-1.785L108.623,485.74z"/>
				<g>
					<g>
						
							<ellipse transform="matrix(0.3042 -0.9526 0.9526 0.3042 -447.3611 594.3149)" fill="#121E35" cx="183.148" cy="603.391" rx="2.024" ry="0.263"/>
					</g>
					<g>
						
							<ellipse transform="matrix(0.3042 -0.9526 0.9526 0.3042 -431.2485 588.9227)" fill="#121E35" cx="187.527" cy="589.675" rx="4.126" ry="0.263"/>
					</g>
					<g>
						
							<ellipse transform="matrix(0.3043 -0.9526 0.9526 0.3043 -412.7831 582.744)" fill="#121E35" cx="192.545" cy="573.956" rx="4.125" ry="0.264"/>
					</g>
					<g>
						
							<ellipse transform="matrix(0.3042 -0.9526 0.9526 0.3042 -394.316 576.6425)" fill="#121E35" cx="197.563" cy="558.237" rx="4.126" ry="0.264"/>
					</g>
					<g>
						
							<ellipse transform="matrix(0.3042 -0.9526 0.9526 0.3042 -375.8527 570.4654)" fill="#121E35" cx="202.581" cy="542.52" rx="4.125" ry="0.264"/>
					</g>
					<g>
						<path fill="#121E35" d="M208.361,522.752c0.166-0.012,0.209,1.921-0.512,4.122c-0.689,2.181-1.367,3.897-1.504,3.856
							c-0.139-0.044,0.314-1.844,1.002-4.011C208.048,524.567,208.233,522.756,208.361,522.752z"/>
					</g>
					<g>
						<path fill="#121E35" d="M195.104,517.764c-0.005-0.146,1.834-0.343,4.111-0.44c2.269-0.132,4.152,0.038,4.133,0.17
							c-0.019,0.158-1.831,0.226-4.113,0.357C196.961,517.946,195.112,517.909,195.104,517.764z"/>
					</g>
					<g>
						
							<ellipse transform="matrix(-0.9992 0.0393 -0.0393 -0.9992 385.6995 1028.9961)" fill="#121E35" cx="182.741" cy="518.287" rx="4.127" ry="0.264"/>
					</g>
					<g>
						
							<ellipse transform="matrix(-0.9998 0.0201 -0.0201 -0.9998 342.8953 1034.126)" fill="#121E35" cx="166.245" cy="518.788" rx="4.125" ry="0.264"/>
					</g>
					<g>
						
							<ellipse transform="matrix(-0.9999 -0.0123 0.0123 -0.9999 293.0939 1039.5425)" fill="#121E35" cx="149.746" cy="518.869" rx="4.125" ry="0.264"/>
					</g>
					<g>
						<path fill="#121E35" d="M129.144,517.969c0.013-0.145,1.864-0.139,4.135,0.014c2.271,0.154,4.105,0.396,4.097,0.54
							c-0.005,0.146-1.856,0.14-4.133-0.013C130.966,518.355,129.13,518.114,129.144,517.969z"/>
					</g>
					<g>
						<path fill="#121E35" d="M112.828,515.556c0.036-0.144,1.853,0.175,4.088,0.577c2.237,0.405,4.048,0.769,4.028,0.916
							c-0.019,0.141-1.872,0.011-4.122-0.397C114.569,516.246,112.792,515.694,112.828,515.556z"/>
					</g>
					<g>
						<path fill="#121E35" d="M101.468,511.063c0.086-0.119,0.875,0.311,1.843,0.838c0.964,0.531,1.744,0.992,1.685,1.128
							c-0.056,0.132-0.947-0.119-1.939-0.667C102.059,511.817,101.379,511.178,101.468,511.063z"/>
					</g>
				</g>
			</g>
			<rect x="32.999" y="342.075" fill="#419B8D" width="6.244" height="194.949"/>
			<path fill="#EEB659" d="M49.746,485.962l-3.762-88.067c0,0-6.656-37.552,4.472-44.21c11.129-6.66,28.254-13.653,28.254-13.653
				h29.036c0,0,19.17,14.59,23.08,18.588c3.911,3.995,6.886,127.658,6.886,127.658L49.746,485.962z"/>
			<path fill="#90766D" d="M77.043,318.783c0,0,22.554-0.857,26.482,0c3.928,0.858,9.426-1.442,11.27-4.825
				s1.964-43.803,1.964-43.803l-42.279-1.17L77.043,318.783z"/>
			<path fill="#90766D" d="M108.655,306.567v38.414c0,4.839-4.935,8.113-9.394,6.232l-22.406-9.445v-41.417L108.655,306.567z"/>
			<g>
				<path fill="#13203D" d="M92.378,289.48c0.316-0.014,0.591-0.68,0.495-1.574c-0.084-0.764-0.343-1.452-0.676-1.437
					c-0.314,0.014-0.591,0.68-0.494,1.574C91.787,288.807,92.045,289.495,92.378,289.48z"/>
			</g>
			<g>
				<path fill="#13203D" d="M111.165,289.48c0.316-0.014,0.591-0.68,0.495-1.574c-0.084-0.764-0.343-1.452-0.676-1.437
					c-0.314,0.014-0.589,0.68-0.494,1.574C110.576,288.807,110.832,289.495,111.165,289.48z"/>
			</g>
			<g>
				<path fill="#90766D" d="M77.663,298.596c0,0-6.81,0.473-6.81-4.72c0-5.193,6.235-4.768,6.235-4.768L77.663,298.596z"/>
				<g>
					<path fill="#67524C" d="M75.793,296.711c0.013,0.057-0.508,0.224-1.314-0.037c-0.394-0.135-0.848-0.382-1.231-0.799
						c-0.388-0.413-0.674-0.999-0.759-1.646c-0.083-0.647,0.042-1.288,0.313-1.786c0.265-0.502,0.642-0.856,0.988-1.086
						c0.716-0.456,1.262-0.423,1.264-0.366c0.021,0.083-0.469,0.189-1.042,0.666c-0.57,0.457-1.162,1.391-1,2.504
						c0.128,1.117,0.94,1.869,1.606,2.167C75.292,296.645,75.791,296.626,75.793,296.711z"/>
				</g>
				<g>
					<path fill="#67524C" d="M72.822,293.834c0.092-0.115,0.606,0.148,1.265,0.056c0.665-0.066,1.1-0.443,1.219-0.354
						c0.053,0.042,0.009,0.218-0.185,0.421c-0.19,0.204-0.544,0.405-0.97,0.457c-0.428,0.051-0.819-0.062-1.051-0.213
						C72.863,294.048,72.778,293.888,72.822,293.834z"/>
				</g>
			</g>
			<g>
				<path fill="#67524C" d="M98.005,300.113c0.015-0.037,0.277,0.062,0.742,0.211c0.448,0.133,1.202,0.344,1.891-0.086
					c0.751-0.398,0.448-1.578,0.44-2.729c-0.045-1.192-0.094-2.469-0.145-3.811c-0.088-2.704-0.137-5.154-0.146-6.928
					c-0.011-1.773,0.019-2.872,0.092-2.874c0.073-0.002,0.175,1.092,0.278,2.862c0.105,1.771,0.215,4.218,0.303,6.923
					c0.036,1.342,0.07,2.62,0.102,3.812c0.007,0.592,0.034,1.129,0.021,1.68c0.007,0.551-0.292,1.156-0.75,1.383
					c-0.908,0.486-1.727,0.146-2.158-0.04C98.218,300.302,97.992,300.144,98.005,300.113z"/>
			</g>
			<path fill="#13203D" d="M118.825,274.609c0,3.948-41.612-6.654-41.776,0.926L75.326,289.1l-1.183-23.312l44.877,3.966
				L118.825,274.609z"/>
			<g opacity="0.21">
				<path fill="#EE9580" d="M106.141,295.597c-0.015,1.267,1.456,2.311,3.267,2.517c1.815,0.2,3.481-0.492,3.751-1.73
					c0.267-1.229-1.166-2.583-3.235-2.813C107.856,293.336,106.156,294.339,106.141,295.597z"/>
			</g>
			<g opacity="0.21">
				<path fill="#EE9580" d="M81.679,294.755c-0.015,1.193,1.369,2.175,3.075,2.369c1.708,0.188,3.276-0.463,3.53-1.628
					c0.252-1.157-1.098-2.432-3.044-2.648C83.293,292.628,81.692,293.571,81.679,294.755z"/>
			</g>
			<path fill="#67524C" d="M108.655,319.134c0,0-6.003,2.778-14.047,2.365l14.047,1.299V319.134z"/>
			<g>
				<path fill="#13203D" d="M94.734,283.775c-0.243,0.705-2.44,0.569-5.005,0.732c-2.568,0.12-4.737,0.495-5.056-0.179
					c-0.139-0.327,0.267-0.877,1.145-1.397c0.872-0.52,2.224-0.969,3.766-1.055c1.542-0.084,2.936,0.215,3.858,0.635
					C94.371,282.931,94.837,283.434,94.734,283.775z"/>
			</g>
			<g>
				<path fill="#13203D" d="M115.11,284.706c-0.416,0.618-2.367,0.012-4.704-0.338c-2.331-0.399-4.373-0.434-4.574-1.152
					c-0.085-0.345,0.378-0.813,1.286-1.158c0.9-0.346,2.252-0.524,3.706-0.293c1.452,0.234,2.68,0.828,3.425,1.438
					C115.004,283.815,115.298,284.405,115.11,284.706z"/>
			</g>
			<polygon fill="#EEB659" points="131.14,359.229 149.007,397.176 135.343,433.414 			"/>
			<path fill="#EEB659" d="M57.594,352.283c0,0,18.805-4.167,19.999,28.371c1.394,37.959,1.482,45.636,1.482,45.636H37.271
				C37.271,426.29,31.025,351.336,57.594,352.283z"/>
			<polygon fill="#90766D" points="71.352,426.29 71.352,468.951 42.122,462.932 39.841,426.29 			"/>
			<polygon opacity="0.13" fill="#111C35" points="78.35,426.29 40.661,435.131 39.841,426.29 			"/>
			<g>
				<path fill="#CE9035" d="M51.023,354.31c0,0,1.06-0.696,3.248-1.307c2.165-0.565,5.573-0.964,9.484,0.254
					c1.946,0.586,3.967,1.631,5.804,3.179c1.822,1.561,3.396,3.644,4.58,6.058c1.202,2.408,1.994,5.139,2.512,8.001
					c0.535,2.863,0.787,5.867,0.945,8.938c0.506,12.278,0.887,23.385,1.158,31.431c0.121,3.984,0.219,7.227,0.287,9.525
					c0.022,1.089,0.04,1.953,0.051,2.592c0.005,0.591,0.001,0.903-0.017,0.903c-0.019,0-0.049-0.309-0.088-0.899
					c-0.038-0.639-0.087-1.501-0.151-2.588c-0.109-2.297-0.264-5.536-0.454-9.521c-0.337-8.081-0.8-19.167-1.313-31.417
					c-0.156-3.059-0.405-6.041-0.926-8.873c-0.505-2.83-1.275-5.517-2.44-7.88c-1.147-2.367-2.667-4.404-4.43-5.941
					c-1.773-1.518-3.733-2.557-5.631-3.151c-3.814-1.239-7.168-0.91-9.321-0.411C52.146,353.741,51.05,354.374,51.023,354.31z"/>
			</g>
			<g>
				<path fill="#CE9035" d="M135.343,442.397c-0.019,0.002-0.045-0.233-0.078-0.682c-0.03-0.503-0.069-1.152-0.119-1.96
					c-0.102-1.765-0.243-4.211-0.416-7.206c-0.397-6.139-0.938-14.515-1.537-23.768c-0.587-9.287-1.021-17.702-1.166-23.801
					c-0.084-3.049-0.096-5.517-0.079-7.223c0.017-0.811,0.03-1.462,0.04-1.964c0.015-0.448,0.032-0.684,0.051-0.684
					c0.019,0,0.038,0.235,0.057,0.684c0.015,0.502,0.034,1.153,0.059,1.962c0.045,1.704,0.115,4.169,0.247,7.212
					c0.239,6.089,0.73,14.495,1.318,23.78c0.589,9.282,1.115,17.688,1.382,23.781c0.141,3.045,0.218,5.514,0.25,7.218
					c0.007,0.81,0.015,1.461,0.019,1.964C135.369,442.162,135.361,442.397,135.343,442.397z"/>
			</g>
			<g>
				<path fill="#CE9035" d="M74.645,341.031c0.015-0.033,0.597,0.205,1.634,0.665c1.113,0.506,2.587,1.177,4.375,1.989
					c3.683,1.7,8.756,4.081,14.344,6.741c1.394,0.661,2.768,1.271,4.15,1.657c1.375,0.379,2.773,0.552,4.037,0.273
					c1.269-0.255,2.348-0.94,3.12-1.801c0.779-0.854,1.299-1.834,1.646-2.764c0.674-1.882,0.767-3.543,0.866-4.663
					c0.083-1.129,0.125-1.757,0.164-1.755c0.019,0,0.032,0.157,0.041,0.457c0.008,0.298,0.012,0.74,0,1.309
					c-0.04,1.129-0.069,2.809-0.721,4.778c-0.337,0.974-0.858,2.007-1.672,2.932c-0.802,0.927-1.972,1.694-3.342,1.98
					c-1.367,0.314-2.851,0.136-4.276-0.25c-1.435-0.394-2.837-1.013-4.239-1.678c-5.588-2.661-10.637-5.094-14.278-6.881
					c-1.757-0.874-3.208-1.595-4.303-2.14C75.179,341.364,74.627,341.063,74.645,341.031z"/>
			</g>
			<g>
				<path fill="#CE9035" d="M104.817,390.069c0.004,0.013-0.121,0.051-0.361,0.117c-0.243,0.062-0.601,0.161-1.073,0.263
					c-0.945,0.206-2.345,0.466-4.145,0.643c-3.58,0.353-8.854,0.324-14.812-1.454l0.297-0.233c0.181,2.854,0.376,5.947,0.583,9.22
					c0.102,1.636,0.208,3.317,0.313,5.035c0.137,1.711,0.105,3.496,0.57,5.161c0.35,1.295,1.158,2.392,2.269,3.069
					c1.1,0.696,2.38,1.031,3.649,1.135c1.274,0.107,2.547,0.016,3.796-0.084c1.249-0.102,2.463-0.225,3.597-0.531
					c1.129-0.3,2.188-0.797,2.926-1.589c0.757-0.784,1.083-1.836,1.217-2.866c0.205-2.087,0.222-4.105,0.333-5.907
					c0.183-3.585,0.333-6.504,0.439-8.586c0.062-0.974,0.111-1.75,0.147-2.333c0.04-0.533,0.069-0.812,0.086-0.812
					c0.019,0.002,0.024,0.282,0.019,0.816c-0.012,0.582-0.026,1.361-0.047,2.337c-0.066,2.083-0.158,5.005-0.273,8.593
					c-0.088,1.82-0.077,3.786-0.271,5.948c-0.126,1.069-0.473,2.244-1.309,3.125c-0.817,0.888-1.964,1.422-3.139,1.742
					c-1.185,0.327-2.429,0.456-3.683,0.563c-1.252,0.105-2.55,0.207-3.881,0.098c-1.324-0.105-2.696-0.454-3.887-1.205
					c-1.205-0.727-2.127-1.979-2.495-3.367c-0.495-1.791-0.448-3.568-0.586-5.276c-0.102-1.717-0.201-3.398-0.299-5.036
					c-0.188-3.273-0.369-6.369-0.535-9.222l-0.019-0.329l0.316,0.096c5.871,1.799,11.091,1.895,14.654,1.623
					c1.791-0.136,3.189-0.352,4.139-0.512c0.442-0.079,0.8-0.144,1.086-0.196C104.688,390.073,104.815,390.058,104.817,390.069z"/>
			</g>
			<g>
				<path fill="#CE9035" d="M84.333,394.364c0.049-0.083,1.058,0.517,2.811,1.175c1.748,0.665,4.282,1.304,7.135,1.369
					c2.856,0.053,5.414-0.481,7.188-1.073c1.779-0.587,2.813-1.143,2.858-1.059c0.017,0.032-0.228,0.194-0.689,0.46
					c-0.456,0.274-1.156,0.606-2.045,0.951c-1.773,0.692-4.393,1.303-7.321,1.248c-2.928-0.065-5.519-0.783-7.263-1.55
					c-0.875-0.38-1.561-0.74-2.005-1.033C84.551,394.567,84.313,394.396,84.333,394.364z"/>
			</g>
			<g>
				
					<ellipse transform="matrix(-0.9993 0.0362 -0.0362 -0.9993 130.4856 835.7863)" fill="#CE9035" cx="57.668" cy="419.076" rx="21.276" ry="0.262"/>
			</g>
			<g>
				<path fill="#CE9035" d="M133.689,414.772c-0.034-0.01,0.038-0.387,0.196-1.057c0.156-0.672,0.414-1.638,0.757-2.822
					c0.695-2.365,1.762-5.621,3.382-9.037c1.627-3.415,3.527-6.279,5.016-8.249c0.751-0.981,1.378-1.759,1.84-2.272
					c0.456-0.52,0.719-0.797,0.748-0.772c0.066,0.055-0.874,1.252-2.284,3.266c-1.405,2.013-3.233,4.877-4.843,8.255
					c-1.604,3.38-2.719,6.592-3.502,8.921c-0.358,1.081-0.663,2.004-0.915,2.769C133.862,414.426,133.725,414.781,133.689,414.772z"
					/>
			</g>
			<path fill="#F4F4F4" d="M88.987,300.229c4.201,2.006,8.588,3.62,13.086,4.813c0,0-2.199,3.514-8.469,1.789
				C87.334,305.105,88.987,300.229,88.987,300.229z"/>
			<path fill="#172D56" d="M91.9,536.315c0,0-49.406,4.05-41.244-50.575h31.115L91.9,536.315z"/>
			<path fill="#F6D473" d="M569.107,347.623h-58.786l15.783-56.255c2.628,0.956,5.279,1.923,7.663,3.525
				c2.385,1.601,4.512,3.91,5.54,6.874c0.866,2.491,0.904,5.246,1.296,7.893s1.28,5.428,3.246,6.846
				c2.572,1.857,6.354,0.927,8.443,3.469c2.342,2.845,0.949,8.171,3.408,10.879c2.128,2.34,5.69,1.198,8.364,2.585
				c2.09,1.084,3.386,3.644,3.826,6.251c0.437,2.608,0.15,5.297-0.14,7.933"/>
			<g>
				<path fill="#F2B59D" d="M487.85,332.864c0,0-7.381,0.512-7.381-5.115c0-5.628,6.756-5.167,6.756-5.167L487.85,332.864z"/>
				<g>
					<path fill="#E78472" d="M485.819,330.822c0.016,0.055-0.55,0.23-1.416-0.056c-0.425-0.146-0.911-0.415-1.325-0.864
						c-0.418-0.445-0.723-1.077-0.817-1.774c-0.09-0.697,0.045-1.387,0.335-1.923c0.286-0.541,0.689-0.924,1.063-1.172
						c0.771-0.495,1.359-0.467,1.359-0.41c0.022,0.083-0.509,0.194-1.138,0.71c-0.621,0.492-1.272,1.513-1.096,2.728
						c0.14,1.219,1.032,2.041,1.759,2.36C485.277,330.762,485.819,330.735,485.819,330.822z"/>
				</g>
				<g>
					<path fill="#E78472" d="M482.6,327.705c0.095-0.117,0.651,0.183,1.375,0.082c0.73-0.073,1.201-0.496,1.317-0.406
						c0.053,0.041,0,0.228-0.21,0.443c-0.204,0.216-0.584,0.431-1.044,0.485c-0.459,0.054-0.877-0.064-1.13-0.224
						C482.652,327.926,482.559,327.758,482.6,327.705z"/>
				</g>
			</g>
			<path fill="#F2B59D" d="M528.85,348.988c0,0-24.385,0.595-28.7,0c-5.683-0.783-8.975-1.968-10.809-5.72
				c-3.156-6.455-3.536-46.985-3.536-46.985l37.407-1.036c3.292-0.091,6.007,2.565,5.98,5.86L528.85,348.988z"/>
			<polygon fill="#F2B59D" points="498.206,334.602 498.206,371.957 529.185,371.957 529.072,326.274 			"/>
			<g>
				<path fill="#E78472" d="M499.196,332.052c0.079-0.062,0.606,0.805,1.898,1.682c1.25,0.872,3.415,1.675,5.731,1.206
					c2.316-0.489,3.977-2.091,4.775-3.393c0.828-1.321,0.957-2.327,1.055-2.301c0.033,0.005,0.03,0.255-0.057,0.7
					c-0.083,0.444-0.286,1.076-0.678,1.792c-0.754,1.415-2.482,3.188-4.99,3.719c-2.508,0.507-4.798-0.425-6.056-1.419
					c-0.644-0.498-1.088-0.995-1.345-1.366C499.275,332.298,499.17,332.069,499.196,332.052z"/>
			</g>
			<g>
				<path fill="#13203D" d="M513.673,320.061c-0.343-0.015-0.641-0.737-0.538-1.706c0.094-0.828,0.372-1.574,0.73-1.557
					c0.343,0.015,0.64,0.737,0.538,1.706C514.31,319.331,514.03,320.078,513.673,320.061z"/>
			</g>
			<g>
				<path fill="#13203D" d="M494.368,320.556c-0.343-0.015-0.64-0.737-0.534-1.707c0.09-0.828,0.369-1.573,0.73-1.557
					c0.343,0.015,0.64,0.737,0.534,1.707C495.009,319.826,494.73,320.572,494.368,320.556z"/>
			</g>
			<g opacity="0.63">
				<path fill="#EE9580" d="M497.634,326.806c0.015,1.374-1.578,2.504-3.544,2.728c-1.966,0.217-3.77-0.534-4.063-1.875
					c-0.29-1.333,1.266-2.8,3.506-3.049C495.773,324.356,497.618,325.442,497.634,326.806z"/>
			</g>
			<g opacity="0.63">
				<path fill="#EE9580" d="M522.971,324.322c0.016,1.292-1.483,2.357-3.333,2.567c-1.849,0.204-3.551-0.502-3.826-1.766
					c-0.274-1.255,1.19-2.636,3.3-2.871C521.22,322.016,522.956,323.039,522.971,324.322z"/>
			</g>
			<path fill="#E78472" d="M498.206,348.684c0,0,6.225,2.489,14.718,0.465l-14.714,4.152L498.206,348.684z"/>
			<path fill="#F4F4F4" d="M496.775,367.776c-3.408,0.223-6.67,1.452-9.359,3.554c-7.58,5.924-2.65,7.275-6.947,37.829
				c-1.428,10.147-3.254,23.289-4.015,39.499c-0.693,14.891-3.608,43.708-3.608,43.708h91.901l-4.526-98.913
				c0-16.872-10.319-22.354-19.452-24.788c-5.227-1.393-12.013-2.406-20.701-2.406L496.775,367.776z"/>
			<g opacity="0.52">
				<path fill="#EE9580" d="M511.157,334.181c0.207,0.93-1.111,2.019-2.945,2.431c-1.838,0.412-3.494-0.008-3.705-0.938
					c-0.208-0.93,1.11-2.019,2.948-2.431C509.289,332.831,510.95,333.25,511.157,334.181z"/>
			</g>
			<path fill="#F2B59D" d="M484.46,304.592"/>
			<path fill="#F6D473" d="M507.244,290.932c5.954,7.096,14.16,22.389,23.425,22.334c0.753-0.005,3.389-8.474,3.63-9.187
				c0.874-2.548,0.068-4.213-0.188-5.121c-1.442-5.106-6.699-8.387-11.953-9.128c-5.253-0.742-10.556,0.554-15.704,1.84"/>
			<g>
				<path fill="#F2B59D" d="M530.107,330.948c0,0,7.396-0.178,6.873-5.781c-0.523-5.603-7.212-4.514-7.212-4.514L530.107,330.948z"
					/>
				<g>
					<path fill="#E78472" d="M531.938,328.727c-0.007-0.087,0.535-0.11,1.235-0.519c0.693-0.386,1.503-1.286,1.529-2.514
						c0.063-1.227-0.678-2.182-1.345-2.615c-0.674-0.455-1.213-0.515-1.197-0.6c-0.008-0.057,0.576-0.14,1.39,0.281
						c0.396,0.213,0.832,0.557,1.167,1.068c0.339,0.508,0.539,1.182,0.513,1.885c-0.026,0.701-0.271,1.359-0.648,1.841
						c-0.368,0.486-0.828,0.799-1.238,0.984C532.507,328.904,531.927,328.782,531.938,328.727z"/>
				</g>
				<g>
					<path fill="#E78472" d="M534.853,325.322c0.049,0.049-0.03,0.226-0.271,0.409c-0.233,0.183-0.644,0.34-1.103,0.329
						c-0.464-0.013-0.859-0.191-1.085-0.386c-0.229-0.195-0.302-0.377-0.253-0.423c0.109-0.101,0.618,0.277,1.353,0.281
						C534.224,325.566,534.751,325.216,534.853,325.322z"/>
				</g>
			</g>
			<g>
				<path fill="#F6D473" d="M499.596,313.693c-0.136,0.28-2.347-0.743-5.205-0.474c-2.861,0.207-4.873,1.58-5.05,1.327
					c-0.083-0.105,0.316-0.608,1.183-1.158c0.854-0.549,2.211-1.085,3.781-1.219c1.57-0.127,2.997,0.178,3.932,0.578
					C499.182,313.146,499.659,313.577,499.596,313.693z"/>
			</g>
			<g>
				<path fill="#F6D473" d="M520.576,312.841c-0.136,0.279-2.347-0.743-5.205-0.475c-2.862,0.207-4.873,1.58-5.05,1.327
					c-0.083-0.105,0.316-0.608,1.183-1.158c0.854-0.549,2.21-1.085,3.781-1.218c1.57-0.128,2.997,0.177,3.935,0.577
					C520.161,312.292,520.64,312.724,520.576,312.841z"/>
			</g>
			<g>
				<path fill="#E78472" d="M503.757,327.814c-0.004,0.027-0.226,0.042-0.637-0.012c-0.406-0.055-0.997-0.183-1.694-0.484
					c-0.343-0.168-0.723-0.305-1.1-0.65c-0.166-0.164-0.38-0.443-0.282-0.807c0.094-0.362,0.481-0.514,0.745-0.536
					c1.077-0.02,2.144,0.067,3.355,0.109l-0.267,0.25c-0.012-0.871-0.023-1.791-0.034-2.742c-0.026-3.051-0.022-5.814,0.008-7.814
					c0.029-2.001,0.082-3.242,0.154-3.244c0.075-0.002,0.15,1.232,0.218,3.234c0.064,2.001,0.121,4.77,0.147,7.828
					c0.004,0.952,0.011,1.875,0.015,2.746v0.265l-0.268-0.014c-1.179-0.058-2.35-0.165-3.276-0.181
					c-0.463,0.031-0.527,0.339-0.237,0.634c0.261,0.27,0.652,0.457,0.961,0.627C502.868,327.671,503.772,327.734,503.757,327.814z"
					/>
			</g>
			<g>
				<path fill="#F6D473" d="M514.592,286.228c0.185,0.237-0.919,1.37-2.146,2.837c-1.239,1.46-2.166,2.739-2.43,2.599
					c-0.256-0.125,0.302-1.715,1.624-3.277C512.953,286.819,514.426,286,514.592,286.228z"/>
			</g>
			<g>
				<path fill="#F6D473" d="M510.016,284.617c0.294,0.002,0.517,1.427,0.682,3.17c0.166,1.744,0.215,3.183-0.075,3.242
					c-0.278,0.058-0.802-1.337-0.972-3.142C509.478,286.082,509.727,284.613,510.016,284.617z"/>
			</g>
			<path fill="#F4F4F4" d="M529.46,371.957h-31.917c-1.209,0-2.188-0.979-2.188-2.188v-9.949c0-1.207,0.979-2.187,2.188-2.187
				h31.917c1.209,0,2.188,0.979,2.188,2.187v9.949C531.647,370.978,530.669,371.957,529.46,371.957z"/>
			<path fill="#F6D473" d="M484.799,312.323c0,0,24.66-2.483,26.799-17.078c0,0,0.087-8.847-10.168-9.018
				c-10.251-0.17-19.229,5.379-19.12,17.519C482.415,315.886,484.799,312.323,484.799,312.323z"/>
			<path fill="#F4F4F4" d="M428.509,450.873c34.056,10.138,75.975-1.098,106.468-23.387c4.99-3.647,10.417-6.853,14.27-11.686
				c3.849-4.834,6.334-11.001,5.729-17.15c-0.606-6.152-4.734-12.101-10.666-13.833c-5.829-1.7-12.164,0.805-16.894,4.611
				c-4.73,3.808-8.308,8.824-12.462,13.253c-12.318,13.138-29.661,20.882-47.433,23.78c-17.775,2.896-21.959,3.593-39.614,0.045
				L428.509,450.873z"/>
			<path fill="#F4F4F4" d="M485.292,373.223c0,0-46.618,46.622-51.484,38.781c-4.865-7.843-25.04-49.33-25.04-49.33l-29.449,15.069
				c0,0,29.672,78.029,54.298,74.8c24.625-3.229,52.188-36.236,52.188-36.236L485.292,373.223z"/>
			<g opacity="0.7">
				<path fill="#132038" d="M174.098,637.004c0.102-0.282,0.26-0.595,0.552-0.665c0.247-0.06,0.504,0.089,0.651,0.294
					c0.147,0.207,0.204,0.462,0.254,0.71c0.501,2.505,0.521,5.102,0.077,7.615C173.765,642.828,173.134,639.672,174.098,637.004z"/>
				<path fill="#132038" d="M108.623,485.74h115.429c0,0,27.369,3.57,19.636,32.131c-7.735,28.56-33.319,88.653-33.319,88.653
					h-2.454l-1.591,4.698l0,0l-4.013,11.842l-1.102,3.252l0,0l-0.422,1.248l0,0l-4.081,12.042c0,0,1.636,0.708,4.125,1.836
					c0.021-0.024,0.038-0.053,0.059-0.077l-0.042,0.084c0.04,0.02,0.079,0.036,0.119,0.055l0.075-0.305
					c0.013-0.051,0.03-0.1,0.043-0.15c0.006-0.028,0.009-0.057,0.013-0.083c0.004,0.002,0.006,0.006,0.007,0.008
					c0.833-3.258,2.638-6.261,5.141-8.51c0.324-0.292,0.802-0.582,1.16-0.333c0.348,0.243,0.26,0.781,0.086,1.169
					c-0.382,0.861-0.973,1.608-1.557,2.345c-1.576,1.99-3.152,3.979-4.728,5.969c1.173,0.533,2.52,1.152,3.967,1.832
					c0.022-0.022,0.042-0.047,0.064-0.067l-0.047,0.075c8.835,4.146,21.398,10.498,21.398,13.107c0,1.787-60.056,0-60.918,0
					c-0.226,0,0.022-1.164,0.508-2.875c-0.29-0.038-0.582-0.064-0.872-0.102l0.895,0.024c1.386-4.856,4.642-14.002,4.642-14.002
					l1.9-10.479l-0.173-0.005l0.326-1.537l0.126,0.006l0.141-0.787h-0.034v-1.156l2.628-13.146l0,0l1.083-5.977h-3.962
					l17.851-68.424l-64.854-1.785L108.623,485.74z"/>
			</g>
			<g>
				<g>
					<path fill="#8DB4D4" d="M162.73,639.606c0,0,29.885,12.931,29.885,16.954c0,1.787-60.058,0-60.92,0s5.172-16.954,5.172-16.954
						H162.73z"/>
					<g>
						<path fill="#FFFFFF" d="M131.333,653.584c0.002-0.02,0.215-0.012,0.618,0.019c0.459,0.039,1.042,0.091,1.759,0.154
							c0.763,0.079,1.695,0.17,2.781,0.231c1.086,0.07,2.32,0.183,3.688,0.227c2.736,0.146,5.998,0.205,9.619,0.211
							c3.623-0.012,7.605-0.087,11.788-0.185c8.368-0.217,15.96-0.241,21.443,0.118c1.371,0.061,2.608,0.188,3.694,0.28
							c1.088,0.085,2.021,0.196,2.781,0.302c0.713,0.098,1.293,0.177,1.751,0.239c0.399,0.062,0.608,0.102,0.606,0.12
							c-0.004,0.018-0.217,0.014-0.62-0.015c-0.459-0.036-1.042-0.083-1.759-0.142c-0.763-0.073-1.696-0.154-2.783-0.211
							c-1.087-0.063-2.322-0.166-3.691-0.203c-5.474-0.262-13.043-0.179-21.412,0.037c-4.184,0.099-8.172,0.158-11.8,0.144
							c-3.63-0.032-6.899-0.13-9.639-0.324c-1.371-0.067-2.608-0.207-3.692-0.305c-1.088-0.091-2.019-0.211-2.779-0.322
							c-0.714-0.104-1.294-0.187-1.75-0.254C131.539,653.644,131.33,653.601,131.333,653.584z"/>
					</g>
					<g>
						<path fill="#FFFFFF" d="M171.146,650.541c-0.13-0.04,0.252-1.486,1.271-2.996c1.011-1.516,2.201-2.418,2.29-2.313
							c0.104,0.113-0.885,1.15-1.853,2.606C171.876,649.287,171.291,650.596,171.146,650.541z"/>
					</g>
					<g>
						<path fill="#FFFFFF" d="M167.662,649.166c-0.134-0.024,0.15-1.611,1.19-3.272c1.03-1.668,2.329-2.625,2.41-2.516
							c0.105,0.115-0.981,1.201-1.962,2.794C168.306,647.754,167.811,649.211,167.662,649.166z"/>
					</g>
					<g>
						<path fill="#FFFFFF" d="M163.742,647.709c-0.134-0.018,0.051-1.672,0.962-3.483c0.902-1.817,2.116-2.957,2.21-2.86
							c0.117,0.102-0.875,1.352-1.738,3.096C164.299,646.196,163.894,647.741,163.742,647.709z"/>
					</g>
					<g>
						<path fill="#FFFFFF" d="M166.837,642.108c-0.057-0.045,0.725-1.137,2.034-2.865c0.689-0.898,1.471-1.913,2.32-3.019
							c0.435-0.568,0.917-1.154,1.355-1.775c0.22-0.313,0.426-0.639,0.601-0.983c0.181-0.341,0.311-0.706,0.235-0.97
							c-0.066-0.228-0.32-0.26-0.631-0.065c-0.288,0.173-0.571,0.481-0.851,0.737c-0.552,0.533-1.043,1.091-1.482,1.645
							c-0.879,1.106-1.537,2.207-2.015,3.165c-0.957,1.925-1.245,3.248-1.337,3.222c-0.03-0.006,0.004-0.345,0.151-0.936
							c0.143-0.594,0.401-1.444,0.849-2.444c0.444-1.002,1.084-2.15,1.968-3.307c0.44-0.578,0.941-1.158,1.504-1.714
							c0.294-0.269,0.544-0.566,0.941-0.818c0.198-0.115,0.437-0.23,0.742-0.2c0.305,0.028,0.583,0.271,0.665,0.56
							c0.143,0.558-0.098,1.006-0.273,1.365c-0.192,0.373-0.415,0.718-0.646,1.041c-0.467,0.648-0.951,1.219-1.397,1.779
							c-0.881,1.081-1.691,2.071-2.409,2.949C167.779,641.145,166.894,642.154,166.837,642.108z"/>
					</g>
					<g>
						<path fill="#FFFFFF" d="M166.82,642.408c-0.084-0.021,0.188-1.134,0.33-2.958c0.07-0.911,0.098-2,0.017-3.203
							c-0.042-0.601-0.107-1.229-0.207-1.877c-0.049-0.324-0.111-0.652-0.175-0.983c-0.062-0.327-0.154-0.612-0.35-0.729
							c-0.204-0.121-0.341-0.066-0.49,0.19c-0.13,0.246-0.222,0.595-0.309,0.893c-0.166,0.617-0.245,1.238-0.252,1.83
							c-0.023,1.185,0.214,2.248,0.531,3.09c0.64,1.7,1.512,2.501,1.427,2.568c-0.021,0.019-0.256-0.152-0.601-0.546
							c-0.346-0.392-0.798-1.016-1.171-1.883c-0.379-0.863-0.668-1.976-0.672-3.233c-0.006-0.629,0.068-1.292,0.239-1.956
							c0.096-0.338,0.166-0.652,0.348-1.018c0.096-0.173,0.243-0.374,0.497-0.475c0.254-0.102,0.544-0.035,0.736,0.095
							c0.422,0.276,0.512,0.743,0.58,1.069c0.064,0.341,0.124,0.678,0.171,1.011c0.096,0.665,0.152,1.311,0.183,1.927
							c0.054,1.233-0.015,2.345-0.132,3.267c-0.117,0.925-0.283,1.661-0.422,2.16C166.961,642.148,166.854,642.416,166.82,642.408z"
							/>
					</g>
					<g>
						<path fill="#FFFFFF" d="M145.983,654.657c-0.089,0.004-0.111-0.925-0.467-2.351c-0.346-1.418-1.107-3.342-2.519-5.068
							c-1.413-1.729-3.146-2.856-4.467-3.48c-1.327-0.632-2.231-0.84-2.21-0.924c0.009-0.057,0.953,0.021,2.361,0.583
							c1.399,0.552,3.246,1.68,4.724,3.487c1.477,1.809,2.213,3.842,2.477,5.323C146.153,653.719,146.04,654.661,145.983,654.657z"
							/>
					</g>
					<g>
						<path fill="#FFFFFF" d="M173.934,654.785c-0.054,0.019-0.292-0.513-0.228-1.424c0.053-0.903,0.491-2.133,1.375-3.193
							c0.881-1.059,1.904-1.757,2.642-2.22c0.746-0.46,1.235-0.693,1.273-0.635c0.043,0.062-0.376,0.408-1.058,0.939
							c-0.678,0.535-1.627,1.26-2.45,2.25c-0.819,0.987-1.271,2.085-1.412,2.905C173.923,654.235,174.019,654.77,173.934,654.785z"
							/>
					</g>
					<g>
						
							<ellipse transform="matrix(-0.9983 0.0575 -0.0575 -0.9983 357.3012 1294.0447)" fill="#FFFFFF" cx="160.043" cy="652.16" rx="4.656" ry="0.264"/>
					</g>
				</g>
				<polygon fill="#90766D" points="173.936,606.524 162.73,639.606 136.868,639.606 142.865,606.524 				"/>
				<polygon fill="#FFFFFF" points="162.73,639.606 168.333,623.064 140.056,622.026 136.868,640.13 				"/>
				<polygon fill="#EE635B" points="167.233,626.316 139.485,625.268 139.156,626.804 166.809,627.564 				"/>
				<polygon fill="#EE635B" points="166.389,628.636 138.92,627.585 138.594,629.122 165.969,629.885 				"/>
				<polygon opacity="0.3" fill="#172D56" points="173.936,606.524 172.345,611.223 141.782,612.501 142.865,606.524 				"/>
				<path fill="#172D56" d="M74.646,485.74h115.427c0,0,27.371,3.57,19.636,32.131c-7.735,28.56-33.319,88.653-33.319,88.653
					h-37.484l17.849-68.424L91.9,536.315L74.646,485.74z"/>
				<g>
					<g>
						
							<ellipse transform="matrix(0.3042 -0.9526 0.9526 0.3042 -471.0037 561.9465)" fill="#121E35" cx="149.169" cy="603.391" rx="2.024" ry="0.265"/>
					</g>
					<g>
						
							<ellipse transform="matrix(0.304 -0.9527 0.9527 0.304 -454.8969 556.6929)" fill="#121E35" cx="153.549" cy="589.675" rx="4.125" ry="0.262"/>
					</g>
					<g>
						
							<ellipse transform="matrix(0.304 -0.9527 0.9527 0.304 -436.4282 550.5115)" fill="#121E35" cx="158.567" cy="573.956" rx="4.125" ry="0.263"/>
					</g>
					<g>
						
							<ellipse transform="matrix(0.3042 -0.9526 0.9526 0.3042 -417.9594 544.2739)" fill="#121E35" cx="163.584" cy="558.237" rx="4.126" ry="0.264"/>
					</g>
					<g>
						
							<ellipse transform="matrix(0.3042 -0.9526 0.9526 0.3042 -399.4949 538.0972)" fill="#121E35" cx="168.603" cy="542.52" rx="4.125" ry="0.264"/>
					</g>
					<g>
						<path fill="#121E35" d="M174.382,522.752c0.166-0.012,0.209,1.921-0.51,4.122c-0.691,2.181-1.367,3.897-1.506,3.856
							c-0.139-0.044,0.314-1.844,1.002-4.011C174.07,524.567,174.254,522.756,174.382,522.752z"/>
					</g>
					<g>
						<path fill="#121E35" d="M161.128,517.764c-0.007-0.146,1.833-0.343,4.109-0.44c2.271-0.132,4.152,0.038,4.133,0.17
							c-0.017,0.158-1.831,0.226-4.111,0.357C162.985,517.946,161.134,517.909,161.128,517.764z"/>
					</g>
					<g>
						
							<ellipse transform="matrix(-0.9992 0.0393 -0.0393 -0.9992 317.7687 1030.3308)" fill="#121E35" cx="148.762" cy="518.287" rx="4.127" ry="0.264"/>
					</g>
					<g>
						
							<ellipse transform="matrix(-0.9998 0.0201 -0.0201 -0.9998 274.9451 1034.8098)" fill="#121E35" cx="132.267" cy="518.788" rx="4.125" ry="0.264"/>
					</g>
					<g>
						
							<ellipse transform="matrix(-0.9999 -0.0123 0.0123 -0.9999 225.1394 1039.124)" fill="#121E35" cx="115.768" cy="518.869" rx="4.125" ry="0.264"/>
					</g>
					<g>
						<path fill="#121E35" d="M95.167,517.969c0.011-0.145,1.864-0.139,4.133,0.014c2.271,0.154,4.105,0.396,4.099,0.54
							c-0.007,0.146-1.858,0.14-4.135-0.013C96.988,518.355,95.154,518.114,95.167,517.969z"/>
					</g>
					<g>
						<path fill="#121E35" d="M78.849,515.556c0.036-0.144,1.853,0.175,4.088,0.577c2.237,0.405,4.048,0.769,4.028,0.916
							c-0.019,0.141-1.87,0.011-4.122-0.397C80.593,516.246,78.815,515.694,78.849,515.556z"/>
					</g>
					<g>
						<path fill="#121E35" d="M67.489,511.063c0.087-0.119,0.876,0.311,1.843,0.838c0.965,0.531,1.745,0.992,1.686,1.128
							c-0.056,0.132-0.946-0.119-1.939-0.667C68.082,511.817,67.402,511.178,67.489,511.063z"/>
					</g>
				</g>
			</g>
			<rect x="32.999" y="537.023" fill="#419B8D" width="122.008" height="6.508"/>
			<rect x="32.999" y="540.277" fill="#419B8D" width="6.656" height="115.023"/>
			<rect x="148.893" y="540.277" fill="#419B8D" width="6.656" height="115.023"/>
			<rect x="571.217" y="346.974" fill="#419B8D" width="6.244" height="194.947"/>
			<path fill="#EE635B" d="M518.558,541.213c0,0,49.405,4.05,41.244-50.573h-31.114L518.558,541.213z"/>
			<g>
				<g>
					<path fill="#172D56" d="M447.73,644.504c0,0-29.887,12.933-29.887,16.954c0,1.789,60.056,0,60.919,0
						c0.862,0-5.171-16.954-5.171-16.954H447.73z"/>
					<g>
						<path fill="#FFFFFF" d="M479.128,658.481c0,0.017-0.207,0.061-0.606,0.124c-0.456,0.066-1.036,0.15-1.751,0.254
							c-0.758,0.111-1.691,0.23-2.779,0.32c-1.085,0.1-2.32,0.237-3.691,0.306c-2.741,0.195-6.01,0.291-9.637,0.323
							c-3.631,0.016-7.618-0.045-11.803-0.143c-8.368-0.217-15.938-0.3-21.413-0.036c-1.367,0.036-2.603,0.14-3.69,0.201
							c-1.085,0.057-2.019,0.14-2.779,0.211c-0.72,0.059-1.304,0.105-1.763,0.144c-0.403,0.026-0.614,0.032-0.618,0.013
							c-0.003-0.017,0.208-0.058,0.606-0.118c0.456-0.064,1.036-0.144,1.752-0.241c0.761-0.105,1.694-0.217,2.779-0.301
							c1.088-0.091,2.323-0.221,3.694-0.281c5.482-0.359,13.075-0.335,21.443-0.118c4.184,0.098,8.164,0.173,11.787,0.185
							c3.623-0.004,6.884-0.063,9.618-0.209c1.371-0.046,2.603-0.156,3.69-0.229c1.085-0.062,2.019-0.15,2.779-0.231
							c0.72-0.062,1.304-0.114,1.759-0.154C478.909,658.47,479.124,658.463,479.128,658.481z"/>
					</g>
					<g>
						<path fill="#FFFFFF" d="M439.313,655.438c-0.146,0.055-0.73-1.254-1.71-2.702c-0.968-1.455-1.954-2.493-1.849-2.606
							c0.087-0.105,1.276,0.797,2.286,2.313C439.062,653.955,439.441,655.398,439.313,655.438z"/>
					</g>
					<g>
						<path fill="#FFFFFF" d="M442.797,654.065c-0.15,0.044-0.644-1.414-1.638-2.995c-0.983-1.594-2.067-2.68-1.962-2.795
							c0.079-0.107,1.378,0.848,2.41,2.516C442.646,652.452,442.929,654.039,442.797,654.065z"/>
					</g>
					<g>
						<path fill="#FFFFFF" d="M446.718,652.606c-0.154,0.032-0.558-1.512-1.435-3.248c-0.863-1.742-1.857-2.994-1.74-3.096
							c0.098-0.096,1.311,1.043,2.211,2.86C446.665,650.935,446.85,652.59,446.718,652.606z"/>
					</g>
					<g>
						<path fill="#FFFFFF" d="M443.622,647.007c-0.057,0.045-0.941-0.965-2.327-2.635c-0.716-0.878-1.525-1.868-2.406-2.948
							c-0.448-0.562-0.931-1.132-1.397-1.778c-0.233-0.323-0.456-0.67-0.647-1.043c-0.174-0.357-0.415-0.808-0.271-1.365
							c0.079-0.288,0.357-0.531,0.663-0.56c0.305-0.027,0.546,0.085,0.741,0.2c0.399,0.254,0.648,0.55,0.941,0.819
							c0.565,0.557,1.066,1.135,1.507,1.715c0.881,1.154,1.521,2.305,1.966,3.305c0.448,1,0.708,1.852,0.851,2.444
							c0.147,0.593,0.182,0.931,0.151,0.938c-0.095,0.024-0.381-1.297-1.337-3.222c-0.479-0.96-1.138-2.06-2.015-3.167
							c-0.438-0.554-0.931-1.111-1.484-1.644c-0.278-0.257-0.561-0.565-0.848-0.738c-0.313-0.194-0.568-0.162-0.632,0.065
							c-0.076,0.266,0.053,0.629,0.233,0.972c0.177,0.343,0.38,0.671,0.603,0.981c0.437,0.623,0.919,1.207,1.355,1.775
							c0.848,1.105,1.631,2.12,2.319,3.021C442.898,645.871,443.679,646.961,443.622,647.007z"/>
					</g>
					<g>
						<path fill="#FFFFFF" d="M443.637,647.306c-0.029,0.008-0.139-0.26-0.278-0.761c-0.14-0.499-0.305-1.235-0.422-2.158
							c-0.116-0.922-0.185-2.035-0.132-3.269c0.03-0.615,0.087-1.262,0.185-1.926c0.045-0.334,0.105-0.669,0.17-1.012
							c0.067-0.325,0.158-0.791,0.579-1.067c0.192-0.13,0.482-0.196,0.738-0.096c0.253,0.102,0.399,0.301,0.497,0.475
							c0.181,0.365,0.253,0.682,0.347,1.019c0.174,0.664,0.245,1.325,0.241,1.954c-0.004,1.258-0.294,2.371-0.674,3.233
							c-0.369,0.868-0.825,1.493-1.172,1.883c-0.343,0.394-0.58,0.566-0.599,0.546c-0.086-0.065,0.787-0.868,1.428-2.568
							c0.316-0.842,0.554-1.905,0.531-3.09c-0.008-0.592-0.087-1.211-0.253-1.83c-0.087-0.298-0.181-0.646-0.309-0.893
							c-0.15-0.256-0.286-0.311-0.489-0.19c-0.196,0.117-0.29,0.403-0.351,0.729c-0.064,0.332-0.128,0.661-0.177,0.983
							c-0.099,0.647-0.166,1.276-0.207,1.877c-0.079,1.203-0.05,2.294,0.019,3.205C443.449,646.174,443.724,647.285,443.637,647.306
							z"/>
					</g>
					<g>
						<path fill="#FFFFFF" d="M464.475,659.555c-0.057,0.004-0.17-0.936,0.105-2.429c0.26-1.482,0.997-3.516,2.474-5.323
							s3.325-2.936,4.723-3.487c1.408-0.563,2.354-0.641,2.361-0.584c0.022,0.087-0.881,0.292-2.211,0.925
							c-1.317,0.623-3.054,1.751-4.466,3.479s-2.173,3.651-2.52,5.069C464.587,658.632,464.564,659.559,464.475,659.555z"/>
					</g>
					<g>
						<path fill="#FFFFFF" d="M436.523,659.685c-0.083-0.015,0.011-0.552-0.14-1.378c-0.144-0.821-0.595-1.919-1.412-2.906
							c-0.825-0.988-1.773-1.713-2.452-2.25c-0.682-0.531-1.1-0.877-1.058-0.939c0.041-0.059,0.527,0.175,1.272,0.635
							c0.738,0.463,1.763,1.163,2.644,2.22c0.882,1.063,1.322,2.292,1.375,3.193C436.816,659.171,436.58,659.703,436.523,659.685z"
							/>
					</g>
					<g>
						
							<ellipse transform="matrix(0.9983 0.0575 -0.0575 0.9983 38.5123 -24.8036)" fill="#FFFFFF" cx="450.416" cy="657.058" rx="4.655" ry="0.264"/>
					</g>
				</g>
				<path fill="#EE635B" d="M535.813,490.64H420.386c0,0-27.371,3.57-19.636,32.129c7.735,28.56,44.118,122.259,44.118,122.259
					h40.703l-31.868-102.029l64.854-1.785L535.813,490.64z"/>
				<g>
					<path fill="#BA4643" d="M542.969,515.96c0.053,0.069-0.475,0.525-1.578,1.292c-1.142,0.68-2.885,1.651-5.28,2.473
						c-4.764,1.743-11.972,3.216-20.92,4.082c-8.955,0.893-19.654,1.262-31.514,1.189c-11.859-0.047-24.89-0.589-38.522-1.197
						c-1.705-0.049-3.435-0.226-4.816-0.004c-1.408,0.207-2.331,0.898-2.723,2.045c-0.388,1.162-0.237,2.695,0.109,4.165
						c0.354,1.46,0.923,3.038,1.386,4.568c1.932,6.145,3.8,12.07,5.573,17.715c3.537,11.297,6.688,21.481,9.295,30.045
						c2.609,8.563,4.678,15.507,6.052,20.323c1.371,4.816,2.049,7.506,1.876,7.561c-0.174,0.057-1.183-2.529-2.855-7.248
						c-1.672-4.723-4.011-11.578-6.846-20.068c-2.836-8.492-6.169-18.617-9.833-29.872c-1.823-5.632-3.736-11.542-5.721-17.67
						c-0.475-1.546-1.032-3.025-1.458-4.749c-0.384-1.688-0.7-3.573-0.06-5.611c0.319-1.013,1.009-1.968,1.883-2.636
						c0.893-0.671,1.936-1.015,2.899-1.166c0.972-0.154,1.898-0.158,2.779-0.134c0.855,0.034,1.71,0.068,2.568,0.103
						c13.655,0.611,26.63,1.226,38.439,1.404c11.807,0.205,22.441,0.028,31.325-0.619c8.888-0.622,16.017-1.795,20.762-3.201
						c2.396-0.655,4.143-1.446,5.345-1.962C542.287,516.189,542.916,515.881,542.969,515.96z"/>
				</g>
			</g>
			<rect x="455.451" y="541.921" fill="#419B8D" width="122.01" height="6.508"/>
			<rect x="570.803" y="545.175" fill="#419B8D" width="6.658" height="115.023"/>
			<rect x="454.908" y="545.175" fill="#419B8D" width="6.658" height="115.023"/>
			<rect x="465.593" y="450.186" fill="#132038" width="7.427" height="205.762"/>
			<circle fill="none" stroke="#132038" stroke-width="0.25" stroke-miterlimit="10" cx="533.388" cy="336.541" r="6.971"/>
			<g>
				<path fill="#D6CCCC" d="M556.989,402.533c0.011,0.003-0.03,0.096-0.121,0.272c-0.105,0.2-0.241,0.456-0.406,0.776
					c-0.377,0.672-0.882,1.69-1.639,2.942c-1.472,2.529-3.751,6.108-6.948,10.259c-3.201,4.141-7.344,8.841-12.544,13.422
					c-1.276,1.175-2.674,2.271-4.067,3.431c-1.446,1.095-2.899,2.245-4.459,3.305c-3.088,2.158-6.402,4.24-9.953,6.08
					c-3.548,1.855-7.125,3.431-10.658,4.753c-3.547,1.29-7.042,2.314-10.409,3.133c-6.752,1.56-12.984,2.256-18.224,2.354
					c-5.234,0.11-9.475-0.205-12.375-0.588c-1.453-0.143-2.568-0.38-3.332-0.489c-0.354-0.063-0.637-0.111-0.863-0.15
					c-0.191-0.036-0.289-0.061-0.289-0.068c0-0.01,0.102-0.004,0.297,0.016c0.227,0.026,0.513,0.058,0.87,0.1
					c0.769,0.073,1.887,0.276,3.341,0.39c2.903,0.318,7.129,0.578,12.341,0.418c5.216-0.146,11.411-0.876,18.122-2.454
					c3.348-0.826,6.819-1.854,10.341-3.145c3.51-1.321,7.069-2.892,10.594-4.735c3.528-1.828,6.828-3.896,9.9-6.037
					c1.556-1.051,3.002-2.191,4.444-3.276c1.39-1.148,2.783-2.234,4.056-3.398c5.193-4.54,9.351-9.192,12.575-13.288
					c3.224-4.104,5.543-7.644,7.064-10.135c0.783-1.233,1.318-2.234,1.721-2.89c0.188-0.31,0.336-0.556,0.452-0.75
					C556.925,402.612,556.981,402.529,556.989,402.533z"/>
			</g>
			<g>
				<path fill="#D6CCCC" d="M427.906,453.125c0,0-0.026-0.158-0.045-0.473c-0.015-0.337-0.041-0.799-0.071-1.39
					c-0.049-1.249-0.124-3.045-0.219-5.346c-0.169-4.668-0.414-11.379-0.716-19.658l-0.007-0.223l0.222,0.026
					c7.638,0.9,16.751,1.495,26.799,0.895c10.025-0.591,21.015-2.457,31.818-6.561c11.151-4.197,20.883-10.444,28.313-17.593
					c1.842-1.804,3.574-3.626,5.152-5.496c1.574-1.868,3.051-3.736,4.504-5.52c2.9-3.567,5.814-6.786,8.985-9.134
					c3.142-2.396,6.591-3.688,9.679-4.139c3.096-0.456,5.86-0.16,7.932,0.585c2.082,0.734,3.498,1.774,4.315,2.588
					c0.813,0.818,1.16,1.321,1.16,1.321c-0.03,0.024-0.403-0.457-1.235-1.244c-0.832-0.78-2.244-1.776-4.305-2.471
					c-2.053-0.704-4.775-0.964-7.822-0.487c-3.042,0.473-6.417,1.764-9.497,4.144c-3.118,2.339-5.992,5.54-8.873,9.112
					c-1.446,1.787-2.911,3.66-4.489,5.544c-1.577,1.883-3.317,3.726-5.166,5.547c-7.461,7.216-17.249,13.514-28.464,17.733
					c-10.868,4.128-21.914,5.988-31.98,6.557c-10.085,0.578-19.222-0.058-26.87-1.003l0.211-0.196
					c0.229,8.283,0.414,14.996,0.542,19.666c0.053,2.301,0.095,4.1,0.121,5.348c0.007,0.593,0.015,1.055,0.019,1.392
					C427.918,452.965,427.906,453.125,427.906,453.125z"/>
			</g>
			<g>
				<path fill="#D6CCCC" d="M476.691,425.816c-0.03,0.001-0.091-0.358-0.105-1.016c-0.016-0.657,0.06-1.611,0.309-2.764
					c0.459-2.326,1.86-5.28,3.386-8.466c1.514-3.188,2.361-6.316,2.289-8.617c-0.03-2.307-0.765-3.615-0.651-3.651
					c0.022-0.013,0.219,0.296,0.464,0.908c0.252,0.61,0.493,1.55,0.561,2.732c0.173,2.38-0.651,5.626-2.185,8.85
					c-1.536,3.211-2.96,6.08-3.502,8.33C476.668,424.358,476.797,425.816,476.691,425.816z"/>
			</g>
			<g>
				<path fill="#D6CCCC" d="M483.5,409.033c-0.102,0.126-1.544-1.111-3.713-1.803c-2.166-0.723-4.057-0.574-4.064-0.736
					c-0.041-0.126,1.933-0.524,4.226,0.236C482.246,407.468,483.605,408.956,483.5,409.033z"/>
			</g>
			<g>
				<path fill="#D6CCCC" d="M414.979,374.649c0.056,0.136-7.212,3.154-16.231,6.743s-16.371,6.389-16.428,6.253
					c-0.053-0.135,7.216-3.153,16.235-6.742C407.57,377.314,414.926,374.514,414.979,374.649z"/>
			</g>
			<g>
				<path fill="#D6CCCC" d="M388.401,385.949c-0.109,0.081-1.747-2.065-3.224-5.037c-1.487-2.969-2.211-5.569-2.079-5.609
					c0.147-0.051,1.085,2.444,2.55,5.374C387.106,383.61,388.533,385.862,388.401,385.949z"/>
			</g>
			<g>
				<path fill="#D6CCCC" d="M393.343,383.312c-0.117,0.073-1.57-2.075-2.9-4.975c-1.337-2.896-2.025-5.397-1.894-5.437
					c0.143-0.049,1.051,2.352,2.372,5.216C392.239,380.984,393.475,383.232,393.343,383.312z"/>
			</g>
			<g>
				<path fill="#D6CCCC" d="M399.511,381.088c-0.132,0.058-1.313-2.377-2.64-5.438c-1.325-3.062-2.289-5.591-2.158-5.647
					c0.136-0.058,1.318,2.377,2.641,5.438C398.679,378.502,399.646,381.031,399.511,381.088z"/>
			</g>
			<g>
				
					<ellipse transform="matrix(0.5162 0.8565 -0.8565 0.5162 514.3771 -166.2107)" fill="#D6CCCC" cx="404.309" cy="372.191" rx="6.5" ry="0.264"/>
			</g>
			<g>
				<path fill="#D6CCCC" d="M532.97,366.932c0.008,0.035-0.497,0.216-1.428,0.516c-0.926,0.307-2.289,0.682-3.991,1.079
					c-3.397,0.8-8.191,1.555-13.531,1.658c-5.341,0.089-10.161-0.493-13.584-1.169c-1.714-0.337-3.092-0.663-4.029-0.936
					c-0.938-0.266-1.454-0.43-1.442-0.464c0.007-0.035,0.542,0.061,1.491,0.264c0.949,0.213,2.331,0.48,4.044,0.769
					c3.424,0.58,8.21,1.098,13.509,1.01c5.299-0.103,10.063-0.793,13.464-1.495c1.702-0.349,3.072-0.667,4.015-0.914
					C532.431,367.012,532.958,366.897,532.97,366.932z"/>
			</g>
			<g>
				<path fill="#D6CCCC" d="M498.545,366.843c-0.144,0.002-0.29-2.024-0.324-4.526c-0.037-2.503,0.053-4.533,0.2-4.534
					c0.146-0.002,0.29,2.023,0.327,4.526C498.782,364.811,498.691,366.841,498.545,366.843z"/>
			</g>
			<g>
				<ellipse fill="#D6CCCC" cx="503.893" cy="363.49" rx="0.264" ry="4.983"/>
			</g>
			<g>
				<path fill="#D6CCCC" d="M510.023,368.654c-0.146-0.004-0.222-2.318-0.173-5.169c0.049-2.853,0.207-5.163,0.354-5.161
					c0.144,0.004,0.223,2.316,0.174,5.171C510.325,366.346,510.167,368.656,510.023,368.654z"/>
			</g>
			<g>
				
					<ellipse transform="matrix(0.0128 0.9999 -0.9999 0.0128 872.7505 -157.7283)" fill="#D6CCCC" cx="516.254" cy="363.127" rx="6.071" ry="0.262"/>
			</g>
			<g>
				<path fill="#D6CCCC" d="M523.216,367.02c-0.144-0.004-0.181-2.037-0.083-4.54c0.098-2.502,0.294-4.524,0.44-4.519
					c0.147,0.006,0.185,2.037,0.087,4.54C523.559,365.003,523.362,367.027,523.216,367.02z"/>
			</g>
			<g>
				<path fill="#D6CCCC" d="M527.998,369.198c-0.135,0.008-0.402-2.682-0.252-6.003c0.14-3.325,0.637-5.98,0.772-5.96
					c0.15,0.021-0.109,2.688-0.249,5.982C528.123,366.512,528.153,369.19,527.998,369.198z"/>
			</g>
			<g>
				<path fill="#D6CCCC" d="M565.892,485.094c0,0.01-0.083,0.012-0.245,0.01c-0.188-0.008-0.421-0.015-0.704-0.024
					c-0.666-0.036-1.57-0.085-2.715-0.146c-2.406-0.14-5.804-0.337-9.983-0.58c-8.429-0.48-20.076-1.061-32.949-1.469
					c-12.879-0.405-24.539-0.563-32.981-0.616c-4.188-0.021-7.589-0.037-9.999-0.051c-1.145-0.011-2.053-0.019-2.719-0.026
					c-0.283-0.007-0.517-0.013-0.708-0.019c-0.158-0.008-0.241-0.017-0.241-0.024c0-0.01,0.083-0.019,0.241-0.03
					c0.191-0.008,0.425-0.019,0.708-0.032c0.666-0.017,1.574-0.041,2.719-0.073c2.361-0.055,5.777-0.096,9.999-0.117
					c8.442-0.041,20.113,0.057,32.997,0.462c12.88,0.41,24.531,1.049,32.956,1.623c4.214,0.286,7.622,0.544,9.976,0.749
					c1.142,0.102,2.045,0.185,2.708,0.243c0.282,0.032,0.513,0.057,0.704,0.077C565.813,485.069,565.892,485.085,565.892,485.094z"
					/>
			</g>
			<g>
				
					<ellipse transform="matrix(-0.0258 0.9997 -0.9997 -0.0258 976.0455 23.9546)" fill="#D6CCCC" cx="476.35" cy="487.586" rx="4.909" ry="0.261"/>
			</g>
			<g>
				<path fill="#D6CCCC" d="M483.33,492.492c-0.143-0.013-0.071-2.222,0.166-4.934c0.233-2.711,0.542-4.899,0.689-4.886
					c0.143,0.011,0.071,2.22-0.166,4.934C483.786,490.315,483.478,492.506,483.33,492.492z"/>
			</g>
			<g>
				<path fill="#D6CCCC" d="M493.175,490.934c-0.147,0-0.264-2.1-0.264-4.686c0-2.589,0.116-4.687,0.264-4.687
					c0.143,0,0.264,2.098,0.264,4.687C493.438,488.834,493.317,490.934,493.175,490.934z"/>
			</g>
			<g>
				<path fill="#D6CCCC" d="M501.689,493.609c-0.146,0.002-0.313-2.693-0.377-6.019c-0.06-3.327,0.008-6.027,0.155-6.029
					c0.143-0.002,0.313,2.691,0.372,6.019C501.904,490.907,501.833,493.607,501.689,493.609z"/>
			</g>
			<g>
				<path fill="#D6CCCC" d="M510.687,492.739c-0.136,0.03-0.761-2.38-1.089-5.423c-0.339-3.045-0.252-5.53-0.112-5.532
					c0.15-0.002,0.301,2.459,0.636,5.474C510.449,490.274,510.837,492.709,510.687,492.739z"/>
			</g>
			<g>
				
					<ellipse transform="matrix(0.1009 0.9949 -0.9949 0.1009 952.2872 -77.6435)" fill="#D6CCCC" cx="519.1" cy="488.028" rx="4.483" ry="0.265"/>
			</g>
			<g>
				<path fill="#D6CCCC" d="M531.357,491.6c-0.146,0.01-0.414-2.28-0.599-5.114s-0.218-5.139-0.071-5.147
					c0.143-0.01,0.414,2.278,0.599,5.114C531.471,489.284,531.505,491.591,531.357,491.6z"/>
			</g>
			<g>
				
					<ellipse transform="matrix(0.0461 0.9989 -0.9989 0.0461 1003.3303 -75.7094)" fill="#D6CCCC" cx="541.306" cy="487.477" rx="5.024" ry="0.262"/>
			</g>
			<g>
				<path fill="#D6CCCC" d="M554.971,492.719c-0.132,0.029-0.693-2.093-0.757-4.783c-0.075-2.692,0.376-4.839,0.508-4.814
					c0.154,0.021-0.057,2.161,0.019,4.802C554.801,490.561,555.121,492.688,554.971,492.719z"/>
			</g>
			<g>
				<path fill="#90766D" d="M115.291,301.962c0,0,6.811,0.473,6.811-4.72c0-5.192-6.237-4.767-6.237-4.767L115.291,301.962z"/>
				<g>
					<path fill="#67524C" d="M117.162,300.078c-0.015,0.056,0.507,0.224,1.313-0.038c0.394-0.134,0.848-0.382,1.231-0.798
						c0.39-0.413,0.674-0.999,0.759-1.646c0.083-0.647-0.041-1.288-0.313-1.787c-0.265-0.501-0.642-0.856-0.988-1.084
						c-0.716-0.456-1.262-0.424-1.262-0.366c-0.021,0.083,0.467,0.189,1.04,0.666c0.57,0.457,1.164,1.391,1.001,2.503
						c-0.13,1.117-0.941,1.869-1.606,2.167C117.661,300.012,117.162,299.992,117.162,300.078z"/>
				</g>
				<g>
					<path fill="#67524C" d="M120.134,297.202c-0.094-0.115-0.606,0.147-1.268,0.055c-0.663-0.066-1.1-0.443-1.216-0.354
						c-0.055,0.042-0.011,0.218,0.183,0.421c0.19,0.203,0.544,0.405,0.972,0.457c0.426,0.051,0.817-0.062,1.051-0.213
						C120.09,297.415,120.175,297.254,120.134,297.202z"/>
				</g>
			</g>
			<path fill="#90766D" d="M40.95,449.739l-0.302-4.854c5.566-1.934,33.667-9.117,75.59-17.348l10.189,18.613l-55.4,23.206
				c0,0-17.426,7.803-24.605,0.976C39.243,463.502,40.95,449.739,40.95,449.739z"/>
			<rect x="46.421" y="451.592" fill="#132038" width="457.747" height="6.433"/>
			<rect x="82.92" y="451.592" fill="#132038" width="7.426" height="205.764"/>
			<polygon fill="#F4F4F4" points="116.238,415.868 122.258,451.592 141.466,451.592 146.283,415.175 			"/>
			<path fill="#90766D" d="M114.863,427.396c0,0-1.117-4.485,2.44-5.2c3.559-0.716,28.527-3.13,28.544,1.313
				c0.017,4.443-0.546,12.844-0.546,12.844l-27.697,13.493L114.863,427.396z"/>
			<polygon fill="#473C39" points="116.238,411.236 114.863,415.175 114.863,418.051 147.335,417.019 147.335,413.734 			"/>
			<g opacity="0.17">
				<path fill="#473C39" d="M136.212,360.199c0.143,0.147-0.333,0.776-1.001,1.955c-0.646,1.183-1.467,2.973-1.77,5.312
					c-0.296,2.316-0.043,5.199,1.472,7.814c0.759,1.335,1.813,2.672,2.87,4.218c1.032,1.533,2.139,3.399,2.386,5.678
					c0.241,2.276-0.45,4.398-1.361,6.115c-0.911,1.74-2.086,3.185-3.175,4.455c-1.092,1.275-2.122,2.422-2.954,3.554
					c-0.829,1.124-1.484,2.244-1.864,3.297c-0.778,2.164-0.606,4.122-0.179,5.321c0.425,1.225,0.988,1.795,0.847,1.949
					c-0.081,0.12-0.934-0.187-1.77-1.503c-0.827-1.29-1.369-3.626-0.682-6.306c0.684-2.723,2.676-5.309,4.726-7.854
					c1.019-1.29,2.015-2.607,2.755-4.094c0.746-1.472,1.207-3.084,1.038-4.652c-0.162-1.574-0.97-3.079-1.918-4.532
					c-0.949-1.458-2.024-2.898-2.853-4.487c-1.709-3.264-1.761-6.713-1.171-9.298c0.599-2.629,1.804-4.491,2.772-5.583
					C135.375,360.467,136.105,360.085,136.212,360.199z"/>
			</g>
			<g opacity="0.17">
				<path fill="#473C39" d="M143.417,375.495c0.133-0.119,0.651,0.188,1.459,0.885c0.793,0.71,1.934,1.779,2.985,3.505
					c0.516,0.86,1,1.903,1.241,3.133c0.258,1.224,0.216,2.595-0.081,3.945c-0.623,2.711-2.263,5.232-4.216,7.434
					c-1.947,2.188-3.868,4.019-5.208,5.903c-0.668,0.947-1.222,1.86-1.568,2.777c-0.358,0.923-0.571,1.834-0.661,2.674
					c-0.181,1.687,0.145,3.049,0.527,3.93c0.378,0.889,0.73,1.367,0.595,1.516c-0.1,0.121-0.715-0.098-1.465-0.974
					c-0.75-0.858-1.48-2.478-1.518-4.538c-0.024-1.024,0.113-2.148,0.454-3.308c0.332-1.178,0.93-2.333,1.625-3.438
					c1.42-2.228,3.408-4.213,5.241-6.282c1.817-2.041,3.239-4.186,3.841-6.289c0.619-2.1,0.262-4.041-0.458-5.62
					c-0.7-1.586-1.576-2.812-2.112-3.7C143.543,376.16,143.279,375.615,143.417,375.495z"/>
			</g>
			<g opacity="0.17">
				<path fill="#473C39" d="M149.156,370.358c-0.279,0.207-0.947-0.093-1.622-0.97c-0.67-0.862-1.263-2.333-1.297-4.022
					c-0.03-1.688,0.51-3.18,1.149-4.069c0.64-0.901,1.295-1.224,1.583-1.027c0.599,0.446-0.188,2.51-0.098,5.048
					C148.875,367.855,149.738,369.89,149.156,370.358z"/>
			</g>
			<g>
				
					<ellipse transform="matrix(0.9868 -0.162 0.162 0.9868 -66.9549 28.1778)" fill="#715D57" cx="139.272" cy="424.57" rx="6.467" ry="0.264"/>
			</g>
			<g>
				<path fill="#715D57" d="M146.061,427.464c0.04,0.136-2.794,1.069-6.381,1.864c-3.589,0.802-6.549,1.161-6.572,1.022
					c-0.024-0.149,2.887-0.738,6.457-1.537C143.134,428.021,146.021,427.32,146.061,427.464z"/>
			</g>
			<g>
				<path fill="#715D57" d="M146.081,431.371c0.057,0.124-2.497,1.352-5.841,2.336c-3.342,0.993-6.154,1.351-6.174,1.215
					c-0.028-0.15,2.715-0.736,6.023-1.721C143.402,432.228,146.023,431.228,146.081,431.371z"/>
			</g>
			<polygon opacity="0.13" fill="#111C35" points="121.341,448.025 143.356,437.299 142.98,440.144 122.047,450.334 			"/>
			<path fill="#F2B59D" d="M406.693,363.623c0,0-16.247-30.4-19.493-29.306c-1.668,0.561,3.721,13.205,3.528,13.949
				c-0.195,0.745-0.583-2.121-3.563,0.546c-1.495,1.341-0.934,2.997-0.934,2.997s-2.173-2.899-4.128-2.029
				c-1.958,0.87-1.958,3.672-1.958,3.672s-2.128-2.03-3.479-0.968c-0.29,0.229-0.535,0.546-0.742,0.901
				c-0.87,1.501-0.93,3.339-0.335,4.97l6.515,17.854L406.693,363.623z"/>
			<path fill="#F4F4F4" d="M136.32,187.929H85.83c-10.257,0-18.572,8.315-18.572,18.572v13.513c0,10.257,8.315,18.573,18.572,18.573
				h39.446v16.073l17.107-17.106c7.276-2.516,12.509-9.408,12.509-17.54v-13.513C154.892,196.244,146.576,187.929,136.32,187.929z"
				/>
			<path fill="#F2B59D" d="M426.125,427.262c-1.544-0.102-18.352,9.062-20.498,10.605c-2.143,1.544-23.985,13.158-19.892,13.158
				s42.428,0,42.428,0L426.125,427.262z"/>
			<path fill="#D6D2D0" d="M284.313,384.428c-1.262,1.725,27.165,67.164,27.165,67.164l74.258-0.566l-0.513-3.404h-70.363
				l-26.809-65.17L284.313,384.428z"/>
			<linearGradient id="SVGID_1_" gradientUnits="userSpaceOnUse" x1="227.4399" y1="524.7383" x2="405.148" y2="381.5021">
				<stop  offset="0" style="stop-color:#ADDCE0"/>
				<stop  offset="1" style="stop-color:#94BFC6;stop-opacity:0"/>
			</linearGradient>
			<polygon fill="url(#SVGID_1_)" points="288.051,382.451 397.112,303.8 498.206,334.602 475.723,418.051 385.223,447.621 
				314.859,447.621 			"/>
			<rect x="79.653" y="204.418" opacity="0.28" fill="#172D56" width="64.052" height="4.141"/>
			<rect x="79.653" y="213.985" opacity="0.28" fill="#172D56" width="31.421" height="4.142"/>
		</g>
	</g>
	<g>
		<path fill="#EE635B" d="M460.158,274.005c-5.182,0-9.399-4.188-9.399-9.335c0-5.148,4.218-9.336,9.399-9.336
			c5.186,0,9.404,4.188,9.404,9.336C469.563,269.817,465.344,274.005,460.158,274.005z M460.158,259.608
			c-2.81,0-5.095,2.27-5.095,5.062c0,2.79,2.285,5.06,5.095,5.06c2.813,0,5.1-2.27,5.1-5.06
			C465.258,261.878,462.972,259.608,460.158,259.608z"/>
	</g>
	<g>
		<path fill="#5CBB94" d="M81.679,79.502c-5.184,0-9.402-4.188-9.402-9.335c0-5.148,4.218-9.336,9.402-9.336
			c5.184,0,9.402,4.188,9.402,9.336C91.081,75.314,86.863,79.502,81.679,79.502z M81.679,65.105c-2.811,0-5.097,2.27-5.097,5.062
			c0,2.79,2.286,5.06,5.097,5.06c2.812,0,5.096-2.27,5.096-5.06C86.775,67.375,84.491,65.105,81.679,65.105z"/>
	</g>
	<g>
		<polygon fill="#ADDCE0" points="445.154,194.901 442.101,191.393 455.063,180.271 442.387,169.24 445.464,165.755 
			462.177,180.296 		"/>
	</g>
	<g>
		<polygon fill="#F9CC5A" points="568.562,101.492 571.409,101.697 570.648,112.067 580.926,111.394 581.114,114.222 
			567.563,115.108 		"/>
	</g>
	<g>
		<polygon fill="#ED694B" points="572.893,39.433 557.332,60.831 553.547,58.117 569.107,36.72 		"/>
	</g>
	<g>
		<path fill="#13203D" d="M509.029,123.771l-7.167,0.356l0.339,6.726l-5.31,0.264l-0.339-6.725l-7.129,0.354l-0.245-4.825
			l7.129-0.355l-0.339-6.725l5.314-0.265l0.339,6.726l7.166-0.356L509.029,123.771z"/>
	</g>
	<g>
		<path fill="#F9CC5A" d="M564.133,237.821l-7.166,0.356l0.35,6.953l-5.313,0.265l-0.351-6.954l-7.125,0.354l-0.252-4.988
			l7.129-0.354l-0.351-6.954l5.311-0.264l0.35,6.953l7.167-0.356L564.133,237.821z"/>
	</g>
	<g>
		<path fill="#5CBB94" d="M494.587,218.821l-1.725-1.561c3.021-3.284,6.571-3.124,9.697-2.982c2.986,0.13,5.589,0.25,7.867-2.229
			c2.278-2.482,1.924-5.032,1.518-7.984c-0.43-3.083-0.911-6.579,2.102-9.862c3.021-3.284,6.571-3.128,9.701-2.984
			c2.99,0.136,5.589,0.251,7.867-2.232c2.285-2.487,1.936-5.039,1.524-7.995c-0.421-3.084-0.907-6.583,2.117-9.871
			c3.017-3.286,6.575-3.127,9.705-2.994c3.001,0.13,5.596,0.247,7.878-2.242l1.725,1.562c-3.021,3.289-6.56,3.134-9.708,2.994
			c-3.014-0.133-5.597-0.243-7.875,2.242c-2.286,2.487-1.936,5.04-1.525,7.995c0.422,3.085,0.908,6.583-2.116,9.871
			c-3.017,3.284-6.564,3.126-9.701,2.985c-2.986-0.131-5.585-0.25-7.867,2.231c-2.278,2.482-1.925,5.031-1.518,7.984
			c0.429,3.083,0.915,6.578-2.102,9.861c-3.021,3.285-6.564,3.127-9.697,2.982C499.468,216.456,496.865,216.34,494.587,218.821z"/>
	</g>
</g>
</svg>
