<?xml version="1.0" encoding="utf-8"?>
<!-- Generator: Adobe Illustrator 16.0.0, SVG Export Plug-In . SVG Version: 6.00 Build 0)  -->
<!DOCTYPE svg PUBLIC "-//W3C//DTD SVG 1.1//EN" "http://www.w3.org/Graphics/SVG/1.1/DTD/svg11.dtd">
<svg version="1.1" id="Layer_1" xmlns="http://www.w3.org/2000/svg" xmlns:xlink="http://www.w3.org/1999/xlink" x="0px" y="0px"
	 width="132.375px" height="28.5px" viewBox="2.865 0 132.375 28.5" enable-background="new 2.865 0 132.375 28.5"
	 xml:space="preserve">
<g>
	<path d="M25.919,23.64h-4.07c-0.456,0-0.831-0.105-1.126-0.318c-0.295-0.211-0.5-0.484-0.613-0.816l-1.336-3.946h-8.607
		l-1.336,3.946c-0.104,0.291-0.305,0.552-0.605,0.784C7.923,23.522,7.555,23.64,7.12,23.64H3.019L11.781,0h5.375L25.919,23.64z
		 M11.377,14.986h6.184l-2.082-6.199c-0.135-0.395-0.292-0.857-0.474-1.391c-0.181-0.534-0.36-1.111-0.536-1.732
		c-0.166,0.631-0.336,1.217-0.512,1.755c-0.176,0.539-0.342,1.005-0.498,1.398L11.377,14.986z"/>
	<path d="M27.752,28.752V7.528h2.983c0.3,0,0.552,0.068,0.754,0.202c0.202,0.135,0.344,0.336,0.427,0.605l0.357,1.181
		c0.311-0.341,0.645-0.652,1.002-0.932c0.357-0.28,0.741-0.521,1.149-0.723c0.409-0.202,0.85-0.36,1.321-0.474
		c0.471-0.114,0.986-0.171,1.546-0.171c0.838,0,1.615,0.187,2.33,0.56c0.715,0.373,1.332,0.911,1.849,1.615
		c0.518,0.705,0.924,1.567,1.22,2.586c0.295,1.021,0.442,2.178,0.442,3.472c0,1.213-0.168,2.331-0.504,3.356
		c-0.337,1.025-0.808,1.917-1.414,2.672c-0.606,0.757-1.331,1.346-2.175,1.772c-0.845,0.424-1.779,0.637-2.804,0.637
		c-0.839,0-1.543-0.119-2.113-0.358c-0.57-0.237-1.087-0.558-1.554-0.962v6.184H27.752z M35.614,10.899
		c-0.353,0-0.67,0.034-0.956,0.101s-0.549,0.163-0.792,0.288s-0.468,0.282-0.675,0.474c-0.208,0.192-0.415,0.412-0.622,0.661v6.835
		c0.363,0.404,0.756,0.687,1.181,0.846c0.425,0.162,0.871,0.243,1.336,0.243c0.445,0,0.854-0.09,1.228-0.265
		c0.373-0.177,0.697-0.458,0.971-0.846c0.274-0.389,0.489-0.895,0.645-1.516c0.155-0.621,0.233-1.378,0.233-2.27
		c0-0.85-0.063-1.563-0.188-2.144c-0.124-0.58-0.297-1.049-0.52-1.405c-0.223-0.358-0.489-0.614-0.8-0.77
		C36.344,10.978,35.997,10.899,35.614,10.899z"/>
	<path d="M45.712,28.752V7.528h2.983c0.3,0,0.552,0.068,0.753,0.202c0.202,0.135,0.344,0.336,0.427,0.605l0.358,1.181
		c0.31-0.341,0.645-0.652,1.001-0.932c0.357-0.28,0.74-0.521,1.15-0.723c0.409-0.202,0.849-0.36,1.321-0.474
		c0.471-0.114,0.986-0.171,1.546-0.171c0.838,0,1.615,0.187,2.33,0.56c0.715,0.373,1.331,0.911,1.849,1.615
		c0.518,0.705,0.924,1.567,1.219,2.586c0.295,1.021,0.443,2.178,0.443,3.472c0,1.213-0.168,2.331-0.504,3.356
		c-0.337,1.025-0.808,1.917-1.415,2.672c-0.606,0.757-1.331,1.346-2.175,1.772c-0.844,0.424-1.779,0.637-2.804,0.637
		c-0.839,0-1.543-0.119-2.113-0.358c-0.57-0.237-1.088-0.558-1.554-0.962v6.184H45.712z M53.573,10.899
		c-0.352,0-0.67,0.034-0.956,0.101c-0.285,0.067-0.548,0.163-0.792,0.288c-0.243,0.125-0.469,0.282-0.676,0.474
		c-0.207,0.192-0.415,0.412-0.622,0.661v6.835c0.363,0.404,0.756,0.687,1.181,0.846c0.425,0.162,0.871,0.243,1.336,0.243
		c0.445,0,0.854-0.09,1.228-0.265c0.373-0.177,0.696-0.458,0.971-0.846c0.274-0.389,0.489-0.895,0.645-1.516s0.233-1.378,0.233-2.27
		c0-0.85-0.062-1.563-0.187-2.144c-0.125-0.58-0.298-1.049-0.52-1.405c-0.223-0.358-0.489-0.614-0.8-0.77
		C54.303,10.978,53.956,10.899,53.573,10.899z"/>
	<path d="M84.738,23.64h-4.07c-0.456,0-0.831-0.105-1.126-0.318c-0.294-0.211-0.5-0.484-0.613-0.816l-1.336-3.946h-8.607
		l-1.335,3.946c-0.104,0.291-0.306,0.552-0.606,0.784c-0.301,0.233-0.668,0.351-1.104,0.351h-4.101L70.6,0h5.375L84.738,23.64z
		 M70.196,14.986h6.184l-2.082-6.199c-0.135-0.395-0.293-0.857-0.474-1.391c-0.181-0.534-0.36-1.111-0.536-1.732
		c-0.166,0.631-0.336,1.217-0.512,1.755c-0.177,0.539-0.343,1.005-0.498,1.398L70.196,14.986z"/>
	<path d="M91.543,0v23.64h-4.815V0H91.543z"/>
	<path d="M100.957,2.828c0,0.384-0.077,0.744-0.233,1.08c-0.155,0.336-0.367,0.632-0.637,0.885c-0.27,0.254-0.582,0.456-0.939,0.606
		c-0.357,0.15-0.739,0.225-1.142,0.225c-0.394,0-0.762-0.075-1.104-0.225c-0.341-0.15-0.644-0.353-0.908-0.606
		c-0.264-0.253-0.472-0.549-0.621-0.885c-0.15-0.336-0.226-0.696-0.226-1.08c0-0.393,0.075-0.761,0.226-1.103
		c0.149-0.342,0.357-0.643,0.621-0.901c0.265-0.259,0.567-0.46,0.908-0.606C97.244,0.073,97.612,0,98.006,0
		c0.402,0,0.784,0.073,1.142,0.218c0.357,0.146,0.67,0.347,0.939,0.606s0.481,0.559,0.637,0.901
		C100.88,2.066,100.957,2.435,100.957,2.828z M100.397,7.24v16.111h-4.815V7.24H100.397z"/>
	<path d="M113.199,23.64h-4.381l-6.246-16.111h4.009c0.342,0,0.629,0.081,0.863,0.241c0.232,0.161,0.391,0.36,0.474,0.598
		l2.236,7.226c0.177,0.589,0.345,1.165,0.506,1.724c0.159,0.56,0.297,1.119,0.411,1.677c0.113-0.558,0.253-1.117,0.419-1.677
		c0.166-0.559,0.342-1.135,0.529-1.724l2.33-7.226c0.082-0.238,0.237-0.438,0.466-0.598c0.228-0.16,0.497-0.241,0.808-0.241h3.823
		L113.199,23.64z"/>
	<path d="M127.742,7.279c1.065,0,2.042,0.167,2.928,0.498c0.885,0.331,1.646,0.813,2.284,1.444c0.637,0.632,1.134,1.406,1.491,2.323
		c0.358,0.917,0.536,1.955,0.536,3.115c0,0.362-0.015,0.659-0.047,0.885c-0.03,0.229-0.088,0.41-0.171,0.544
		c-0.083,0.135-0.193,0.229-0.334,0.28c-0.14,0.052-0.318,0.077-0.535,0.077h-9.291c0.155,1.347,0.564,2.324,1.227,2.929
		c0.663,0.605,1.518,0.91,2.563,0.91c0.56,0,1.041-0.067,1.445-0.203c0.404-0.134,0.764-0.285,1.079-0.452
		c0.316-0.165,0.606-0.314,0.871-0.45c0.264-0.133,0.541-0.2,0.831-0.2c0.383,0,0.673,0.139,0.87,0.418l1.397,1.726
		c-0.497,0.569-1.032,1.033-1.608,1.39c-0.574,0.358-1.164,0.638-1.77,0.84c-0.606,0.201-1.212,0.341-1.818,0.419
		c-0.605,0.077-1.185,0.117-1.732,0.117c-1.129,0-2.188-0.186-3.177-0.552c-0.989-0.368-1.855-0.914-2.595-1.639
		c-0.741-0.727-1.326-1.626-1.756-2.705c-0.431-1.077-0.645-2.329-0.645-3.759c0-1.078,0.185-2.097,0.551-3.061
		c0.368-0.963,0.896-1.808,1.586-2.533c0.688-0.725,1.521-1.299,2.501-1.725C125.403,7.493,126.509,7.279,127.742,7.279z
		 M127.834,10.604c-0.922,0-1.641,0.261-2.159,0.784c-0.518,0.523-0.858,1.276-1.024,2.26h6.012c0-0.382-0.05-0.756-0.147-1.118
		c-0.1-0.362-0.26-0.687-0.481-0.971c-0.223-0.285-0.516-0.516-0.878-0.691S128.352,10.604,127.834,10.604z"/>
</g>
</svg>
