<?xml version="1.0" encoding="utf-8"?>
<!-- Generator: Adobe Illustrator 16.0.0, SVG Export Plug-In . SVG Version: 6.00 Build 0)  -->
<!DOCTYPE svg PUBLIC "-//W3C//DTD SVG 1.1//EN" "http://www.w3.org/Graphics/SVG/1.1/DTD/svg11.dtd">
<svg version="1.1" id="e1f19e5c-5557-4412-8bb7-7a6312267dc8"
	 xmlns="http://www.w3.org/2000/svg" xmlns:xlink="http://www.w3.org/1999/xlink" x="0px" y="0px" width="1145.7px"
	 height="817.621px" viewBox="0 0 1145.7 817.621" enable-background="new 0 0 1145.7 817.621" xml:space="preserve">
<title>to do</title>
<path opacity="0.1" fill="#6C63FF" enable-background="new    " d="M1145.7,454.099c-0.088,148.047-120.176,267.988-268.221,267.9
	c-14.156-0.008-28.291-1.139-42.27-3.379H410.5C394.096,720.871,377.558,722,361,722C199.65,722,63,616.14,16.78,470.089
	C5.625,434.802-0.035,398.009,0,361C0,161.62,161.63,0,361,0c160.57,0,296.629,104.81,343.52,249.81
	c48.367-41.153,109.824-63.708,173.33-63.61C1025.76,186.2,1145.7,306.14,1145.7,454.099z"/>
<path opacity="0.1" fill="#6C63FF" enable-background="new    " d="M1042.79,665.169c-58.762,45.883-133.965,65.246-207.58,53.451
	H410.5C394.096,720.871,377.558,722,361,722C199.65,722,63,616.14,16.78,470.089C51.35,396.2,140.19,343.62,244.35,343.62
	c101.5,0,188.45,49.94,224.81,120.87c17.88-3.252,36.017-4.881,54.189-4.869c105.2,0,194.77,53.648,228.59,128.709
	c28.016-8.49,57.137-12.775,86.41-12.709C924.151,575.621,999.559,611.3,1042.79,665.169z"/>
<rect x="275.35" y="317.62" fill="#FFFFFF" width="474" height="37"/>
<rect x="275.35" y="397.62" fill="#FFFFFF" width="474" height="37"/>
<rect x="275.35" y="477.621" fill="#FFFFFF" width="474" height="37"/>
<path fill="#172182" d="M844.969,333.2l-2.52,2.52l8.1,8.1l18-18l-2.52-2.52l-15.48,15.39L844.969,333.2z M866.75,336.62
	c-0.006,7.92-6.432,14.335-14.352,14.329c-7.92-0.005-14.334-6.431-14.328-14.35c0.006-7.92,6.43-14.335,14.35-14.33
	c1.314,0.001,2.625,0.183,3.889,0.541l2.791-2.79c-2.133-0.913-4.432-1.373-6.75-1.35c-9.941,0-18,8.059-18,18
	c0,9.941,8.059,18,18,18s18-8.059,18-18l0,0L866.75,336.62z"/>
<path fill="#172182" d="M844.969,413.201l-2.52,2.52l8.1,8.1l18-18l-2.52-2.521l-15.48,15.391L844.969,413.201z M866.75,416.621
	c-0.006,7.92-6.432,14.334-14.352,14.328s-14.334-6.43-14.328-14.35c0.006-7.92,6.43-14.335,14.35-14.33
	c1.314,0.001,2.625,0.183,3.889,0.54l2.791-2.79c-2.133-0.912-4.432-1.372-6.75-1.35c-9.941,0-18,8.059-18,18
	c0,9.941,8.059,18,18,18s18-8.059,18-18L866.75,416.621z"/>
<ellipse opacity="0.1" fill="#6C63FF" enable-background="new    " cx="573.35" cy="792.121" rx="510" ry="25.5"/>
<path opacity="0.1" fill="#6C63FF" enable-background="new    " d="M908.37,249.47c-0.861-1.232-1.336-2.695-1.359-4.2
	c0-9.11,18.58-16.5,41.5-16.5s41.5,7.39,41.5,16.5c-0.045,1.709-0.65,3.357-1.721,4.69c25.521,2.84,42.721,8.18,42.721,14.31
	c0,9.11-38.061,16.5-85,16.5s-85-7.39-85-16.5C861.01,257.81,880.309,252.17,908.37,249.47z"/>
<path opacity="0.1" fill="#6C63FF" enable-background="new    " d="M759.299,74.45c-0.699-1.009-1.086-2.203-1.109-3.43
	c0-7.44,15.16-13.46,33.85-13.46c18.691,0,33.861,6,33.861,13.46c-0.035,1.391-0.523,2.732-1.391,3.82
	c20.811,2.33,34.84,6.68,34.84,11.68c0,7.43-31,13.46-69.34,13.46s-69.35-6-69.35-13.46C720.661,81.22,736.411,76.65,759.299,74.45z
	"/>
<path opacity="0.1" fill="#6C63FF" enable-background="new    " d="M305.62,139.06c-1.111-1.013-1.892-2.337-2.24-3.8
	c-2-8.9,14.54-20.15,36.91-25.13s42.12-1.82,44.1,7.08c0.329,1.677,0.101,3.415-0.649,4.95c25.52-2.77,43.47-1.3,44.8,4.68
	c2,8.89-33.56,24.38-79.38,34.58s-84.57,11.28-86.55,2.38C261.2,157.47,278.85,147.81,305.62,139.06z"/>
<path opacity="0.1" fill="none" stroke="#6C63FF" stroke-width="3" stroke-miterlimit="10" enable-background="new    " d="
	M204.58,130.62c-2.33-1.35-5.48-0.06-7.08,2.11s-2.05,5-2.45,7.63c-0.89,5.91-1.54,12.7,2.45,17.16
	c-6.52-19.77-25.27-34.92-46-37.13"/>
<path opacity="0.1" fill="none" stroke="#6C63FF" stroke-width="3" stroke-miterlimit="10" enable-background="new    " d="
	M407.61,223.87c-1.5-0.87-3.521,0-4.551,1.36c-0.912,1.482-1.454,3.164-1.579,4.9c-0.57,3.81-1,8.17,1.579,11
	c-4.48-12.949-15.948-22.212-29.55-23.87"/>
<path opacity="0.1" fill="none" stroke="#6C63FF" stroke-width="3" stroke-miterlimit="10" enable-background="new    " d="
	M738.11,164.59c-1.5-0.86-3.52,0-4.551,1.36c-0.914,1.485-1.455,3.17-1.578,4.91c-0.57,3.8-1,8.16,1.578,11
	c-4.484-12.946-15.949-22.208-29.549-23.87"/>
<path fill="#FA5252" d="M204.5,767.05c0.007,2.607-0.261,5.209-0.8,7.76c-0.1,0.48-0.21,1-0.32,1.41
	c-2.84,11.391-10.85,19.719-20.41,20.25c-0.32,0-0.64,0-1,0c-10.11,0-18.66-8.721-21.48-20.73c-0.08-0.32-0.15-0.641-0.22-1
	c-0.54-2.551-0.808-5.152-0.8-7.76c0-16.27,10.07-29.449,22.5-29.449C194.4,737.531,204.5,750.81,204.5,767.05z"/>
<path opacity="0.1" enable-background="new    " d="M204.5,767.05c0.007,2.607-0.261,5.209-0.8,7.76c-0.1,0.48-0.21,1-0.32,1.41
	c-0.34,0-0.67,0-1,0c-2.476-0.133-4.938-0.469-7.36-1c-2.146,0.662-4.339,1.164-6.56,1.5c-1.703,0.256-3.419,0.416-5.14,0.48h-1.74
	c-2.06,0-4.118-0.137-6.16-0.41c-3.302-0.441-6.545-1.246-9.67-2.4c-1.711,0.57-3.454,1.037-5.22,1.4c-0.08-0.32-0.15-0.641-0.22-1
	c-0.54-2.553-0.808-5.152-0.8-7.76c0-16.271,10.07-29.451,22.5-29.451C194.44,737.58,204.5,750.81,204.5,767.05z"/>
<path fill="#0117FF" d="M252.5,712.191c0.009-7.16-1.669-14.221-4.9-20.611l-26.46,8.23l23.23-13.66
	c-7.893-11.398-20.531-18.6-34.36-19.58c-1.086-1.648-2.279-3.225-3.57-4.721l-38,11.83l31.17-18.33
	c-20.035-15.375-48.743-11.6-64.12,8.436c-3.646,4.752-6.323,10.172-7.88,15.955l32.55,37.471l-35.31-25.541
	c-20.605,14.615-25.461,43.166-10.847,63.771c11.65,16.426,32.673,23.299,51.777,16.93c9.41,3.459,19.693,3.742,29.28,0.809
	c24.692,5.436,49.115-10.176,54.55-34.869c0.708-3.215,1.066-6.498,1.07-9.791c0-1,0-2-0.1-3
	C251.876,721.197,252.523,716.705,252.5,712.191z"/>
<path opacity="0.1" enable-background="new    " d="M251.71,720.669c-13.974-2.648-28.303-2.83-42.34-0.539
	c-15.89,2.629-32.13,8.41-47.67,4.189c-9.12-2.48-17-8.221-25.91-11.41c-8.597-2.998-17.857-3.553-26.75-1.6
	c-9.747,23.318,1.254,50.121,24.572,59.867c10.21,4.268,21.62,4.691,32.118,1.193c9.41,3.459,19.693,3.742,29.28,0.809
	c24.693,5.436,49.116-10.176,54.55-34.869c0.708-3.215,1.066-6.498,1.07-9.789c0-1,0-2-0.1-3
	C251.012,723.927,251.406,722.308,251.71,720.669z"/>
<path fill="#0117FF" d="M1013.85,716.9l40.779-24c-5.512-9.434-12.559-17.883-20.85-25l-76.93,24l60.279-35.439
	c-47.469-26.002-107.027-8.6-133.029,38.869c-7.914,14.449-12.059,30.658-12.051,47.131c0,54.119,43.881,56,98,56
	c54.121,0,98-1.881,98-56c0.018-13.697-2.85-27.244-8.41-39.76L1013.85,716.9z"/>
<path opacity="0.1" enable-background="new    " d="M1024.18,769.509c-4.16-4.51-9.33-8-14.449-11.35
	c-7.41-4.91-15.07-9.93-23.791-11.6c-7.67-1.471-15.58-0.23-23.369-0.68c-13.563-0.826-26.33-6.676-35.811-16.41
	c-5.57-5.76-9.951-12.83-16.65-17.23c-7.221-4.74-16.379-5.76-24.939-4.58c-2.486,0.363-4.951,0.867-7.381,1.51
	c-3.844,10.664-5.803,21.916-5.789,33.25c0,54.121,43.879,56,98,56c26.26,0,50.109-0.439,67.709-7.08l-2.939-5.5
	C1031.709,780.099,1028.59,774.3,1024.18,769.509z"/>
<linearGradient id="SVGID_1_" gradientUnits="userSpaceOnUse" x1="624.9878" y1="-24.1699" x2="624.9878" y2="388.7808" gradientTransform="matrix(1 0 0 -1 -27.1499 777.4307)">
	<stop  offset="0" style="stop-color:#808080;stop-opacity:0.25"/>
	<stop  offset="0.54" style="stop-color:#808080;stop-opacity:0.12"/>
	<stop  offset="1" style="stop-color:#808080;stop-opacity:0.1"/>
</linearGradient>
<path fill="url(#SVGID_1_)" d="M669.139,793c-0.445-1.586-1.414-2.973-2.75-3.939c-0.158-0.109-0.33-0.211-0.5-0.311
	c-1.389-0.648-2.889-1.031-4.42-1.129c-5.738-0.74-11.77-1.852-16.119-5.611c-1.26-1.09-2.33-2.359-3.49-3.529
	c-2.463-2.35-5.115-4.494-7.93-6.41c-0.557-0.52-1.299-0.793-2.061-0.76c-1.084-0.857-1.98-1.93-2.629-3.15
	c-0.623-1.553-0.916-3.217-0.861-4.891c-0.58-17-4.189-34.479-0.18-51c0.43-1.863,0.311-3.811-0.34-5.609
	c0.811-0.369,1.621-0.75,2.42-1.16c6.785-3.563,12.818-8.4,17.77-14.25c2.313-2.486,4.146-5.379,5.41-8.529
	c1.51-4.24,1.291-8.881,0.75-13.34c-1.115-7.861-2.688-15.652-4.709-23.33l-4.59-19c-1-4.18-2.111-8.471-4.33-12.121h0.209
	c-0.15-2.109-0.311-4.219-0.619-6.309c-0.656-3.805-1.557-7.563-2.701-11.25c-0.398-1.4-0.709-3.352-1.17-5.23
	c0.83-8.529,4.15-16.811,4.711-25.311c0.18,0.24,0.35,0.48,0.539,0.721c1.381,1.719,3.281,3,4.68,4.67
	c2.621,3.18,3.211,7.48,3.762,11.529c0.168,2.113,0.691,4.182,1.549,6.121c0.48,0.799,0.906,1.631,1.27,2.49
	c0.58,1.729,0.15,3.609-0.199,5.408c-0.49,2.561-0.68,5.541,1.17,7.41c0.994,0.959,2.293,1.537,3.67,1.631
	c2.701,0.189,5.32-0.967,7-3.09c1.891-2.451,2.16-5.74,2.08-8.811c0.016-2.314-0.363-4.613-1.119-6.799
	c-1.043-2.297-2.326-4.477-3.83-6.5c-2.68-4.141-4.65-8.67-6.861-13.07c-1.75-3.596-3.787-7.043-6.09-10.311
	c-1.25-1.74-2.609-3.41-3.729-5.221c-0.371-0.6-2.201-5.068-3.91-9.539c0.879-0.18,1.789-0.541,2-1.359
	c0.084-0.482,0.031-0.977-0.15-1.432c-3.758-12.912-4.443-26.525-2-39.75c0.66-3.58,1.549-7.148,1.539-10.779s-1-7.449-3.67-10
	c-1.639-1.57-3.779-2.561-5.479-4.061c-3.271-2.898-4.58-7.35-5.422-11.609c-0.256-1.998-0.877-3.934-1.828-5.709
	c-0.264-0.398-0.557-0.771-0.881-1.121c2.357-6.373,3.557-13.115,3.539-19.91c0-5.1-0.674-10.176-2-15.1
	c0.541,1.34,1,2.709,1.49,4.109c-4.18-21.82-20.549-38.1-40.1-38.1h-0.539c-22.17,0-40.25,20.93-41.111,47.141
	c-8.965,5.719-13.737,16.168-12.189,26.689c-5.038,5.039-7.869,11.873-7.87,19c0.109,15.141,12.47,27.326,27.609,27.221
	c4.651-0.002,9.229-1.17,13.311-3.4c0.237,2.254,0.642,4.486,1.21,6.68c0.92,3.48,2.34,6.84,3,10.369
	c0.66,3.531,0.62,7.41-1.3,10.471c-1.552,2.367-2.717,4.967-3.45,7.699c-0.656,3.291-0.861,6.656-0.61,10
	c0.09,3.061,0.17,6.111,0.26,9.17c0.341,12,0.67,24-1.76,35.781c-1.1,5.34-3.88,10.41-3.25,15.83c0.313,1.967,0.886,3.883,1.7,5.699
	c1,2.621,2.3,5.439,4.84,6.711c1.24,0.553,2.582,0.842,3.94,0.85c1.67,0.08,3.344,0.006,5-0.221c1-0.139,2.35-0.809,2-1.77
	c-0.16-0.328-0.41-0.602-0.721-0.789c-2.637-2.084-4.182-5.252-4.199-8.611c0-4.74,3.148-9.309,2.18-14
	c-0.611-2.879-2.77-5.67-1.861-8.469c2-6.33,2.301-13.121,4-19.541c0.57-2.09,1.141-4.189,1.721-6.279c1-3.74,2-7.49,2.871-11.27
	c2.061-9.025,3.08-18.256,3.039-27.512c1.621,2.98,2.727,6.213,3.27,9.561c0.301,2.43,0.141,5,1.281,7.17
	c1.139,2.17,3.398,3.76,4.75,5.85c-0.555,1.268-1.186,2.5-1.891,3.691c-1.418,1.816-2.711,3.729-3.871,5.719
	c-1,2-1.699,4.061-2.549,6.09c-2.85,6.82-7.74,13-8.451,20.352c-0.58,5.908,1.66,11.689,3.932,17.18
	c1.332,3.279,2.717,6.547,4.148,9.799c0.092,0.211,0.191,0.441,0.301,0.65c0.17,1.67,0.391,3.33,0.609,5h3.67
	c1.5,2,3.17,4,4.07,6.33c0.594,1.809,0.93,3.689,1,5.59c0.73,9,0.59,18.23,4,26.6c1,2.49,2,5,2.1,7.531
	c0.109,2.109,0.443,4.201,1,6.24c0.508,2.203,0.775,4.457,0.801,6.719c0.115,3.887,0.016,7.775-0.301,11.65
	c-8,5-14.66,12.221-21.859,18.471c-9.921,8.596-21.184,15.512-33.34,20.469c0-0.189,0-0.389,0-0.58c-3.42-0.16-6.68,1-9.779,2.59
	c-1.09,0.541-2.15,1.121-3.2,1.691c-0.578,0.27-1.104,0.643-1.55,1.1c-1.4,1.629-0.38,4.1,0.689,6
	c3.561,6.232,7.12,12.459,10.681,18.68c0.819,1.439,1.649,2.891,2.329,4.4c1.16,2.57,1.9,5.299,3.2,7.799
	c1.54,2.668,3.394,5.143,5.521,7.371c2.32,2.666,4.653,5.303,7,7.91c0.732,0.953,1.643,1.754,2.68,2.359
	c1.074,0.598,2.393,0.539,3.41-0.15c0.383-0.332,0.687-0.746,0.89-1.209c0.541-1.123,0.789-2.365,0.721-3.611
	c-0.097-2.049-1.007-3.975-2.53-5.35c-1-0.83-2.2-1.51-2.61-2.699c-0.179-0.652-0.219-1.332-0.12-2c0.5-5.891,1-11.84,2.761-17.48
	c1.319-4.221,3.369-8.561,2.39-12.869c-0.653-0.201-1.322-0.344-2-0.43c0.686-0.799,1.413-1.561,2.18-2.281
	c3.54-3.32,7.85-5.73,12.11-8.1l18.801-10.48c0.867,4.814,1.742,9.617,2.629,14.41c0.311,1.66,0.611,3.32,0.91,5l4.221,22.98
	c0.373,1.854,0.645,3.727,0.811,5.609c0.119,1.861,0,3.721,0,5.57c0.031,2.076-0.092,4.152-0.371,6.211
	c-0.219,1.154-0.518,2.293-0.889,3.41h-0.141c-0.389,0.291-0.67,0.701-0.801,1.17c-1.193,2.75-1.982,5.662-2.34,8.639
	c-0.281,2.361,0.209,4.752,1.4,6.811c0.225,0.455,0.57,0.84,1,1.109c0.506,0.207,1.057,0.287,1.6,0.23l24.711-0.52
	c3.039-0.146,6.088-0.035,9.109,0.33c2.4,0.359,4.76,1,7.18,1.189c5.631,0.34,11-2.199,16-4.67c0.816-0.283,1.518-0.824,2-1.539
	C669.426,794.605,669.434,793.761,669.139,793z"/>
<path fill="#FF6984" d="M537.08,464.88c-0.186-1.293-0.278-2.596-0.28-3.9c-0.001-9.113,4.594-17.611,12.22-22.6
	c0.841-26,18.53-46.811,40.231-46.811c22.24,0,40.27,21.83,40.27,48.75s-18,48.74-40.27,48.74c-2.098-0.002-4.189-0.195-6.25-0.58
	c-2.631,14.678-16.663,24.443-31.34,21.814c-14.678-2.631-24.444-16.662-21.813-31.34
	C530.798,473.646,533.317,468.744,537.08,464.88L537.08,464.88z"/>
<path opacity="0.1" enable-background="new    " d="M591.37,397.93c-21.7,0-39.389,20.781-40.23,46.8
	c-7.629,4.99-12.225,13.494-12.22,22.609c0.002,1.305,0.096,2.609,0.28,3.9c-4.942,5.041-7.707,11.82-7.7,18.881
	c0.004,1.119,0.074,2.238,0.21,3.35c-3.799-9.863-1.493-21.037,5.9-28.59c-0.186-1.293-0.278-2.596-0.28-3.9
	c-0.002-9.113,4.594-17.611,12.22-22.6c0.84-26,18.53-46.811,40.23-46.811c19.141,0,35.16,16.17,39.25,37.84
	C623.28,411.009,608.59,397.93,591.37,397.93z"/>
<path fill="#F4C2B3" d="M614.04,450.47c-0.195,1.592-0.018,3.209,0.52,4.721c0.932,2.148,3.211,4.068,2.541,6.309
	c-0.43,1.451-2,2.25-3.381,2.73c-6.76,2.289-14.139,0.93-21.27,1.24c-2.377,0.207-4.764,0.291-7.15,0.25
	c-2.404-0.053-4.732-0.865-6.648-2.32c3.715-1.811,7.221-4.021,10.459-6.59c0.779-0.578,1.484-1.25,2.1-2
	c1.521-2,1.75-4.67,1.84-7.18s0.07-5,0-7.461c5.113-0.059,10.217-0.082,15.311-0.07c1.641,0,6.641-0.398,7.211,1.371
	c0.289,0.879-0.811,3.459-1,4.449C614.309,447.429,614.139,448.951,614.04,450.47z"/>
<path fill="#FDCCBA" d="M639.45,543.009c0.744,5.684,0.057,11.461-2,16.811c-10.982-1.15-22.018-1.73-33.061-1.74
	c1.904-2.553,3.121-5.551,3.531-8.709c0.275-2.961,0.275-5.939,0-8.9l21.439-0.07c1.572-0.068,3.146,0.049,4.689,0.35
	C636.209,541.24,637.35,542.621,639.45,543.009z"/>
<path fill="#A0616A" d="M645.459,554.81c1.1,1.811,2.43,3.459,3.65,5.189c2.271,3.248,4.277,6.672,6,10.24
	c2.16,4.359,4.09,8.859,6.711,13c1.477,2.016,2.736,4.18,3.76,6.461c0.732,2.174,1.102,4.455,1.09,6.75
	c0.08,3.049-0.189,6.318-2,8.75c-1.643,2.111-4.232,3.264-6.9,3.068c-1.344-0.074-2.617-0.627-3.59-1.559
	c-1.811-1.85-1.631-4.82-1.15-7.361c0.34-1.779,0.77-3.648,0.201-5.369c-0.354-0.852-0.768-1.678-1.24-2.471
	c-0.838-1.928-1.352-3.982-1.521-6.08c-0.539-4-1.109-8.289-3.68-11.439c-1.369-1.699-3.23-2.939-4.58-4.65
	c-0.709-0.898-1.27-1.91-2-2.76c-1.07-1.219-2.559-2.15-3.18-3.65c-0.291-0.977-0.479-1.982-0.561-3
	c-0.408-1.617-0.998-3.184-1.76-4.67c-2.449-5.609-3.109-11.818-3.729-17.91c2.629-0.104,5.227-0.617,7.699-1.52
	C637.85,535.98,644.709,553.531,645.459,554.81z"/>
<path fill="#F4C2B3" d="M645.459,554.81c1.1,1.811,2.43,3.459,3.65,5.189c2.271,3.248,4.277,6.672,6,10.24
	c2.16,4.359,4.09,8.859,6.711,13c1.477,2.016,2.736,4.18,3.76,6.461c0.732,2.174,1.102,4.455,1.09,6.75
	c0.08,3.049-0.189,6.318-2,8.75c-1.643,2.111-4.232,3.264-6.9,3.068c-1.344-0.074-2.617-0.627-3.59-1.559
	c-1.811-1.85-1.631-4.82-1.15-7.361c0.34-1.779,0.77-3.648,0.201-5.369c-0.354-0.852-0.768-1.678-1.24-2.471
	c-0.838-1.928-1.352-3.982-1.521-6.08c-0.539-4-1.109-8.289-3.68-11.439c-1.369-1.699-3.23-2.939-4.58-4.65
	c-0.709-0.898-1.27-1.91-2-2.76c-1.07-1.219-2.559-2.15-3.18-3.65c-0.291-0.977-0.479-1.982-0.561-3
	c-0.408-1.617-0.998-3.184-1.76-4.67c-2.449-5.609-3.109-11.818-3.729-17.91c2.629-0.104,5.227-0.617,7.699-1.52
	C637.85,535.98,644.709,553.531,645.459,554.81z"/>
<circle fill="#FDCCBA" cx="603.559" cy="430.25" r="18.01"/>
<path fill="#F4C2B3" d="M639.481,613.9c3.389,4,4.719,9.359,5.939,14.48l4.5,18.82c1.984,7.627,3.523,15.363,4.609,23.17
	c0.529,4.43,0.75,9-0.73,13.25c-1.232,3.123-3.029,5.994-5.299,8.469c-4.832,5.797-10.742,10.602-17.4,14.15
	c-3.529,1.83-7.26,3.23-10.881,4.859c-5.41,2.432-10.58,5.352-15.75,8.271l-19.42,11c-4.17,2.359-8.379,4.75-11.849,8.049
	c-3.226,3.066-5.709,6.83-7.26,11c-0.266,1.098-0.863,2.086-1.71,2.83c-1.101,0.76-2.601,0.51-3.881,0.121
	c-9.692-3.221-16.038-12.521-15.5-22.721c14.276-4.994,27.454-12.699,38.811-22.689c8.67-7.631,16.49-16.73,27.07-21.371
	c4.619-2,10.18-3.57,12.34-8.139c0.828-2.123,1.213-4.393,1.129-6.67c0.189-6.271,0.381-12.611-0.82-18.771
	c-1-5.199-3-10.17-4.469-15.26c-3-10.189-4-20.84-5-31.42c6.912-0.818,13.867-1.23,20.83-1.23c0.611-0.074,1.229,0.09,1.719,0.461
	c0.311,0.395,0.494,0.871,0.531,1.369C637.549,608.679,637.68,611.81,639.481,613.9z"/>
<path fill="#3F3D56" d="M537.54,737.97c3.479,6.18,6.963,12.363,10.45,18.549c0.81,1.432,1.62,2.871,2.29,4.371
	c1.13,2.549,1.85,5.26,3.13,7.74c1.505,2.645,3.317,5.102,5.399,7.32l6.82,7.859c0.718,0.941,1.61,1.736,2.63,2.34
	c1.05,0.596,2.349,0.537,3.34-0.15c0.371-0.338,0.667-0.75,0.87-1.209c0.532-1.115,0.772-2.348,0.7-3.58
	c-0.093-2.029-0.984-3.938-2.479-5.311c-0.94-0.82-2.15-1.5-2.551-2.68c-0.174-0.652-0.215-1.332-0.119-2
	c0.489-5.85,1-11.75,2.71-17.35c1.29-4.191,3.29-8.5,2.33-12.781c-1.82-0.549-4.19-0.93-5.28,0.631c-2.12,3-2.25,1.9-5.521,1.439
	c-3.27-0.459-6.34-0.66-8.729-3.221c-3.181-3.379-2.91-8.619-2.44-13.229c-3.35-0.16-6.54,1.049-9.569,2.57
	c-1.07,0.539-2.11,1.109-3.141,1.68c-0.568,0.268-1.084,0.637-1.52,1.09C535.49,733.669,536.49,736.121,537.54,737.97z"/>
<path fill="#3839B0" d="M638.139,598.871c1.127,3.66,2.01,7.391,2.641,11.17c0.311,2.08,0.461,4.18,0.621,6.27
	c-7.111,1.689-14.49,1.77-21.801,1.85l-30.471,0.33c-0.67-4.104-0.947-8.264-0.83-12.42c0.432-6.83,3-13.5,2.57-20.33
	c8.361-1.488,16.814-2.41,25.301-2.76c1.543-0.156,3.104-0.008,4.59,0.439c1.379,0.5,2.529,1.49,3.859,2.121
	c3,1.42,7.461,0.719,10,3C636.93,590.669,637.321,595.951,638.139,598.871z"/>
<path fill="#FDCCBA" d="M636.411,608.951c2.299,10.84-0.131,22.049-0.701,33.119c-0.4,7.92,0.16,15.859,0.391,23.791
	c0.133,2.277,0.029,4.563-0.311,6.818c-0.428,2-1.033,3.959-1.809,5.852l-2.74,7.299c-2.57,6.859-5.191,14.211-2.57,21.359
	c0.699,1.844,0.838,3.85,0.4,5.771c-3.92,16.389-0.391,33.789,0.17,50.629c-0.049,1.658,0.24,3.309,0.85,4.85
	c1.4,3,4.85,4.4,6.66,7.131c2.199,3.311,1.41,8-1.18,11s-6.621,4.49-10.58,4.82c-4.951,0.41-9.91-0.791-14.771-1.58l-0.539-0.52
	c-0.609-3.371,1.24-6.49,1.82-9.941c0.273-2.045,0.396-4.105,0.369-6.17c0-1.84,0.1-3.689,0-5.529
	c-0.164-1.869-0.428-3.729-0.789-5.57l-4.141-22.92l-0.891-4.939l-3.709-20.58c-0.701-3.891,1-8.24,1.459-12.16
	c0.93-8.131,1.861-16.301,1.59-24.471c-0.031-2.244-0.295-4.479-0.789-6.67c-0.529-2.027-0.84-4.105-0.93-6.199
	c-0.061-2.52-1.07-5-2.061-7.48c-3.289-8.311-3.16-17.5-3.869-26.41c-0.076-1.887-0.412-3.754-1-5.549
	c-1-2.721-3.08-4.9-4.701-7.311c-1.619-2.41-2.85-5.42-1.93-8.18c1.461-4.41,7.449-5.82,11.08-7.111
	c6.223-2.27,13.008-2.496,19.369-0.648C626.151,603.242,631.479,605.763,636.411,608.951z"/>
<path fill="#3F3D56" d="M608.79,799.32c0.225,0.453,0.57,0.834,1,1.1c0.502,0.203,1.043,0.281,1.58,0.23l24.18-0.52
	c2.979-0.146,5.963-0.035,8.92,0.33c2.352,0.35,4.65,1,7,1.18c5.5,0.34,10.73-2.18,15.67-4.641c0.785-0.295,1.457-0.83,1.92-1.529
	c0.297-0.76,0.297-1.602,0-2.359c-0.436-1.57-1.387-2.947-2.699-3.91c-0.156-0.113-0.32-0.217-0.49-0.311
	c-1.355-0.645-2.822-1.023-4.32-1.121c-5.619-0.738-11.529-1.84-15.789-5.58c-1.23-1.068-2.27-2.328-3.41-3.5
	c-2.402-2.334-4.998-4.463-7.76-6.359c-0.535-0.514-1.258-0.789-2-0.76c-0.418,0.115-0.801,0.336-1.109,0.641
	c-1.162,0.818-2.072,1.943-2.631,3.25c-0.504,1.365,0.043,2.895,1.301,3.629c1,0.391,2,0.191,2.818,0.73
	c-1.738,1.26-4.43,1.891-6.389,3.199c-1.938,1.488-4.111,2.637-6.43,3.4c-2.361,0.611-5.17,0.191-6.711-1.699
	c-0.83-1-1.881-2.57-3-1.9c-0.385,0.285-0.662,0.689-0.789,1.15c-1.172,2.738-1.943,5.631-2.291,8.59
	C607.098,794.908,607.6,797.279,608.79,799.32z"/>
<path fill="#160E5C" d="M615.299,546.16c1.398-0.027,2.793,0.127,4.15,0.461c1.295,0.422,2.537,0.992,3.701,1.699l13.25,7.34
	c0.973,0.486,1.877,1.098,2.689,1.82c1.91,1.83,2.459,4.66,2.57,7.311c0.449,10.299-4.201,20.18-4.791,30.479
	c-0.258,4.596,0.299,9.199,1.641,13.602c0.33,1.09,0.66,2.42-0.141,3.24c-0.291,0.262-0.631,0.467-1,0.6
	c-4.189,1.629-8.76,2-13.24,2.33c-11,0.84-22.059,1.68-33,0.209c-0.545-0.031-1.076-0.182-1.559-0.439
	c-0.625-0.494-1.088-1.162-1.33-1.92c-1.381-3.234-2.715-6.473-4-9.721c-2.23-5.459-4.42-11.199-3.861-17.07
	c0.701-7.279,5.48-13.43,8.271-20.199c0.84-2,1.5-4.119,2.51-6.051c1.129-1.977,2.393-3.875,3.779-5.68c1.07-1.529,2.1-5,3.41-6
	c1.6-1.309,6.119-1.279,8.15-1.52C609.42,546.298,612.36,546.136,615.299,546.16z"/>
<path opacity="0.1" enable-background="new    " d="M537.54,737.97c3.479,6.18,6.963,12.363,10.45,18.549
	c0.81,1.432,1.62,2.871,2.29,4.371c1.13,2.549,1.85,5.26,3.13,7.74c1.505,2.645,3.317,5.102,5.399,7.32l6.82,7.859
	c0.718,0.941,1.61,1.736,2.63,2.34c1.05,0.596,2.349,0.537,3.34-0.15c0.371-0.338,0.667-0.75,0.87-1.209
	c0.532-1.115,0.772-2.348,0.7-3.58c-2.483-1.213-4.727-2.867-6.62-4.881c-1.486-1.789-2.779-3.73-3.859-5.789
	c-0.934-1.646-1.87-3.314-2.811-5c-4.826-8.494-9.66-16.986-14.5-25.48c-1.998-3.316-3.311-6.998-3.859-10.83
	c-1.07,0.539-2.11,1.109-3.141,1.68c-0.568,0.268-1.084,0.637-1.52,1.09C535.49,733.669,536.49,736.121,537.54,737.97z"/>
<path opacity="0.1" enable-background="new    " d="M608.79,799.32c0.225,0.453,0.57,0.834,1,1.1c0.502,0.203,1.043,0.281,1.58,0.23
	l24.18-0.52c2.979-0.146,5.963-0.035,8.92,0.33c2.352,0.35,4.65,1,7,1.18c5.5,0.34,10.73-2.18,15.67-4.641
	c0.785-0.295,1.457-0.83,1.92-1.529c0.297-0.76,0.297-1.602,0-2.359c-0.436-1.57-1.387-2.947-2.699-3.91
	c-0.35,0.219-0.68,0.459-1,0.689c-3.268,2.432-7.018,4.137-11,5c-3.912,0.701-7.887,0.99-11.859,0.859
	c-9.131,0-18.33,0.061-27.35-1.58c-1.82-0.33-5.512-2-7.801-1.57C607.1,794.937,607.604,797.291,608.79,799.32z"/>
<path fill="#FA5252" d="M581.901,458.81c8.758,1.49,17.615,2.33,26.5,2.51c2.189,0,4.84-0.221,5.809-2.18
	c0.451-0.92,0.42-2.061,1.061-2.871c1.189-1.51,3.59-0.76,5.301,0.111c2.398,1.219,4.908,2.539,6.34,4.82
	c0.943,1.762,1.551,3.684,1.789,5.67c0.84,4.229,2.109,8.648,5.32,11.529c1.66,1.49,3.75,2.461,5.35,4c2.59,2.52,3.6,6.301,3.6,9.91
	s-0.859,7.16-1.51,10.721c-2.371,13.131-1.688,26.635,2,39.459c0.176,0.455,0.223,0.949,0.141,1.43c-0.25,0.92-1.371,1.25-2.32,1.4
	c-14.67,2.42-30.42,0.131-43.92,6.359c-1.131-2.779-3.91-4.35-5.289-7c-1.111-2.148-1-4.709-1.25-7.119
	c-0.811-6.51-5-12.061-7.32-18.189c-2.07-5.371-2.791-11.281-5.68-16.26c-1-1.762-2.311-3.371-3.32-5.15
	c-0.926-1.758-1.719-3.584-2.371-5.461c-1.364-3.211-2.286-6.592-2.74-10.049c-0.58-7,2.67-13.691,6.511-19.531
	C577.389,460.679,579.241,458.361,581.901,458.81z"/>
<path opacity="0.1" fill="none" stroke="#000000" stroke-miterlimit="10" enable-background="new    " d="M624.389,483.701
	c1.682,0.369,2.66,2.059,3.441,3.59c0.525,0.959,0.967,1.963,1.32,3c0.463,1.75,0.648,3.563,0.549,5.369
	c0.037,1.148-0.084,2.295-0.359,3.41c-0.295,1.123-1.012,2.09-2,2.699"/>
<ellipse transform="matrix(-0.2477 -0.9688 0.9688 -0.2477 343.1951 1100.8696)" fill="#FF6984" cx="599.023" cy="417.185" rx="9.94" ry="20.13"/>
<path opacity="0.1" enable-background="new    " d="M600.401,423.16c9.58-2.449,16.67-7.891,17.17-12.799
	c0.436,0.561,0.756,1.203,0.939,1.889c1.359,5.32-6.27,11.861-17,14.621s-20.609,0.67-22-4.65c-0.154-0.59-0.197-1.203-0.131-1.811
	C582.35,424.291,591.02,425.56,600.401,423.16z"/>
<path fill="#FCBD24" d="M582.969,605.201l-2.52,2.52l8.1,8.1l18-18l-2.52-2.52l-15.48,15.391L582.969,605.201z M604.75,608.621
	c-0.006,7.92-6.432,14.334-14.352,14.328s-14.334-6.43-14.328-14.35s6.43-14.336,14.35-14.33c1.314,0.002,2.625,0.184,3.889,0.541
	l2.791-2.791c-2.133-0.912-4.432-1.371-6.75-1.35c-9.941,0-18,8.059-18,18s8.059,18,18,18s18-8.059,18-18l0,0L604.75,608.621z"/>
<path fill="#F4C2B3" d="M589.85,489c-0.488-5.041-2.205-9.885-5-14.109c-1.1-1.84-2.666-3.357-4.541-4.4
	c-1.92-1.021-4.26-0.84-6,0.471c-1.067,1.115-1.816,2.496-2.169,4c-2.513,6.457-3.598,13.383-3.18,20.299
	c0,6.301,0.09,12.682,1.68,18.781c0.91,3.459,2.301,6.789,3,10.299c0.701,3.51,0.611,7.361-1.269,10.4
	c-1.524,2.354-2.662,4.938-3.37,7.65c-0.644,3.258-0.849,6.588-0.61,9.9l0.261,9.109c0.33,11.881,0.659,23.881-1.721,35.52
	c-1.08,5.32-3.8,10.34-3.18,15.73c0.305,1.947,0.862,3.848,1.66,5.65c1,2.6,2.25,5.41,4.74,6.67c1.209,0.549,2.521,0.836,3.85,0.84
	c1.648,0.086,3.303,0.016,4.939-0.211c1-0.139,2.301-0.809,2-1.77c-0.158-0.318-0.4-0.588-0.699-0.779
	c-2.59-2.08-4.1-5.219-4.111-8.541c0-4.719,3.08-9.25,2.131-13.869c-0.59-2.859-2.701-5.631-1.82-8.41c2-6.279,2.26-13,4-19.4
	l1.68-6.24c1-3.719,2-7.43,2.811-11.189c2.271-10.398,3.18-21.047,2.699-31.68c-0.07-1.66,0.852-3.551,1-5.199
	c0.16-2,0-3.922,0-5.871C588.61,504.589,590.651,497.019,589.85,489z"/>
</svg>
