<?xml version="1.0" encoding="utf-8"?>
<!-- Generator: Adobe Illustrator 16.0.0, SVG Export Plug-In . SVG Version: 6.00 Build 0)  -->
<!DOCTYPE svg PUBLIC "-//W3C//DTD SVG 1.1//EN" "http://www.w3.org/Graphics/SVG/1.1/DTD/svg11.dtd">
<svg version="1.1" id="a6dc9487-50e2-4fb9-af91-bf1b7118d463"
	 xmlns="http://www.w3.org/2000/svg" xmlns:xlink="http://www.w3.org/1999/xlink" x="0px" y="0px" width="1103.79px"
	 height="707.8px" viewBox="0 0 1103.79 707.8" enable-background="new 0 0 1103.79 707.8" xml:space="preserve">
<title>mind map</title>
<ellipse opacity="0.1" fill="#6C63FF" enable-background="new    " cx="843.389" cy="664.8" rx="192" ry="43"/>
<g opacity="0.1">
	<path fill="#6C63FF" d="M625.02,26.79c0,156.1,97.93,282.41,219,282.41"/>
</g>
<path opacity="0.1" fill="#6C63FF" enable-background="new    " d="M627.42,130.03c-70.75,0.54-138.73-15.45-203.73-33.271
	c-65-17.82-129.47-37.86-198.791-46.04c-44.62-5.27-95.4-4.44-130.47,16c-33.75,19.66-43.74,51.89-48.67,81.63
	c-3.71,22.38-5.52,45.86,7.54,66.22c9.02,14.13,24.6,25.729,35.6,39.189c38.26,46.83,14.53,107.1-23.41,155.509
	c-17.79,22.711-38.6,44.5-52.1,68.48s-19.18,51.1-5.79,74.6c13.28,23.281,43.54,40,76.09,51.451
	c66.13,23.1,143.21,27.699,218.26,29.16c166.14,3.25,332.71-6.631,498.83-16.5c61.471-3.66,123.221-7.34,183.48-17.15
	c33.459-5.449,67.92-13.439,91.74-30.609c30.25-21.801,36.68-57.111,15-82.33c-36.371-42.291-133-49.68-159-95.531
	c-14.311-25.239-1.57-54.369,17-78.919c39.939-52.64,108.35-100,110-158.62c1.1-40.25-34-79.28-86.68-96.43
	c-55.25-18-130.791-12.79-169.852,21.61C762.241,113.9,689.901,129.56,627.42,130.03z"/>
<path fill="#FFFFFF" d="M946.901,31.19v518.409c0,15.42-14.881,28-33.24,28H210.24c-18.36,0-33.23-12.539-33.23-28V31.19
	C177.01,15.74,191.88,0,210.24,0l703.331,1.71C931.901,1.71,946.901,15.74,946.901,31.19z"/>
<path fill="#0117FF" d="M946.901,31.35v24H177.01v-24c0-17.31,14.03-31.345,31.34-31.35H915.5c17.318-0.022,31.377,14,31.4,31.32
	C946.901,31.33,946.901,31.34,946.901,31.35z"/>
<circle opacity="0.8" fill="#FF9494" enable-background="new    " cx="214.3" cy="27.67" r="11.08"/>
<circle opacity="0.8" fill="#FED253" enable-background="new    " cx="246.53" cy="27.67" r="11.08"/>
<circle opacity="0.8" fill="#8CCF4D" enable-background="new    " cx="278.76" cy="27.67" r="11.08"/>
<path opacity="0.2" fill="#FCBD24" enable-background="new    " d="M465.57,170.7h52.87c4.732,0,8.569,3.837,8.569,8.57v16.08
	c0,4.733-3.837,8.57-8.569,8.57h-52.87c-4.733,0-8.57-3.837-8.57-8.57v-16.08C457,174.537,460.837,170.7,465.57,170.7z"/>
<path opacity="0.2" fill="#FCBD24" enable-background="new    " d="M607.411,170.7h52.869c4.732,0,8.57,3.837,8.57,8.57v16.08
	c0,4.733-3.838,8.57-8.57,8.57h-52.869c-4.734,0-8.57-3.837-8.57-8.57v-16.08C598.84,174.537,602.676,170.7,607.411,170.7z"/>
<polyline fill="none" stroke="#0117FF" stroke-miterlimit="10" points="491.81,203.17 561.889,294.68 634.081,202.74 "/>
<path opacity="0.1" enable-background="new    " d="M516.94,291.75h89.89c4.732,0,8.57,3.837,8.57,8.57v33.65
	c0,4.733-3.838,8.57-8.57,8.57h-89.89c-4.733,0-8.57-3.837-8.57-8.57v-33.65C508.37,295.587,512.207,291.75,516.94,291.75z"/>
<path fill="#000B90" d="M519.12,292.79h85.541c4.732,0,8.57,3.837,8.57,8.57v31.59c0,4.733-3.838,8.57-8.57,8.57H519.12
	c-4.733,0-8.57-3.837-8.57-8.57v-31.59C510.55,296.627,514.387,292.79,519.12,292.79z"/>
<line fill="none" stroke="#0117FF" stroke-miterlimit="10" x1="492.29" y1="170.7" x2="491.38" y2="138.35"/>
<polyline fill="none" stroke="#0117FF" stroke-miterlimit="10" points="675.219,139.93 634.081,170.7 590.809,139.93 "/>
<path opacity="0.2" fill="#FCBD24" enable-background="new    " d="M465.18,106.7h52.87c4.733,0,8.57,3.837,8.57,8.57v16.08
	c0,4.733-3.837,8.57-8.57,8.57h-52.87c-4.732,0-8.569-3.837-8.569-8.57v-16.08C456.61,110.537,460.447,106.7,465.18,106.7z"/>
<path opacity="0.2" fill="#FCBD24" enable-background="new    " d="M648.78,106.7h52.871c4.732,0,8.568,3.837,8.568,8.57v16.08
	c0,4.733-3.836,8.57-8.568,8.57H648.78c-4.732,0-8.57-3.837-8.57-8.57v-16.08C640.209,110.537,644.047,106.7,648.78,106.7z"/>
<path opacity="0.2" fill="#FCBD24" enable-background="new    " d="M564.379,106.7h52.871c4.732,0,8.57,3.837,8.57,8.57v16.08
	c0,4.733-3.838,8.57-8.57,8.57h-52.871c-4.732,0-8.57-3.837-8.57-8.57v-16.08C555.809,110.537,559.647,106.7,564.379,106.7z"/>
<line fill="none" stroke="#0117FF" stroke-miterlimit="10" x1="561.889" y1="341.51" x2="561.62" y2="430.009"/>
<path fill="none" stroke="#3F3D56" stroke-miterlimit="10" d="M561.43,462.49L561.43,462.49z"/>
<polyline fill="none" stroke="#0117FF" stroke-miterlimit="10" points="462.42,493.111 561.42,462.48 660.821,492.89 "/>
<path opacity="0.2" fill="#FCBD24" enable-background="new    " d="M535.19,430.009h52.869c4.734,0,8.57,3.838,8.57,8.57v16.08
	c0,4.734-3.836,8.57-8.57,8.57H535.19c-4.733,0-8.57-3.836-8.57-8.57v-16.08C526.62,433.847,530.457,430.009,535.19,430.009z"/>
<path opacity="0.2" fill="#FCBD24" enable-background="new    " d="M865.389,239.2v52.87c0,4.733-3.836,8.57-8.568,8.57h-16.08
	c-4.734,0-8.57-3.837-8.57-8.57V239.2c0-4.733,3.836-8.57,8.57-8.57h16.08C861.553,230.63,865.389,234.467,865.389,239.2z"/>
<path opacity="0.2" fill="#FCBD24" enable-background="new    " d="M832.17,401.701V348.83c0-4.733,3.836-8.57,8.57-8.57h16.08
	c4.732,0,8.568,3.837,8.568,8.57v52.871c0,4.732-3.836,8.568-8.568,8.568h-16.08C836.006,410.269,832.17,406.433,832.17,401.701z"/>
<path opacity="0.2" fill="#FCBD24" enable-background="new    " d="M634.389,492.66h52.871c4.732,0,8.57,3.838,8.57,8.57v16.08
	c0,4.732-3.838,8.57-8.57,8.57h-52.871c-4.732,0-8.568-3.838-8.568-8.57v-16.08C625.821,496.498,629.657,492.66,634.389,492.66z"/>
<path opacity="0.2" fill="#FCBD24" enable-background="new    " d="M488.86,525.89h-52.87c-4.733,0-8.57-3.838-8.57-8.57v-16.08
	c0-4.732,3.837-8.57,8.57-8.57h52.87c4.732,0,8.569,3.838,8.569,8.57v16.08C497.43,522.052,493.593,525.89,488.86,525.89z"/>
<path opacity="0.2" fill="#FCBD24" enable-background="new    " d="M589.799,525.89h-52.87c-4.732,0-8.569-3.838-8.569-8.57v-16.08
	c0-4.732,3.837-8.57,8.569-8.57h52.87c4.734,0,8.57,3.838,8.57,8.57v16.08C598.37,522.052,594.534,525.89,589.799,525.89z"/>
<line fill="none" stroke="#0117FF" stroke-miterlimit="10" x1="801" y1="320.45" x2="832.161" y2="374.94"/>
<line fill="none" stroke="#0117FF" stroke-miterlimit="10" x1="735.11" y1="319.78" x2="767.821" y2="319.78"/>
<line fill="none" stroke="#0117FF" stroke-miterlimit="10" x1="613.231" y1="317.15" x2="702.51" y2="319.78"/>
<line fill="none" stroke="#3F3D56" stroke-miterlimit="10" x1="832.161" y1="265.63" x2="801.151" y2="320.21"/>
<path opacity="0.2" fill="#FCBD24" enable-background="new    " d="M735.731,293.14v52.87c0,4.733-3.838,8.57-8.57,8.57h-16.08
	c-4.734,0-8.57-3.836-8.57-8.57v-52.87c0-4.733,3.836-8.57,8.57-8.57h16.08C731.893,284.57,735.731,288.407,735.731,293.14z"/>
<path opacity="0.2" fill="#FCBD24" enable-background="new    " d="M801,294.01v52.87c0,4.733-3.838,8.571-8.57,8.571h-16.08
	c-4.732,0-8.57-3.837-8.57-8.571v-52.87c0-4.733,3.838-8.57,8.57-8.57h16.08C797.163,285.44,801,289.277,801,294.01z"/>
<path opacity="0.2" fill="#FCBD24" enable-background="new    " d="M291.61,239.19v52.87c0,4.733-3.837,8.57-8.57,8.57h-16.08
	c-4.733,0-8.57-3.837-8.57-8.57v-52.87c0-4.733,3.837-8.57,8.57-8.57h16.08C287.773,230.62,291.61,234.457,291.61,239.19z"/>
<path opacity="0.2" fill="#FCBD24" enable-background="new    " d="M258.39,401.701V348.83c0-4.733,3.837-8.57,8.57-8.57h16.08
	c4.733,0,8.57,3.837,8.57,8.57v52.871c0,4.732-3.837,8.568-8.57,8.568h-16.08C262.227,410.269,258.39,406.433,258.39,401.701z"/>
<line fill="none" stroke="#0117FF" stroke-miterlimit="10" x1="322.78" y1="320.45" x2="291.61" y2="374.94"/>
<line fill="none" stroke="#0117FF" stroke-miterlimit="10" x1="388.66" y1="319.78" x2="355.96" y2="319.78"/>
<line fill="none" stroke="#0117FF" stroke-miterlimit="10" x1="510.55" y1="317.15" x2="421.27" y2="319.78"/>
<line fill="none" stroke="#0117FF" stroke-miterlimit="10" x1="291.61" y1="265.63" x2="322.62" y2="320.21"/>
<path opacity="0.2" fill="#FCBD24" enable-background="new    " d="M421.27,293.15v52.87c0,4.733-3.836,8.569-8.569,8.569h-16.08
	c-4.733,0-8.57-3.836-8.57-8.569v-52.87c0-4.733,3.837-8.57,8.57-8.57h16.08C417.434,284.58,421.27,288.417,421.27,293.15z"/>
<path opacity="0.2" fill="#FCBD24" enable-background="new    " d="M356,294.01v52.87c0,4.733-3.837,8.571-8.57,8.571h-16.08
	c-4.732,0-8.569-3.837-8.569-8.571v-52.87c0-4.733,3.837-8.57,8.569-8.57h16.08C352.163,285.44,356,289.277,356,294.01z"/>
<path fill="#9AE586" d="M108.02,501.9c0,50.24,31.52,90.9,70.47,90.9"/>
<path fill="#2BC48B" d="M178.49,592.791c0-50.811,35.18-91.92,78.65-91.92"/>
<path fill="#2BC48B" d="M133.56,506.451c0,47.719,20.1,86.34,44.93,86.34"/>
<path fill="#9AE586" d="M178.49,592.791c0-64.92,40.66-117.451,90.9-117.451"/>
<ellipse opacity="0.1" fill="#6C63FF" enable-background="new    " cx="175.43" cy="607.19" rx="17.52" ry="2.96"/>
<path fill="#524F63" d="M163.67,593.429c0,0,10-0.309,13-2.449s15.37-4.711,16.12-1.27c0.75,3.439,15,17.109,3.73,17.199
	s-26.22-1.76-29.22-3.59S163.67,593.429,163.67,593.429z"/>
<path opacity="0.2" enable-background="new    " d="M196.73,605.71c-11.28,0.09-26.21-1.75-29.22-3.59
	c-2.29-1.391-3.2-6.391-3.51-8.701h-0.33c0,0,0.63,8.061,3.64,9.891c3.01,1.83,17.94,3.68,29.22,3.59c3.26,0,4.38-1.189,4.32-2.9
	C200.4,605.05,199.16,605.691,196.73,605.71z"/>
<linearGradient id="SVGID_1_" gradientUnits="userSpaceOnUse" x1="891.7896" y1="-81.9697" x2="891.7896" y2="185.9653" gradientTransform="matrix(1 0 0 -1 -48.1001 612.7002)">
	<stop  offset="0" style="stop-color:#808080;stop-opacity:0.25"/>
	<stop  offset="0.54" style="stop-color:#808080;stop-opacity:0.12"/>
	<stop  offset="1" style="stop-color:#808080;stop-opacity:0.1"/>
</linearGradient>
<path fill="url(#SVGID_1_)" d="M956.219,648.791l-27.67-40.121c0,0-0.52-9.93-2.33-12.26c-1.809-2.33-0.389-7.48-0.389-7.48
	s1.939-2.84,0.26-3.09s-0.26-6.58-0.26-6.58l-0.131-10.068c0,0,1.551-9.672,0.26-12c-0.77-1.285-0.719-2.898,0.131-4.131
	c0,0,1.549-5.551,0-7c-1.551-1.449-1.17-10.061-0.781-16.891c0.391-6.83-2.709-10.709-2.709-11.74c0-1.029-10.221-11.1-10.221-12
	c0-0.898-6.459-4.639-10.34-5.68c-3.879-1.039-5.82-1.799-5.689-2.32c0.131-0.52-6.08-2.58-6.08-2.58s-5.43-0.379-7.5-3.09
	c-2.07-2.709-8.4-3.5-8.57-3.52c0-0.18-0.09-0.359-0.119-0.539l-0.121-0.58c0.49-0.82,0.941-1.66,1.35-2.531l0.361-0.789
	c2.275,0.008,4.498-0.691,6.359-2c1.846-1.547,2.967-3.787,3.1-6.189c0.107-2.383-0.412-4.754-1.51-6.871
	c-1.141-2.33-2.799-4.73-2.23-7.25c0.25-1.09,0.9-2,1.24-3.109c0.5-2.08,0.166-4.273-0.93-6.111c-1-1.869-2.34-3.52-3.43-5.34
	c-1.393-2.311-2.32-4.873-2.73-7.539c-0.084-1.42-0.424-2.811-1-4.109c-0.584-0.918-1.357-1.697-2.27-2.291
	c-4.045-2.891-8.93-4.371-13.9-4.209c-3.52,0.119-7,1.068-10.52,0.639c-2.09-0.367-4.148-0.906-6.15-1.609
	c-4.33-1.279-9.34-1.811-13.109,0.67s-5.281,7.359-7.84,11.18c-2.271,3.381-5.58,6.211-7.301,9.791c0-0.07,0-0.141,0.051-0.211
	c-0.432,0.83-0.768,1.705-1,2.609c-0.66,2.811-0.111,5.75,0.57,8.551c0.359,1.449,0.84,3,2.09,3.82s3,0.629,4.52,0.891
	c-0.061,0.25-0.121,0.488-0.17,0.738c-3.217,15.076,5.715,30.088,20.5,34.451c0,0.26,0,0.529,0,0.779c0,0.77-0.061,1.51-0.141,2.221
	l0,0c0,0-13-2.67-16.49-0.871c-3.49,1.801-10.35,3.23-11.379,4.26c-1.031,1.031-3.621,0.262-5.951,6.32
	c-2.33,6.061-2.58,12.26-5.559,15.09c-2.98,2.83-4.521,4.781-4.65,6.842c-0.131,2.059,0.379,2.578-0.781,3.229
	s-2.84,3.35-2.33,4.381c0,0,0.65,2.58-1.42,3.869c-1.244,0.879-1.934,2.352-1.809,3.871c0,0-0.781,2.84-2.59,3.479
	c-1.811,0.641-3,4.91-3,4.91l-5.861,6.74L766.42,552.56c-1.814-2-4.904-2.158-6.91-0.35l-5.609,5.199
	c-2.203,0.533-4.193,1.717-5.711,3.4c-1.254,1.275-2.27,2.766-3,4.4l-3.119,2.82c-0.988,0.875-1.57,2.119-1.611,3.439
	c-0.828,1.773-0.508,3.873,0.811,5.32l7.439,8.24v0.068c-2.643,0.221-5.154,1.242-7.199,2.932c-11.121,9.799-11.25,18.83-9.57,23
	s15.77,20,15.77,20s8.191,10.648,20,16.309l0,0l-0.08,0.09c-0.24,0.25-0.469,0.521-0.699,0.811l-0.189,0.25l-0.182,0.25
	l-0.209,0.311l-0.16,0.25l-0.23,0.369c-0.041,0.088-0.086,0.17-0.139,0.25c-0.09,0.16-0.182,0.33-0.262,0.5l-0.09,0.17
	c-0.109,0.221-0.209,0.461-0.318,0.701c-0.111,0.24-0.07,0.18-0.102,0.26c-0.029,0.08-0.139,0.34-0.199,0.52l-0.119,0.33
	c-0.061,0.16-0.111,0.33-0.172,0.5c-0.059,0.17-0.068,0.24-0.109,0.371l-0.15,0.559l-0.09,0.35c-0.08,0.301-0.139,0.611-0.209,0.932
	l-0.061,0.369c0,0.211-0.08,0.43-0.109,0.66c-0.031,0.23-0.051,0.311-0.07,0.471c-0.02,0.158,0,0.42-0.08,0.639
	c-0.08,0.221,0,0.33-0.051,0.49c-0.049,0.16,0,0.49,0,0.74s0,0.289,0,0.449c0,0.4,0,0.82-0.049,1.25
	c-0.26,15.092,0.619,17.281,0.619,17.281s1.83,4.811,6.871,5.15c0.738,0.051,1.48,0.01,2.209-0.121
	c6.721-1.16,22.5-3.869,28.061-2.83c3.34,0.621,9.529-0.299,13.93-1.129l1.17-0.23l0.801,2.57l2.559-0.701l2.17,1.25l1.371,0.791
	c2.549,8.65,12.91,5.699,12.91,5.699l2.459,1.42l25,0.641c2.803,1.699,5.764,3.123,8.84,4.25c0.41,0.119,0.828,0.211,1.25,0.27
	c2.313,0.184,4.633,0.227,6.951,0.131c1.92,0,3.4-0.131,3.4-0.131s-0.262-6.77-0.621-14.359c9.529-0.4,18-1,23.109-1.891
	c13.262-2.34,18.811-14.5,20.861-20.98c0.611,2.635,1.045,5.309,1.299,8c0.545,2.375,1.236,4.713,2.07,7
	c0.732,1.832,1.689,3.566,2.85,5.16c9.83-3.35,3.881-8.379,1.811-10.57c-2.07-2.189,1.42-4,1.42-4s2.721-1.809,2.461-3.488
	c-0.26-1.682-0.391-3.48,8.398-3.352C956.6,656.14,956.219,648.791,956.219,648.791z M819.68,566.419
	c0.109,0.74,1.34,8.68,2.449,10.771c0.309,1.393,0.406,2.826,0.291,4.25c-5.211-0.41-10.641-0.641-10.641-0.641
	c0.158,0.189,0.256,0.424,0.281,0.67l-0.82-0.189c-0.381-0.09-0.781-0.182-1.191-0.291l9.602-14.59L819.68,566.419z M800.68,596.669
	l9,1.43l0.76,0.121c-0.258,1.406-0.414,2.83-0.471,4.26c0,0.131,0.201,0.289,0.49,0.48c-0.121,0.703-0.178,1.416-0.17,2.129
	c0.141,0.721,4.361,2.26,9.201,3.541c-0.07,0.26-0.141,0.5-0.201,0.74l0,0c-4.27-2.25-11-3.301-11.779-5
	c-0.779-1.701-23.609-9.631-23.609-9.631s-0.842-0.449-2.281-1.141l6,1.141l1.66-0.17c3.744,0.943,7.545,1.645,11.381,2.1H800.68z"
	/>
<path fill="#241798" d="M926.79,654.4c0,0-3.59,21.65-21.789,24.859c-18.201,3.211-78.939,2.561-78.939,2.561s-34.73-5-47.291-34.34
	s-20.631-41-9.869-41.529c10.76-0.531,68.818,19.609,72.148,19.869S929.991,581.22,926.79,654.4z"/>
<path fill="#FCBD24" d="M763.901,678.49c0,0,1.809,4.77,6.799,5.121c0.732,0.051,1.469,0.01,2.189-0.121
	c6.67-1.16,22.301-3.85,27.811-2.82c3.32,0.611,9.451-0.299,13.82-1.119c2.9-0.551,5-1.061,5-1.061s-5.119-17-5.77-17.561
	c-0.65-0.559-23.061-14-23.061-14l-17.789-1.238l0,0c-2.381,0.365-4.529,1.633-6,3.539c-1.871,2.27-3.48,6-3.592,12.1
	C763,676.31,763.901,678.49,763.901,678.49z"/>
<path opacity="0.05" enable-background="new    " d="M763.901,678.49c0,0,1.809,4.77,6.799,5.121c-1.738-2.24-3.348-4.576-4.82-7
	l0.09-12.432c-0.727-6.912,1.871-13.76,7-18.449h-0.068c0,0-9.352,0.641-9.611,15.641S763.901,678.49,763.901,678.49z"/>
<path opacity="0.1" enable-background="new    " d="M840.901,651.32l16.529-12.939l26-25.631c0,0-2.811-0.139-7.051-0.32
	c-1,0.67-4,2.781-4.119,5.352c-0.121,3.139-7,0.219-10.621,2c-3.619,1.779-21.1,24.279-24.18,24.119s-5.51-1.561-6.789,0.619
	l-0.09,0.141L840.901,651.32z"/>
<path opacity="0.1" enable-background="new    " d="M766.901,649.22c0.59,0.279,1.189,0.561,1.789,0.82
	c12.561,5.379,28.07,16.66,29.221,18.709c0.709,1.25,9.699,6.711,16.639,10.801c2.9-0.551,5-1.061,5-1.061s-5.119-17-5.77-17.561
	c-0.65-0.559-23.061-14-23.061-14l-17.818-1.238l0,0C770.522,646.054,768.374,647.318,766.901,649.22z"/>
<path fill="#160E5C" d="M731.991,612.49c1.67,4.1,15.639,19.859,15.639,19.859s8.84,11.541,21.4,16.92
	c12.561,5.381,28.061,16.66,29.221,18.711c0.74,1.32,10.75,7.35,17.799,11.49l1.58,0.92l3.5,2l1.852,1.07
	c0,0,4.289-3.451,8.568-6.92c4.281-3.471,8.41-6.861,8.48-7c0.121-0.381,1.791-4.74,1.4-5c-0.199-0.131-1.08-1.91-2.689-4
	c-1.723-2.287-3.961-4.139-6.531-5.4c-5.9-2.689-8.459-8.82-8.459-8.82s-0.561-0.4-1.41-0.939c-1.748-1.209-3.703-2.08-5.77-2.57
	c-2.82-0.35-8.07-6.119-8.07-6.119s-3.59-2.311-5-5.25c-1.41-2.941-21.221-16.461-23.061-17.73l48.18,30.949l11.531,7.41
	l16.539-12.939l26-25.631c0,0-3.5-0.17-8.58-0.389c-12.65-0.551-35.1-1.41-37.939-0.771c-2.293,0.537-4.658,0.693-7,0.461
	c0,0-6.4,0.289-10.631-1.939c-4.23-2.23-10.9-3.281-11.67-4.932c-0.77-1.648-23.449-9.609-23.449-9.609s-30.881-16.4-41.91-6.66
	S730.331,608.39,731.991,612.49z"/>
<path fill="#FDCCBA" d="M831.571,518.429l4,13.191l5.129,29.74l18.83,1.279l5.461-9l5.439-9c0,0,3.391-12,5.83-23.641
	c2.15-10.279,3.561-20.26,1.221-21.34c-2.08-1-3.451-4.43-4.342-8.15c-0.109-0.459-0.219-0.93-0.309-1.389
	c-0.625-3.156-1.043-6.35-1.25-9.561c0,0-39.471-2.051-34,14.23c0.986,2.777,1.49,5.703,1.49,8.65
	c-0.01,0.734-0.057,1.469-0.141,2.199C838.362,510.742,835.696,515.376,831.571,518.429z"/>
<path fill="#E3E8F4" d="M823.36,516.25l1.42,22.42l3.201,19.1l3.59,8.842l3.199,48.379c0,0,30.9,3.57,38.42-0.061
	c0.539-0.23,1.01-0.6,1.359-1.068c9.07-13.701,6.102-53.4,6.102-53.4l3.459-25.631l-2.311-13.299l-5.568-0.602l-4.291-0.449
	c0,0-1,1.189-2.369,3c-3.801,5-10.791,14.881-10.32,19c0.639,5.641-0.77,11.4-3,12.301c-2.23,0.898-4,2.439-4.35,0.898
	c-0.352-1.539-0.771-1.92-0.391-4.1c0.379-2.18-1.67-8.85-1.67-8.85s-3.461-7.811-3.201-11.15c0.262-3.34-0.379-7.17-1.408-8.07
	c-1.031-0.898-2.432-1.789-1.281-5.889c1.15-4.102-5.049-12.051-5.049-12.051L823.36,516.25z"/>
<path opacity="0.1" enable-background="new    " d="M864.18,572.259l1.289,38.32l7.4,4.1c0.537-0.23,1.006-0.596,1.361-1.059
	c9.068-13.711,6.1-53.41,6.1-53.41l3.459-25.631l-2.309-13.299l-5.57-0.602c2.15-10.279,3.559-20.26,1.219-21.34
	c-2.08-1-3.449-4.43-4.34-8.148l0,0l-4,27.109c0,0,0.33,2.449,0.451,5c0.162,1.596,0.053,3.209-0.32,4.77
	c-0.9,2.311-0.26,6.41-0.26,6.41c-2.311,4.07-3.471,11.609-4,18.891C863.901,563.031,864.18,572.259,864.18,572.259z"/>
<path fill="#FA5252" d="M872.901,490.58c0,0,6.459,0.801,8.51,3.5c2.049,2.701,7.43,3.07,7.43,3.07s6.15,2,6,2.561
	c-0.15,0.559,1.789,1.289,5.629,2.309c3.842,1.021,10.262,4.74,10.262,5.641s10.17,10.891,10.17,11.92
	c0,1.031,3.08,4.871,2.689,11.66c-0.391,6.791-0.77,15.381,0.77,16.791c1.541,1.408,0,6.92,0,6.92
	c-0.846,1.221-0.896,2.826-0.129,4.1c1.279,2.311-0.25,11.92-0.25,11.92l0.119,10c0,0-1.41,6.279,0.26,6.539s-0.26,3.08-0.26,3.08
	s-1.41,5.121,0.391,7.43c1.799,2.311,2.309,12.17,2.309,12.17l27.42,39.861c0,0,0.391,7.299-8.33,7.18
	c-8.719-0.121-8.59,1.66-8.33,3.33c0.262,1.67-2.43,3.459-2.43,3.459s-3.459,1.791-1.41,4c2.051,2.211,7.941,7.182-1.799,10.512
	c-1.148-1.588-2.096-3.311-2.82-5.131c-0.826-2.262-1.512-4.572-2.051-6.92c0,0-0.898-9.74-2.689-11
	c-1.789-1.26-1.539-7.43-1.539-7.43s2.568-5-1-7.051c-3.57-2.049-55.621-30.889-55.621-30.889l-1.299-38.371
	c0,0-0.9-28.32,4.479-37.811c0,0-0.639-4.1,0.26-6.408c0.9-2.311-0.129-9.74-0.129-9.74L872.901,490.58z"/>
<path opacity="0.1" enable-background="new    " d="M839.331,505.96c0,0-12.891-2.66-16.35-0.861
	c-3.461,1.801-10.25,3.201-11.281,4.23c-1.029,1.031-3.58,0.25-5.891,6.281c-2.309,6.029-2.559,12.17-5.51,15
	c-2.949,2.83-4.49,4.738-4.619,6.789c-0.131,2.051,0.391,2.561-0.76,3.211c-1.15,0.648-2.82,3.33-2.311,4.35
	s26.65,23.58,26.65,23.58s1.289,8.59,2.439,10.77s-1.279,32.16-3.84,34.221c-2.561,2.059,17.301,1.859,17.301,1.859
	s0.889-19.68,1.66-20.699c0.77-1.021-0.512-22-0.512-22s-0.129-17.941,1.541-22.682s1.48-20.5,1.48-20.5s1.469-9.459,3.26-11.67
	C844.379,515.63,839.331,505.96,839.331,505.96z"/>
<path fill="#FA5252" d="M838.901,505.57c0,0-12.881-2.65-16.342-0.859c-3.459,1.789-10.219,3.189-11.238,4.189
	c-1.021,1-3.59,0.26-5.9,6.279c-2.311,6.021-2.561,12.182-5.51,15c-2.951,2.82-4.48,4.74-4.611,6.791
	c-0.129,2.049,0.381,2.561-0.77,3.199c-1.15,0.641-2.82,3.33-2.311,4.361c0.512,1.029,26.682,23.619,26.682,23.619
	s1.279,8.58,2.439,10.76s-1.291,32.17-3.85,34.221c-2.561,2.049,17.299,1.859,17.299,1.859s0.9-19.67,1.67-20.699
	c0.771-1.031-0.52-22-0.52-22s-0.119-17.941,1.541-22.68c1.658-4.74,1.42-20.551,1.42-20.551s1.469-9.461,3.26-11.66
	C843.95,515.201,838.901,505.57,838.901,505.57z"/>
<path opacity="0.1" enable-background="new    " d="M837.59,494.72c0.986,2.777,1.49,5.703,1.49,8.65
	c12.967,3.859,26.891-1.643,33.719-13.32c-0.623-3.156-1.041-6.35-1.25-9.561C871.549,480.49,832.081,478.441,837.59,494.72z"/>
<path fill="#FDCCBA" d="M818.11,474.47c0.002,16.209,13.145,29.348,29.354,29.346c16.211-0.002,29.35-13.145,29.348-29.354
	c-0.004-16.211-13.146-29.35-29.355-29.346c-13.857,0.002-25.826,9.697-28.705,23.254C818.325,470.375,818.11,472.419,818.11,474.47
	z"/>
<path fill="#FA5252" d="M799.27,542.39l-7,2.18c0,0,0.65,2.561-1.41,3.84c-1.234,0.877-1.914,2.342-1.789,3.85
	c0,0-0.771,2.82-2.561,3.461c-1.791,0.641-2.949,4.869-2.949,4.869l-5.9,6.791c0,0-2.17,1.789-1.791,2.689
	c0.381,0.9-2.309,1.15-2.309,1.15l1.34,22.82l12.18,2.299l7.559-0.77l6.15-2.301l5.381-3.209l2.439-6.279l10.76-16.4L799.27,542.39z
	"/>
<path fill="#EE8E9E" d="M775.309,573.019c0,0-15.639-22.559-27.299-10.379s4.74,31.91,8.59,31.27c3.85-0.639,22.17-1.67,22.17-1.67
	L775.309,573.019z"/>
<path fill="#0117FF" d="M742.518,527.765l70.143,35.801c0.756,0.387,1.057,1.314,0.67,2.072l-27.484,53.85
	c-0.387,0.758-1.314,1.059-2.072,0.672l-70.143-35.801c-0.758-0.387-1.059-1.314-0.672-2.072l27.486-53.85
	C740.833,527.679,741.76,527.378,742.518,527.765z"/>
<rect x="728.858" y="547.96" transform="matrix(-0.8907 -0.4546 0.4546 -0.8907 1182.1616 1432.0073)" fill="#FCBD24" width="68.781" height="51.83"/>
<circle fill="#E6E8EC" cx="730.299" cy="557" r="1.13"/>
<circle fill="#E6E8EC" cx="796.61" cy="590.97" r="1.859"/>
<path fill="#FDCCBA" d="M765.18,577.759c-0.119,16.92,34.859,20.5,34.859,20.5l8.941,1.42l4,0.641l1.67-16.539
	c0,0-1.83-0.271-4.121-0.801c-3.391-0.789-7.779-2.16-8.699-4.07C800.299,575.71,765.309,560.839,765.18,577.759z"/>
<path opacity="0.1" enable-background="new    " d="M818.75,468.371c0.813,0.064,1.576,0.42,2.15,1c1,1.049,1,2.91,2.33,3.549
	c0.479,0.215,1.014,0.277,1.529,0.18c3.41-0.479,5.379-4.33,8.65-5.389c1.91-0.49,3.932-0.314,5.729,0.5
	c0.732,0.221,1.391,0.641,1.9,1.209c1.1,1.42,0.33,3.51,0.84,5.221c0.701,2.379,3.541,3.33,6,3.641
	c2.461,0.309,5.23,0.479,6.881,2.34c1.104,1.414,1.547,3.234,1.221,5c-0.146,0.602-0.146,1.229,0,1.83
	c0.68,1.93,4,1.639,4.869,0.119c0.641-1.1,0.449-2,1.939-2.32c1.076-0.09,2.156,0.096,3.141,0.541
	c2.607,0.895,5.354,1.314,8.109,1.24c6.9-14.668,0.604-32.152-14.064-39.053c-14.666-6.9-32.15-0.604-39.051,14.064
	c-0.963,2.045-1.686,4.195-2.154,6.408L818.75,468.371z"/>
<path fill="#160E5C" d="M855.959,486.611c-0.143-0.605-0.143-1.236,0-1.842c0.328-1.764-0.115-3.584-1.219-5
	c-1.65-1.859-4.42-2-6.881-2.34c-2.459-0.34-5.299-1.26-6-3.639c-0.51-1.711,0.26-3.801-0.84-5.211
	c-0.508-0.574-1.166-0.996-1.9-1.219c-1.797-0.814-3.818-0.99-5.73-0.5c-3.27,1.059-5.238,4.908-8.648,5.389
	c-0.518,0.098-1.051,0.035-1.531-0.18c-1.289-0.641-1.34-2.5-2.33-3.551c-1.559-1.648-4.51-0.578-6.42-1.809
	c-1.24-0.801-1.719-2.361-2.07-3.791c-0.67-2.789-1.219-5.709-0.559-8.5c1.109-4.77,5.369-8,8.09-12.109
	c2.539-3.789,4-8.59,7.77-11.109c3.77-2.521,8.699-1.941,13-0.66c1.982,0.697,4.02,1.229,6.09,1.59
	c3.461,0.43,6.939-0.51,10.43-0.631c4.924-0.154,9.764,1.314,13.771,4.18c0.902,0.594,1.668,1.371,2.25,2.281
	c0.58,1.287,0.92,2.67,1,4.08c0.41,2.65,1.33,5.197,2.709,7.5c1.07,1.799,2.43,3.43,3.4,5.299c1.082,1.828,1.412,4.004,0.92,6.07
	c-0.33,1.051-1,2-1.23,3.09c-0.57,2.5,1.08,4.891,2.211,7.201c1.088,2.105,1.605,4.461,1.5,6.83
	c-0.131,2.385-1.246,4.609-3.08,6.139c-1.898,1.336-4.17,2.035-6.49,2c-2.811,0.086-5.615-0.344-8.27-1.27
	c-0.984-0.445-2.064-0.631-3.141-0.539c-1.49,0.299-1.301,1.219-1.939,2.318C859.959,488.24,856.639,488.531,855.959,486.611z"/>
<path opacity="0.1" enable-background="new    " d="M840.151,652.089l16.539-12.939l26-25.631c0,0-3.5-0.17-8.58-0.389
	c-1.008,0.908-1.654,2.152-1.82,3.5c-0.119,3.129-7,0.219-10.619,2c-3.621,1.779-21.131,24.27-24.211,24.129
	c-3.08-0.139-5.51-1.559-6.789,0.621l-0.09,0.139c-0.525,0.592-1.227,1-2,1.16L840.151,652.089z"/>
<path fill="#160E5C" d="M806.831,651.191l8.309,26.52l1.301,4.16l4-1.08l8.721-2.4L868,667.72c4.881-0.211,9.66-1.484,14-3.73
	c7.346-4.107,15.75-5.939,24.139-5.26c5.131,0.48,10.842-1.73,15.58-10.49c0,0,10.762-31.779-16.408-40.879
	c-27.172-9.102-28.461,4.84-28.461,4.84l-0.369,0.229c-1,0.67-4,2.781-4.121,5.352c-0.119,3.139-7,0.219-10.619,2
	c-3.621,1.779-21.201,24.279-24.281,24.119s-5.51-1.561-6.789,0.619l-0.09,0.141c-0.951,1.311-3.811,1.609-5.691,1.67
	c-1,0-1.779,0-1.779,0l-0.24,0.07l-2,0.59L806.831,651.191z"/>
<path opacity="0.1" enable-background="new    " d="M808.981,599.679l4,0.641l1.67-16.539c0,0-1.83-0.271-4.121-0.801
	C811.129,585.281,809.76,594.201,808.981,599.679z"/>
<path opacity="0.1" enable-background="new    " d="M913.77,522.429c0,0,11.92-3.459,9,30.381s-25,55.23-25,55.23
	s-25.369,11.15-36.779,9.359c-6.537-1.055-13.121-1.783-19.73-2.18c-3.592-1.816-7.521-2.865-11.541-3.08
	c-6.398-0.25-19.859-4.23-20.119-5.51c-0.26-1.281,3.34-20.121,1.801-21.531c0,0,17.939,0.74,19.729,2
	c1.791,1.262,4.361,0.371,6.281,0c1.92-0.369,7.82-5.488,19.479-1c0,0,4,0.381,5.512-0.639c1.51-1.021,4-0.26,4-0.26
	c0.988-0.342,1.928-0.816,2.789-1.41c0.381-0.51,3.461,0,3.461,0c0.674,0.33,1.488,0.051,1.818-0.623
	c0.043-0.088,0.078-0.182,0.102-0.277c0.4-1.051,1.008-2.01,1.789-2.82c0,0,3.461-19.48,10-26.779c0,0,1.92-1.67,1.41-3.721
	S898.389,518.33,913.77,522.429z"/>
<path fill="#FA5252" d="M913.459,519.83c0,0,11.92-3.459,9,30.381s-25,55.23-25,55.23s-25.379,11.148-36.779,9.359
	c-11.4-1.791-19.779-2.18-19.779-2.18c-3.59-1.816-7.516-2.865-11.531-3.08c-6.41-0.25-19.859-4.23-20.119-5.51
	c-0.26-1.281,3.33-20.121,1.789-21.531c0,0,17.941,0.74,19.74,2c1.801,1.26,4.359,0.361,6.279,0c1.922-0.359,7.82-5.5,19.48-1
	c0,0,4,0.381,5.51-0.639c1.51-1.021,4-0.262,4-0.262c0.988-0.338,1.924-0.813,2.781-1.41c0.379-0.51,3.459,0,3.459,0
	c0.676,0.332,1.49,0.053,1.82-0.621c0.043-0.09,0.076-0.182,0.1-0.277c0.41-1.049,1.021-2.008,1.801-2.82c0,0,3.459-19.48,10-26.781
	c0,0,1.93-1.67,1.41-3.719C886.901,544.919,898.081,515.73,913.459,519.83z"/>
<path opacity="0.1" enable-background="new    " d="M820.901,646.98l16.92,20.48c0.068-0.061,0.109-0.1,0.109-0.121
	c0.129-0.379,1.789-4.74,1.41-5c-0.381-0.26-3.33-6.67-9.23-9.359c-2.992-1.465-5.504-3.756-7.24-6.6L820.901,646.98z"/>
<path opacity="0.1" enable-background="new    " d="M821.129,682.419l1.852,1.07c0,0,4.289-3.449,8.568-6.92
	c4.281-3.471,8.41-6.859,8.48-7c0.121-0.379,1.791-4.74,1.4-5c-0.199-0.129-1.08-1.91-2.689-4c-11.48-3.221-4.17,4.75-3.201,5.109
	c0,0-14-3.199-14.74,12C820.7,679.267,820.811,680.861,821.129,682.419z"/>
<path fill="#FCBD24" d="M835.28,688.9l2.439,1.41l24.73,0.641c2.777,1.684,5.711,3.094,8.76,4.209
	c0.406,0.127,0.82,0.221,1.24,0.281c2.293,0.178,4.594,0.221,6.891,0.129c1.9,0,3.359-0.129,3.359-0.129s-1.17-31.201-2-34.48
	c-0.42-1.57-2.5-1.221-4.539-0.439c-1.537,0.621-3.018,1.371-4.43,2.238c0,0-10.512,1-12.182,1.932c-1.67,0.93-6.398-0.521-9.35,0
	c-2.949,0.52-8.199-3.471-8.199-3.471c-14.361-4.74-6.281,4.1-5.26,4.48c0,0-14-3.201-14.73,12
	C821.28,692.9,835.28,688.9,835.28,688.9z"/>
<path fill="#565387" d="M871.04,676.82c0.271,6.461,5.301,14.48,8.301,18.721c1.9,0,3.359-0.131,3.359-0.131s-1.17-31.199-2-34.48
	c-0.42-1.568-2.5-1.219-4.539-0.439C873.629,665.14,870.821,671.621,871.04,676.82z"/>
<path opacity="0.1" enable-background="new    " d="M871.04,676.82c0.271,6.461,5.301,14.48,8.301,18.721
	c1.9,0,3.359-0.131,3.359-0.131s-1.17-31.199-2-34.48c-0.42-1.568-2.5-1.219-4.539-0.439
	C873.629,665.14,870.821,671.621,871.04,676.82z"/>
<path fill="#DD9F17" d="M866.809,677.679c1.701,6.23,1.682,13.221,4.4,17.451c0.406,0.127,0.82,0.221,1.24,0.279
	c2.293,0.18,4.594,0.223,6.891,0.131c1.9,0,3.359-0.131,3.359-0.131s-1.17-31.199-2-34.48c-0.42-1.568-2.5-1.219-4.539-0.439
	c-1.537,0.623-3.018,1.373-4.43,2.24C871.731,662.73,864.629,669.701,866.809,677.679z"/>
<path opacity="0.1" enable-background="new    " d="M781.481,614.451c0,0,12.289,4,22.699,18.16L781.481,614.451z"/>
<g opacity="0.1">
	<path d="M881.309,460.669c0,0.1,0,0.191-0.068,0.281c-0.125,0.363-0.268,0.721-0.432,1.07
		C880.936,461.556,881.104,461.105,881.309,460.669z"/>
	<path d="M811.799,454.46c0.232-0.9,0.568-1.77,1-2.59c-0.068,0.219-0.129,0.439-0.189,0.67c-0.65,2.789-0.109,5.709,0.57,8.49
		c0.35,1.439,0.83,3,2.07,3.799c1.91,1.221,4.859,0.16,6.42,1.811c1,1,1,2.91,2.33,3.549c0.479,0.215,1.014,0.277,1.529,0.182
		c3.4-0.48,5.381-4.33,8.65-5.391c1.912-0.49,3.932-0.314,5.73,0.5c0.732,0.225,1.391,0.646,1.9,1.221
		c1.09,1.408,0.33,3.5,0.83,5.209c0.709,2.381,3.549,3.32,6,3.641c2.449,0.32,5.229,0.48,6.879,2.34
		c1.104,1.416,1.547,3.234,1.221,5c-0.15,0.6-0.15,1.229,0,1.83c0.68,1.92,4,1.641,4.869,0.119c0.641-1.1,0.439-2,1.939-2.33
		c1.076-0.082,2.156,0.107,3.141,0.551c2.662,0.91,5.469,1.33,8.279,1.24c2.32,0.033,4.592-0.666,6.49-2
		c0.83-0.658,1.512-1.482,2-2.42c-0.434,1.705-1.404,3.227-2.77,4.34c-1.898,1.334-4.17,2.035-6.49,2
		c-2.824,0.074-5.637-0.375-8.299-1.32c-0.984-0.445-2.064-0.631-3.141-0.539c-1.49,0.299-1.301,1.219-1.939,2.318
		c-0.871,1.521-4.191,1.811-4.871-0.109c-0.143-0.605-0.143-1.234,0-1.84c0.328-1.764-0.115-3.584-1.219-5
		c-1.65-1.859-4.42-2-6.881-2.34s-5.301-1.26-6-3.641c-0.51-1.709,0.26-3.799-0.84-5.209c-0.51-0.574-1.168-0.996-1.9-1.221
		c-1.797-0.814-3.818-0.99-5.73-0.5c-3.27,1.061-5.25,4.91-8.648,5.391c-0.518,0.098-1.051,0.033-1.531-0.18
		c-1.289-0.641-1.34-2.5-2.33-3.551c-1.561-1.65-4.51-0.58-6.42-1.811c-1.24-0.799-1.719-2.359-2.07-3.789
		C811.69,460.169,811.151,457.25,811.799,454.46z"/>
</g>
<path opacity="0.1" enable-background="new    " d="M883.299,557.031c-2.35,3.17-5,6.1-7.109,9.449s-3.539,7.27-3.109,11.189
	c2.15-2.199,3.129-5.25,4.49-8c2.289-4.68,5.719-8.65,8.619-13c0.551-0.82,4.09-5.57,2.301-5.799
	C887.01,550.701,884.1,555.951,883.299,557.031z"/>
</svg>
